<svg width="70" height="24" viewBox="0 0 70 24" fill="none" xmlns="http://www.w3.org/2000/svg">
<path fill-rule="evenodd" clip-rule="evenodd" d="M30.0919 10.7072C28.4201 12.1082 26.068 11.2925 25.1937 10.1621C24.7111 9.50674 24.4672 8.70601 24.5025 7.89288C24.5378 7.07975 24.8501 6.30313 25.3876 5.69198C26.5143 4.48847 28.8079 4.2946 30.0516 5.42128V4.70064H31.8038V11.3291C31.826 11.9273 31.6671 12.5183 31.348 13.0247C31.0288 13.5312 30.5643 13.9296 30.015 14.1677C29.2231 14.4898 28.3578 14.5878 27.5139 14.451C26.67 14.3142 25.88 13.9479 25.2303 13.3922C25.1535 13.3117 25.0766 13.2752 25.1169 13.2752C25.432 12.8798 25.7691 12.5024 26.1265 12.1448C26.1668 12.1082 26.2802 12.1448 26.3204 12.2253C26.6943 12.5153 27.1309 12.7137 27.5953 12.8045C28.0596 12.8954 28.5388 12.8761 28.9944 12.7484C29.326 12.6636 29.6174 12.4653 29.8179 12.188C30.0184 11.9106 30.1154 11.5717 30.0919 11.2303V10.7072ZM29.9748 8.02583C30.014 7.82779 30.0084 7.6235 29.9584 7.42792C29.9083 7.23234 29.8152 7.05042 29.6858 6.89548C29.4327 6.62924 29.1092 6.44025 28.753 6.35043C28.3877 6.22933 27.9952 6.21635 27.6227 6.31305C27.2502 6.40974 26.9136 6.612 26.6533 6.89548C26.482 7.10399 26.3602 7.34852 26.2968 7.61079C26.2335 7.87305 26.2303 8.14625 26.2875 8.40992C26.3172 8.74203 26.4549 9.05526 26.6795 9.30168C26.9041 9.5481 27.2033 9.71414 27.5312 9.77439C27.7726 9.81946 28.0173 9.84515 28.2628 9.8512C28.5468 9.8512 28.8268 9.78509 29.0808 9.65811C29.3348 9.53112 29.5557 9.34675 29.7261 9.11959C29.9275 8.79159 29.9968 8.39933 29.9199 8.02217L29.9748 8.02583Z" fill="white"/>
<path fill-rule="evenodd" clip-rule="evenodd" d="M67.9419 2.42523H69.7307V11.2522H68.0992V10.6303C67.7563 10.9686 67.3369 11.2194 66.8765 11.3614C66.4162 11.5034 65.9284 11.5324 65.4544 11.446C64.9834 11.4035 64.5262 11.2643 64.1114 11.0371C63.6966 10.8099 63.3332 10.4995 63.0438 10.1255C62.5887 9.45944 62.3718 8.65928 62.4283 7.85461C62.4847 7.04994 62.8111 6.28789 63.3547 5.69189C64.3643 4.5652 66.4641 4.25427 67.9419 5.32608V2.42523ZM67.9822 8.06232H67.9419V7.69651C67.965 7.49059 67.9261 7.28248 67.8303 7.09875C67.7345 6.91501 67.5862 6.76398 67.4042 6.66494C67.1119 6.49483 66.7982 6.36443 66.4714 6.27718C66.092 6.20549 65.7001 6.24425 65.3421 6.38886C64.9841 6.53348 64.6752 6.77785 64.4521 7.09293C64.2095 7.50924 64.1346 8.00233 64.2427 8.4719C64.3507 8.94147 64.6336 9.35225 65.0338 9.62066C65.3008 9.76 65.5927 9.8453 65.8927 9.87166C66.1928 9.89803 66.4951 9.86494 66.7823 9.77429C67.0485 9.72072 67.2945 9.59414 67.4928 9.40873C67.6912 9.22332 67.834 8.98638 67.9053 8.72443C67.9513 8.50656 67.977 8.28491 67.9822 8.06232Z" fill="white"/>
<path fill-rule="evenodd" clip-rule="evenodd" d="M36.5666 4.70059C37.0394 4.67631 37.5121 4.75087 37.9544 4.91951C38.3968 5.08815 38.7992 5.34716 39.1358 5.68002C39.4724 6.01288 39.736 6.41227 39.9096 6.85269C40.0833 7.29312 40.1632 7.7649 40.1442 8.23794C40.104 8.92815 39.861 9.59114 39.4455 10.1438C38.9179 10.8244 38.1544 11.2825 37.3056 11.4278C36.7695 11.5357 36.2171 11.5326 35.6823 11.4187C35.1475 11.3048 34.6418 11.0826 34.1962 10.7657C33.8359 10.4961 33.5339 10.1563 33.3083 9.76698C33.0828 9.37761 32.9383 8.94664 32.8836 8.49998C32.8289 8.05332 32.8652 7.60022 32.9902 7.16794C33.1152 6.73565 33.3263 6.33313 33.6109 5.98457C34.3425 5.0481 35.3631 4.70059 36.5666 4.70059ZM38.3152 8.12088C38.3352 7.88075 38.3046 7.63909 38.2254 7.41151C38.1461 7.18394 38.0201 6.97551 37.8553 6.7997C37.6905 6.62388 37.4907 6.48458 37.2687 6.39081C37.0467 6.29703 36.8076 6.25086 36.5666 6.25527C36.3146 6.23493 36.0612 6.26892 35.8235 6.35492C35.5858 6.44092 35.3692 6.57694 35.1886 6.75378C35.0079 6.93063 34.8673 7.14419 34.7763 7.38003C34.6852 7.61588 34.6458 7.86851 34.6608 8.12088C34.6563 8.3636 34.7021 8.60462 34.7953 8.82879C34.8885 9.05295 35.027 9.2554 35.2023 9.42342C35.3775 9.59143 35.5856 9.72136 35.8135 9.80505C36.0413 9.88873 36.2841 9.92436 36.5264 9.90968C36.7652 9.92468 37.0045 9.8887 37.2283 9.80411C37.4521 9.71952 37.6554 9.58827 37.8246 9.41907C37.9938 9.24988 38.125 9.04661 38.2096 8.82278C38.2942 8.59896 38.3302 8.35969 38.3152 8.12088Z" fill="white"/>
<path fill-rule="evenodd" clip-rule="evenodd" d="M53.7523 8.06241C53.7332 8.89811 53.411 9.69839 52.8457 10.3142C52.2804 10.9299 51.5105 11.3192 50.6795 11.4095C50.1302 11.5115 49.565 11.4874 49.0264 11.3391C48.4878 11.1908 47.9899 10.9222 47.5701 10.5536C46.9494 9.9904 46.5614 9.21568 46.4822 8.38128C46.403 7.54689 46.6384 6.71301 47.1422 6.04315C47.9213 5.02987 48.9712 4.64211 50.2515 4.68235C51.0746 4.69042 51.8705 4.97807 52.5085 5.4981C53.0639 5.9223 53.4524 6.52832 53.606 7.21008C53.6864 7.48078 53.6864 7.75147 53.7633 8.06241H53.7523ZM51.9232 8.06241C51.9381 7.59365 51.7667 7.13809 51.4466 6.79534C51.1264 6.45259 50.6836 6.25055 50.2149 6.23337C48.9309 6.19313 48.2688 7.04912 48.2688 8.02217C48.2664 8.26236 48.3114 8.50068 48.4011 8.7235C48.4908 8.94633 48.6235 9.14931 48.7916 9.32085C48.9598 9.49239 49.16 9.62913 49.381 9.72327C49.602 9.81741 49.8394 9.86709 50.0796 9.8695C50.3198 9.8719 50.5581 9.82697 50.7809 9.73727C51.0037 9.64757 51.2067 9.51486 51.3783 9.34672C51.5498 9.17857 51.6865 8.97829 51.7807 8.7573C51.8748 8.53631 51.9245 8.29894 51.9269 8.05875L51.9232 8.06241Z" fill="white"/>
<path fill-rule="evenodd" clip-rule="evenodd" d="M54.451 7.86848C54.4107 6.40525 55.6581 5.02981 57.2494 4.75912C58.6907 4.48842 59.9344 4.79936 60.944 5.92604C61.3325 6.40469 61.5751 6.98503 61.6427 7.59778C61.7881 8.37978 61.6241 9.18765 61.1855 9.85115C60.9064 10.2824 60.5347 10.646 60.0975 10.9156C59.6602 11.1851 59.1684 11.3539 58.6577 11.4095C58.1646 11.505 57.6569 11.4954 57.1678 11.3813C56.6786 11.2672 56.219 11.0512 55.8191 10.7474C54.8863 10.0853 54.4583 9.1927 54.4583 7.86848H54.451ZM56.2398 8.06235C56.226 8.30616 56.2638 8.55012 56.3509 8.77828C56.4379 9.00643 56.5722 9.21363 56.7448 9.3863C56.9175 9.55897 57.1247 9.69322 57.3529 9.78026C57.581 9.8673 57.825 9.90517 58.0688 9.89139C58.3109 9.89847 58.5519 9.856 58.777 9.76659C59.0021 9.67718 59.2066 9.54271 59.3779 9.37144C59.5491 9.20016 59.6836 8.9957 59.773 8.77059C59.8624 8.54548 59.9049 8.30447 59.8978 8.06235C59.9037 7.82731 59.863 7.59342 59.7782 7.37413C59.6934 7.15484 59.5661 6.95447 59.4036 6.78452C59.2411 6.61457 59.0467 6.47838 58.8314 6.38379C58.6162 6.2892 58.3843 6.23807 58.1493 6.23332C57.9001 6.2117 57.6492 6.24356 57.4133 6.32676C57.1775 6.40996 56.9621 6.54259 56.7817 6.71576C56.6012 6.88893 56.4599 7.09866 56.367 7.33089C56.2742 7.56313 56.2321 7.81251 56.2434 8.06235H56.2398Z" fill="white"/>
<path fill-rule="evenodd" clip-rule="evenodd" d="M43.9925 6.35415V11.2523H42.1635V6.39073H40.8832C40.6893 6.39073 40.649 6.35415 40.649 6.19685C40.6893 5.73228 40.6893 5.30428 40.6893 4.83605H42.2037C42.1769 4.53807 42.1905 4.23784 42.244 3.94348C42.2614 3.55572 42.4196 3.18762 42.6889 2.90815C42.9583 2.62869 43.3203 2.45704 43.7072 2.42538C44.4059 2.37477 45.1069 2.36256 45.8069 2.3888C45.8413 2.39068 45.8743 2.40284 45.9017 2.42372C45.9291 2.44459 45.9496 2.4732 45.9606 2.50586V3.94348H44.5229C44.1352 3.94348 43.9779 4.06054 43.9779 4.48853V4.83605H46.3886V6.35415H43.9925Z" fill="white"/>
<path fill-rule="evenodd" clip-rule="evenodd" d="M50.1345 19.1062C50.1288 19.6888 49.9576 20.2577 49.6409 20.7467C49.3242 21.2357 48.875 21.6246 48.3457 21.868C48.2759 21.9077 48.198 21.9311 48.1179 21.9366C48.0378 21.942 47.9575 21.9293 47.883 21.8994C47.8085 21.8696 47.7416 21.8233 47.6875 21.764C47.6333 21.7047 47.5932 21.634 47.5701 21.5571C47.5442 21.4906 47.5317 21.4196 47.5333 21.3482C47.5349 21.2769 47.5506 21.2065 47.5795 21.1412C47.6084 21.076 47.6499 21.017 47.7017 20.9679C47.7534 20.9187 47.8144 20.8803 47.8811 20.8548C48.231 20.7219 48.5292 20.4804 48.732 20.1657C48.9347 19.8511 49.0314 19.4798 49.0078 19.1062C49.0002 18.7127 48.8684 18.3317 48.6312 18.0176C48.3941 17.7036 48.0636 17.4725 47.6872 17.3576C47.3137 17.2404 46.9125 17.245 46.5417 17.3705C46.1709 17.4961 45.8495 17.7363 45.6241 18.0563C45.4651 18.2814 45.3573 18.5384 45.3081 18.8095C45.2589 19.0806 45.2695 19.3591 45.3392 19.6257C45.4088 19.8922 45.5359 20.1403 45.7115 20.3526C45.8871 20.5649 46.1069 20.7363 46.3557 20.8548C46.4323 20.8788 46.5026 20.9197 46.5614 20.9743C46.6203 21.0289 46.6663 21.096 46.6961 21.1705C46.7258 21.2451 46.7386 21.3254 46.7335 21.4055C46.7284 21.4857 46.7056 21.5637 46.6666 21.6339C46.6336 21.7027 46.5858 21.7634 46.5266 21.8116C46.4675 21.8598 46.3984 21.8944 46.3244 21.9129C46.2503 21.9314 46.1731 21.9334 46.0982 21.9187C46.0234 21.904 45.9526 21.8729 45.8911 21.8278C45.4447 21.6403 45.0553 21.3389 44.762 20.9537C44.4686 20.5686 44.2815 20.1131 44.2194 19.633C44.0792 18.8796 44.2382 18.1014 44.6626 17.4634C45.087 16.8254 45.7434 16.378 46.4923 16.2161C47.2412 16.0542 48.0238 16.1906 48.6738 16.5964C49.3238 17.0021 49.79 17.6453 49.9735 18.3892C50.0503 18.6599 50.0906 18.894 50.1271 19.0879L50.1345 19.1062Z" fill="white"/>
<path fill-rule="evenodd" clip-rule="evenodd" d="M54.4107 17.5038V17.138H55.307V20.4303C55.3117 20.7244 55.2388 21.0146 55.0956 21.2715C54.9524 21.5284 54.7439 21.743 54.4912 21.8935C54.0977 22.0801 53.6602 22.1535 53.2274 22.1057C52.7946 22.0579 52.3836 21.8907 52.0403 21.6228C51.9833 21.5616 51.918 21.5087 51.8464 21.4655L52.4281 20.8839C52.7308 21.1487 53.1235 21.2875 53.5255 21.2717C54.1474 21.2351 54.4985 20.8839 54.3815 20.2218C54.139 20.4019 53.8549 20.5178 53.5556 20.5588C53.2563 20.5997 52.9515 20.5643 52.6695 20.4559C52.3188 20.3348 52.0273 20.0851 51.8537 19.7572C51.6491 19.4253 51.561 19.0346 51.6034 18.647C51.6458 18.2594 51.8163 17.897 52.0879 17.6172C52.4019 17.3295 52.8065 17.1603 53.2319 17.1389C53.6573 17.1176 54.0768 17.2453 54.418 17.5002L54.4107 17.5038ZM54.3742 18.8646C54.3912 18.7399 54.3785 18.6128 54.337 18.4939C54.2954 18.375 54.2264 18.2676 54.1354 18.1805C54.0444 18.0934 53.934 18.0291 53.8134 17.9929C53.6928 17.9567 53.5653 17.9495 53.4413 17.9721C53.3192 17.9672 53.1973 17.9873 53.0832 18.0313C52.9691 18.0752 52.8652 18.1421 52.7779 18.2277C52.6906 18.3133 52.6218 18.4158 52.5756 18.529C52.5294 18.6422 52.5069 18.7637 52.5094 18.8859C52.5119 19.0081 52.5394 19.1286 52.5901 19.2398C52.6409 19.351 52.7139 19.4507 52.8046 19.5326C52.8954 19.6146 53.0019 19.6771 53.1177 19.7164C53.2335 19.7556 53.3561 19.7708 53.4779 19.7609C53.5993 19.7764 53.7226 19.7639 53.8384 19.7243C53.9542 19.6848 54.0594 19.6192 54.146 19.5327C54.2325 19.4462 54.2981 19.341 54.3376 19.2252C54.3772 19.1094 54.3897 18.986 54.3742 18.8646Z" fill="white"/>
<path fill-rule="evenodd" clip-rule="evenodd" d="M69.1089 17.1636L67.5944 18.561C68.0993 19.2597 68.6041 19.9218 69.1089 20.6205H68.1761C68.0993 20.5839 68.0188 20.5071 67.942 20.4669C67.7047 20.0865 67.4458 19.7201 67.1665 19.3695C67.0911 19.2946 67.0369 19.2013 67.0092 19.0988C66.8153 19.3329 66.5446 19.4865 66.4641 19.7609C66.4253 20.0437 66.4253 20.3304 66.4641 20.6132H65.6081C65.5803 20.5258 65.5679 20.4342 65.5715 20.3425V16.4613C65.5715 16.2272 65.6484 16.1138 65.8825 16.1504C66.0758 16.1707 66.2708 16.1707 66.4641 16.1504V18.5244C66.6982 18.2903 66.9323 18.0562 67.1665 17.8623C67.4006 17.6685 67.5944 17.4746 67.8249 17.277C67.9054 17.2002 67.942 17.1636 68.0188 17.1636H69.1089Z" fill="white"/>
<path fill-rule="evenodd" clip-rule="evenodd" d="M62.4219 19.1463C62.4517 19.3339 62.545 19.5056 62.6861 19.6328C62.8272 19.7599 63.0077 19.8348 63.1974 19.845C63.5395 19.8894 63.886 19.8061 64.1704 19.6109C64.1946 19.585 64.2263 19.5673 64.261 19.5601C64.2957 19.5529 64.3318 19.5566 64.3643 19.5707C64.5576 19.6842 64.74 19.8152 64.9093 19.9621C64.6401 20.2325 64.3033 20.4257 63.934 20.5215C63.5646 20.6174 63.1764 20.6124 62.8096 20.5071C62.1512 20.3498 61.6829 19.9987 61.5659 19.3402C61.4768 19.0515 61.465 18.7445 61.5318 18.4498C61.5985 18.1552 61.7414 17.8832 61.9461 17.661C62.1509 17.4389 62.4104 17.2743 62.6986 17.1838C62.9869 17.0934 63.2938 17.0801 63.5888 17.1454C63.9249 17.1898 64.2392 17.3364 64.4891 17.5654C64.7391 17.7945 64.9126 18.0948 64.9862 18.4257C65.0264 18.6598 65.0264 18.8939 65.0666 19.128H62.4219V19.1463ZM64.1338 18.5245C64.0534 18.0562 63.7424 17.8623 63.1608 17.8989C62.7328 17.9392 62.4621 18.1733 62.4621 18.5245H64.1338Z" fill="white"/>
<path fill-rule="evenodd" clip-rule="evenodd" d="M57.6774 17.1381C58.6907 17.1784 59.4662 17.8002 59.5064 18.7696C59.5358 19.0855 59.4747 19.4032 59.3302 19.6856C59.1858 19.968 58.964 20.2035 58.6907 20.3645C58.3202 20.5686 57.8943 20.6495 57.4748 20.5956C57.0552 20.5417 56.6637 20.3557 56.3568 20.0646C56.1561 19.872 56.0063 19.6326 55.9208 19.368C55.8352 19.1033 55.8166 18.8215 55.8667 18.5479C55.9167 18.2743 56.0337 18.0174 56.2074 17.8001C56.381 17.5828 56.6058 17.4119 56.8616 17.3027C57.1224 17.198 57.3974 17.1326 57.6774 17.1089V17.1381ZM58.6248 18.872C58.6324 18.7494 58.6132 18.6265 58.5684 18.512C58.5237 18.3975 58.4545 18.2942 58.3656 18.2092C58.2768 18.1242 58.1705 18.0596 58.0542 18.02C57.9379 17.9803 57.8143 17.9665 57.692 17.9795C57.5706 17.9702 57.4485 17.9865 57.3338 18.0276C57.2191 18.0686 57.1144 18.1333 57.0263 18.2175C56.9383 18.3017 56.8691 18.4035 56.823 18.5163C56.777 18.6291 56.7553 18.7503 56.7592 18.872C56.763 19.1183 56.8625 19.3533 57.0366 19.5275C57.2107 19.7016 57.4458 19.8011 57.692 19.8049C57.8159 19.81 57.9395 19.7894 58.055 19.7444C58.1705 19.6993 58.2754 19.6308 58.3631 19.5431C58.4508 19.4555 58.5193 19.3506 58.5644 19.235C58.6094 19.1195 58.63 18.9959 58.6248 18.872Z" fill="white"/>
<path fill-rule="evenodd" clip-rule="evenodd" d="M60.0515 17.1636H60.9441V21.129C60.9569 21.263 60.9392 21.3982 60.8924 21.5244C60.8456 21.6506 60.7708 21.7646 60.6737 21.8579C60.5766 21.9511 60.4597 22.0212 60.3316 22.0628C60.2036 22.1045 60.0678 22.1166 59.9344 22.0983H59.2028V21.3228H59.6674C60.0332 21.2826 60.0588 21.2058 60.0588 20.8948V17.1636H60.0515Z" fill="white"/>
<path fill-rule="evenodd" clip-rule="evenodd" d="M46.0521 19.1061C45.9752 18.6013 46.5971 18.0087 47.1495 18.0562C47.2948 18.0517 47.4396 18.0769 47.5748 18.1305C47.71 18.184 47.8328 18.2647 47.9356 18.3675C48.0385 18.4703 48.1191 18.5931 48.1727 18.7284C48.2262 18.8636 48.2515 19.0083 48.2469 19.1537C48.2479 19.4478 48.1336 19.7305 47.9284 19.9412C47.7232 20.1519 47.4435 20.2736 47.1495 20.2804C46.9979 20.2858 46.8469 20.2587 46.7066 20.201C46.5663 20.1433 46.44 20.0563 46.3361 19.9458C46.2322 19.8353 46.1531 19.7039 46.1041 19.5603C46.0551 19.4168 46.0374 19.2644 46.0521 19.1134V19.1061Z" fill="white"/>
<path fill-rule="evenodd" clip-rule="evenodd" d="M25.212 17.5514H26.1485C26.2552 17.5388 26.3634 17.5498 26.4653 17.5838C26.5673 17.6177 26.6605 17.6737 26.7384 17.7477C26.8162 17.8217 26.8768 17.912 26.9159 18.0121C26.9549 18.1122 26.9714 18.2197 26.9642 18.3269C26.9649 18.4305 26.9436 18.533 26.9017 18.6277C26.8598 18.7225 26.7982 18.8072 26.7211 18.8764C26.644 18.9456 26.5531 18.9976 26.4544 19.0289C26.3557 19.0603 26.2514 19.0704 26.1485 19.0585H25.5266V19.9547H25.212V17.5514ZM26.1485 18.7549C26.5143 18.7549 26.6533 18.6378 26.6533 18.3269C26.6533 18.0159 26.496 17.8696 26.1485 17.8696H25.5266V18.7622L26.1485 18.7549Z" fill="white"/>
<path fill-rule="evenodd" clip-rule="evenodd" d="M27.9739 18.0965C28.0958 18.0978 28.216 18.1246 28.3269 18.1753C28.4378 18.226 28.5368 18.2994 28.6175 18.3908C28.6982 18.4822 28.7588 18.5895 28.7953 18.7058C28.8319 18.8221 28.8437 18.9448 28.8298 19.0659C28.8409 19.1849 28.8269 19.305 28.7889 19.4184C28.7509 19.5317 28.6897 19.6359 28.6091 19.7243C28.5286 19.8126 28.4304 19.8832 28.3211 19.9315C28.2117 19.9798 28.0934 20.0048 27.9739 20.0048C27.8543 20.0048 27.736 19.9798 27.6267 19.9315C27.5173 19.8832 27.4192 19.8126 27.3386 19.7243C27.258 19.6359 27.1968 19.5317 27.1588 19.4184C27.1208 19.305 27.1069 19.1849 27.1179 19.0659C27.104 18.9448 27.1158 18.8221 27.1524 18.7058C27.189 18.5895 27.2496 18.4822 27.3303 18.3908C27.4109 18.2994 27.5099 18.226 27.6208 18.1753C27.7317 18.1246 27.852 18.0978 27.9739 18.0965ZM27.9739 18.3672C27.8032 18.3886 27.6462 18.4716 27.5323 18.6006C27.4185 18.7296 27.3557 18.8957 27.3557 19.0677C27.3557 19.2397 27.4185 19.4059 27.5323 19.5348C27.6462 19.6638 27.8032 19.7468 27.9739 19.7682C28.3397 19.7682 28.5591 19.4939 28.5591 19.0659C28.5591 18.6379 28.325 18.3672 27.9739 18.3672Z" fill="white"/>
<path fill-rule="evenodd" clip-rule="evenodd" d="M28.9835 18.1732H29.2578L29.5688 19.5742H29.6053L30.0736 18.1732H30.3443L30.8125 19.5742L31.1637 18.1732H31.4344L30.9661 19.962H30.7357L30.2309 18.4841L29.6858 19.962H29.4115L28.9835 18.1732Z" fill="white"/>
<path fill-rule="evenodd" clip-rule="evenodd" d="M32.4074 18.0965C32.5264 18.0966 32.6441 18.1214 32.7531 18.1693C32.862 18.2172 32.9598 18.2872 33.0403 18.3749C33.1207 18.4626 33.1821 18.566 33.2205 18.6787C33.2589 18.7913 33.2736 18.9107 33.2634 19.0293V19.1464H31.8624C31.841 19.2902 31.8742 19.4368 31.9556 19.5573C32.0369 19.6778 32.1604 19.7635 32.3018 19.7975C32.4432 19.8314 32.5921 19.8112 32.7194 19.7408C32.8466 19.6704 32.9428 19.5549 32.9891 19.4171L33.2232 19.5707C33.1474 19.717 33.0285 19.8364 32.8826 19.913C32.7367 19.9895 32.5709 20.0194 32.4074 19.9987C32.2904 19.9975 32.175 19.9716 32.0687 19.9228C31.9624 19.8739 31.8677 19.8031 31.7906 19.715C31.7136 19.6269 31.6561 19.5236 31.6218 19.4117C31.5875 19.2998 31.5772 19.182 31.5917 19.0659C31.5769 18.9478 31.5867 18.828 31.6205 18.7139C31.6542 18.5999 31.7112 18.494 31.7878 18.403C31.8644 18.312 31.959 18.2377 32.0656 18.185C32.1722 18.1323 32.2886 18.1021 32.4074 18.0965ZM32.9891 18.9122C32.98 18.77 32.9262 18.6343 32.8354 18.5245C32.7801 18.4683 32.7131 18.4251 32.6391 18.3979C32.5651 18.3707 32.486 18.3602 32.4074 18.3672C32.2657 18.3759 32.1321 18.4361 32.0317 18.5365C31.9313 18.6369 31.871 18.7705 31.8624 18.9122H32.9891Z" fill="white"/>
<path fill-rule="evenodd" clip-rule="evenodd" d="M33.611 18.1733H33.8853V18.3269C33.9297 18.2659 33.9881 18.2165 34.0556 18.1828C34.1231 18.1491 34.1976 18.132 34.2731 18.133C34.34 18.1301 34.4067 18.1439 34.4669 18.1733L34.3901 18.4074H34.2328C34.0024 18.4074 33.9219 18.561 33.9219 18.8719V19.9694H33.611V18.1733Z" fill="white"/>
<path fill-rule="evenodd" clip-rule="evenodd" d="M35.44 18.0965C35.9046 18.0965 36.2155 18.4843 36.2155 19.0293V19.1464H34.8474C34.8419 19.2282 34.8528 19.3102 34.8794 19.3878C34.906 19.4654 34.9477 19.5369 35.0022 19.5981C35.0566 19.6594 35.1227 19.7092 35.1966 19.7447C35.2706 19.7802 35.3508 19.8006 35.4327 19.8048C35.6668 19.8048 35.8204 19.6878 35.9777 19.4171L36.2082 19.5707C36.1342 19.7095 36.0216 19.8238 35.8839 19.8997C35.7462 19.9757 35.5895 20.0101 35.4327 19.9987C35.3126 20.0021 35.1933 19.9797 35.0827 19.9329C34.9721 19.8862 34.8729 19.8162 34.7917 19.7277C34.7105 19.6393 34.6493 19.5344 34.6122 19.4202C34.5751 19.306 34.563 19.1852 34.5767 19.0659C34.5628 18.9448 34.5746 18.8221 34.6112 18.7058C34.6478 18.5895 34.7084 18.4822 34.7891 18.3908C34.8698 18.2994 34.9687 18.226 35.0796 18.1753C35.1905 18.1246 35.3108 18.0978 35.4327 18.0965H35.44ZM35.985 18.9122C35.9814 18.8373 35.9619 18.764 35.9279 18.6972C35.8938 18.6303 35.846 18.5715 35.7875 18.5245C35.7463 18.4725 35.6932 18.4311 35.6328 18.4038C35.5723 18.3764 35.5062 18.3639 35.44 18.3672C35.2907 18.3667 35.1468 18.4226 35.0369 18.5236C34.927 18.6247 34.8593 18.7635 34.8474 18.9122H35.985Z" fill="white"/>
<path fill-rule="evenodd" clip-rule="evenodd" d="M37.3824 18.0965C37.5923 18.1127 37.7877 18.2098 37.9275 18.3672V17.4747H38.1616V19.9622H37.9275V19.8049C37.7742 19.9316 37.5812 20.0003 37.3824 19.9987C37.2654 19.9976 37.15 19.9717 37.0437 19.9228C36.9374 19.8739 36.8426 19.8031 36.7656 19.715C36.6886 19.627 36.631 19.5236 36.5968 19.4117C36.5625 19.2999 36.5522 19.182 36.5666 19.0659C36.5556 18.9485 36.568 18.8301 36.6032 18.7176C36.6384 18.605 36.6956 18.5006 36.7715 18.4104C36.8474 18.3202 36.9405 18.246 37.0454 18.1921C37.1503 18.1382 37.2648 18.1057 37.3824 18.0965ZM37.9275 18.8721C37.9217 18.733 37.8612 18.6018 37.7591 18.5072C37.6569 18.4126 37.5215 18.3623 37.3824 18.3672C37.0166 18.3672 36.8373 18.6379 36.8373 19.0659C36.8373 19.4939 37.0349 19.7683 37.3824 19.7683C37.4544 19.7698 37.5259 19.7567 37.5927 19.7298C37.6595 19.703 37.7202 19.6629 37.7711 19.612C37.8221 19.5611 37.8621 19.5004 37.889 19.4336C37.9159 19.3668 37.9289 19.2952 37.9275 19.2232V18.8721Z" fill="white"/>
<path fill-rule="evenodd" clip-rule="evenodd" d="M39.8333 19.8049V19.9622H39.559V17.4747H39.8333V18.3672C39.8967 18.2827 39.979 18.2142 40.0737 18.1672C40.1683 18.1202 40.2727 18.096 40.3784 18.0965C40.4959 18.1057 40.6105 18.1382 40.7153 18.1921C40.8202 18.246 40.9133 18.3202 40.9892 18.4104C41.0652 18.5006 41.1224 18.605 41.1575 18.7176C41.1927 18.8301 41.2052 18.9485 41.1941 19.0659C41.2086 19.182 41.1983 19.2999 41.164 19.4117C41.1297 19.5236 41.0722 19.627 40.9952 19.715C40.9181 19.8031 40.8234 19.8739 40.7171 19.9228C40.6108 19.9717 40.4954 19.9976 40.3784 19.9987C40.1784 20.0076 39.9828 19.938 39.8333 19.8049ZM40.3784 18.3672C40.2393 18.3623 40.1038 18.4126 40.0017 18.5072C39.8996 18.6018 39.839 18.733 39.8333 18.8721V19.2379C39.8318 19.3098 39.8449 19.3814 39.8718 19.4482C39.8986 19.515 39.9387 19.5757 39.9896 19.6266C40.0405 19.6775 40.1012 19.7176 40.168 19.7445C40.2348 19.7713 40.3064 19.7844 40.3784 19.7829C40.6893 19.7829 40.9198 19.5086 40.9198 19.0806C40.9198 18.6526 40.6893 18.3819 40.3784 18.3819V18.3672Z" fill="white"/>
<path fill-rule="evenodd" clip-rule="evenodd" d="M41.9696 19.8047L41.2709 18.1732H41.5819L42.1269 19.534L42.672 18.1732H42.9829L41.8928 20.7375H41.6221L41.9696 19.8047Z" fill="white"/>
<path fill-rule="evenodd" clip-rule="evenodd" d="M11.6442 23.8104C9.35652 23.8067 7.12128 23.1248 5.22114 21.8508C3.321 20.5768 1.84131 18.768 0.969191 16.6531C0.0970709 14.5381 -0.128312 12.2121 0.321545 9.96904C0.771401 7.726 1.87629 5.66674 3.49649 4.05165C5.1167 2.43656 7.17945 1.33819 9.42389 0.895432C11.6683 0.452672 13.9937 0.68541 16.1058 1.56421C18.218 2.44302 20.0222 3.92842 21.2901 5.83258C22.5581 7.73674 23.2329 9.97413 23.2293 12.2618C23.2303 13.7818 22.931 15.2869 22.3487 16.6909C21.7664 18.0948 20.9125 19.3699 19.8361 20.443C18.7596 21.516 17.4818 22.3659 16.076 22.9438C14.6702 23.5216 13.1641 23.8161 11.6442 23.8104ZM19.264 11.1351C19.236 10.382 19.1055 9.63625 18.8762 8.91835C18.588 8.03888 18.0953 7.2403 17.4386 6.58816C17.1021 6.26973 16.6751 6.06354 16.2165 5.99802C15.7578 5.9325 15.2902 6.01088 14.878 6.22235C14.1834 6.65694 13.6403 7.29585 13.3233 8.05139C12.8644 9.03328 12.5963 10.0934 12.5331 11.1754C12.4854 11.7845 12.578 12.3965 12.8038 12.9642C13.114 13.5801 13.5667 14.1132 14.1244 14.5189C14.35 14.6668 14.535 14.8688 14.6628 15.1065C14.7906 15.3441 14.857 15.6099 14.856 15.8797C14.856 16.3077 14.856 16.6954 14.8962 17.1636C14.9365 17.5294 14.9365 17.8953 14.9731 18.2903C15.0367 18.4997 15.1652 18.6835 15.3402 18.815C15.5151 18.9465 15.7273 19.019 15.9461 19.0219C16.1812 18.9973 16.4 18.89 16.5634 18.7192C16.7268 18.5484 16.8244 18.3251 16.8387 18.0891C16.8789 17.3868 16.9557 16.6881 16.9557 15.9894C16.9435 15.6759 17.0121 15.3645 17.155 15.0852C17.2978 14.8059 17.5101 14.568 17.7715 14.3945C18.8689 13.6153 19.3298 12.6057 19.2347 11.1278L19.264 11.1351ZM6.68022 8.57083V10.3596C6.67796 10.507 6.62088 10.6482 6.5201 10.7558C6.41932 10.8633 6.28208 10.9295 6.13517 10.9413C5.98538 10.9462 5.83973 10.8916 5.73005 10.7895C5.62037 10.6874 5.5556 10.546 5.54988 10.3962C5.53733 9.9071 5.56424 9.41777 5.63035 8.93298C5.66693 8.46841 5.74741 7.96359 5.82423 7.46975C5.83692 7.35491 5.82682 7.23869 5.7945 7.12775C5.76219 7.01682 5.70829 6.91336 5.6359 6.8233C5.56351 6.73324 5.47406 6.65835 5.37267 6.60294C5.27128 6.54752 5.15995 6.51267 5.04506 6.50037C4.82534 6.48591 4.60854 6.55706 4.44011 6.6989C4.27167 6.84074 4.16467 7.04226 4.14152 7.26124C4.10128 7.84654 3.98422 8.42817 3.94764 9.01346C3.94764 9.90603 3.86716 10.8425 3.94764 11.7351C3.98792 12.3145 4.16344 12.8764 4.46011 13.3757C4.75678 13.875 5.16635 14.2979 5.65596 14.6103C5.89395 14.762 6.09239 14.9682 6.23488 15.2119C6.37737 15.4555 6.4598 15.7295 6.47537 16.0113C6.51195 16.71 6.55219 17.4087 6.55219 18.1477C6.57544 18.3266 6.64506 18.4963 6.75415 18.6401C6.86323 18.7838 7.00798 18.8965 7.17406 18.9671C7.34052 19.0379 7.52568 19.0519 7.7009 19.007C7.87613 18.962 8.03166 18.8606 8.14345 18.7183C8.31771 18.4927 8.42541 18.2228 8.45438 17.9391C8.45438 17.3941 8.45438 16.9295 8.49096 16.3845C8.47406 16.04 8.54796 15.6972 8.70525 15.3903C8.86255 15.0835 9.09771 14.8233 9.38719 14.6359C10.0237 14.2289 10.5133 13.6291 10.7846 12.9239C11.0402 12.2883 11.1478 11.6027 11.0992 10.9193C11.0992 10.067 11.0626 9.211 10.9821 8.39159C10.9455 7.96725 10.8687 7.53926 10.7882 7.11126C10.7527 6.94108 10.6614 6.78759 10.529 6.67498C10.3965 6.56238 10.2303 6.49709 10.0566 6.48939C9.8829 6.47965 9.71053 6.52497 9.56406 6.61889C9.4176 6.71281 9.3045 6.85055 9.24087 7.0125C9.14579 7.31741 9.14579 7.64405 9.24087 7.94896C9.31769 8.76471 9.35793 9.54022 9.43475 10.3596C9.41294 10.5362 9.33166 10.7 9.20429 10.8242C9.08723 10.9815 8.89335 10.9815 8.65924 10.901C8.56072 10.8504 8.47894 10.7723 8.42378 10.6763C8.36861 10.5802 8.3424 10.4702 8.3483 10.3596V7.09297C8.3483 6.93568 8.30806 6.81862 8.30806 6.70156C8.27385 6.49377 8.16262 6.30649 7.99654 6.17701C7.83045 6.04753 7.6217 5.98536 7.41183 6.00287C7.30748 6.01072 7.2057 6.03913 7.11236 6.08647C7.01903 6.1338 6.93597 6.19913 6.86798 6.27868C6.79998 6.35824 6.74839 6.45045 6.71616 6.55002C6.68394 6.64959 6.67173 6.75455 6.68022 6.85886V8.57083Z" fill="white"/>
</svg>
