<svg width="50" height="24" viewBox="0 0 50 24" fill="none" xmlns="http://www.w3.org/2000/svg">
<path fill-rule="evenodd" clip-rule="evenodd" d="M12.3963 23.9092C14.7037 23.9092 16.9593 23.2249 18.8777 21.9429C20.7962 20.6609 22.2914 18.8388 23.1742 16.707C24.0571 14.5752 24.2879 12.2294 23.8375 9.9664C23.387 7.7034 22.2756 5.6248 20.6438 3.99349C19.012 2.36217 16.933 1.25142 14.6699 0.801713C12.4068 0.352007 10.0611 0.583547 7.92954 1.46705C5.79799 2.35055 3.97633 3.84633 2.69494 5.7652C1.41355 7.68408 0.72999 9.93986 0.730713 12.2473C0.742283 15.3373 1.97516 18.2974 4.16049 20.482C6.34581 22.6666 9.30629 23.8986 12.3963 23.9092ZM6.17758 9.17447H18.8491V18.5062H6.17392L6.17758 9.17447ZM14.6497 16.9881C14.6899 16.9881 14.9204 16.754 14.9606 16.754C15.0374 16.6004 14.9606 16.4833 14.8435 16.3297L12.9011 14.3836L13.5596 13.7215C13.8177 13.7622 14.0806 13.7622 14.3387 13.7215C14.4558 13.6849 14.4924 13.6081 14.7045 13.4508L16.2958 11.6217C16.6067 11.351 16.3763 11.0803 16.0653 11.4278L14.9679 12.635C14.8143 12.7886 14.6972 12.8691 14.5399 12.6716C14.3863 12.5582 14.4631 12.4411 14.6167 12.3241L15.8605 11.0803C15.941 10.9999 15.9776 10.8462 15.9007 10.806C15.8239 10.7657 15.7069 10.7694 15.63 10.8462L14.3863 12.09C14.2692 12.207 14.1522 12.2838 13.9949 12.1668C13.8376 12.0497 13.9181 11.8961 14.0754 11.7388L15.2789 10.6414C15.6447 10.3304 15.3557 10.0561 15.0447 10.4072L13.2559 12.0022C13.1023 12.196 13.0255 12.2363 12.9852 12.368C12.9486 12.626 12.9352 12.8867 12.945 13.1471L12.3231 13.8092L11.6647 13.1069C12.1293 12.4082 11.7013 11.6693 11.1196 11.2047C10.7363 10.9319 10.2982 10.7459 9.83565 10.6596C9.59765 10.584 9.34204 10.584 9.10404 10.6596C8.7931 10.7365 8.71628 10.8535 8.59922 11.1645C8.5595 11.4067 8.5595 11.6538 8.59922 11.8961C8.69064 12.3513 8.89012 12.7778 9.18086 13.1398C9.64909 13.7215 10.3478 14.1494 11.0867 13.6849L11.7854 14.3836L9.76615 16.3662C9.70786 16.4101 9.6678 16.4739 9.65363 16.5454C9.63945 16.617 9.65216 16.6912 9.68933 16.754L9.96002 17.0283C10.1137 17.1052 10.2307 17.0284 10.3478 16.9515L12.3305 14.9286L14.3131 16.9113C14.4302 17.0283 14.5472 17.1052 14.6789 16.9881H14.6497ZM6.71898 8.8233C6.60192 8.8233 6.60192 8.70624 6.71898 8.62942L9.94539 5.59688H15.0374L18.2638 8.62942C18.4211 8.70624 18.3443 8.8233 18.2638 8.8233H6.71898ZM6.64216 6.99426L6.71898 8.31483L9.16622 6.02122H7.68105C7.05918 6.02122 6.58363 6.38702 6.63484 6.99426H6.64216ZM18.348 6.99426C18.3846 6.37239 17.92 6.02122 17.2981 6.02122H15.8532L18.2894 8.31848L18.348 6.99426ZM11.233 6.62846C11.1723 6.63272 11.1152 6.65875 11.0722 6.70177C11.0292 6.74478 11.0032 6.80189 10.9989 6.86257V7.29057H13.9912V6.88086C13.9963 6.82416 13.9788 6.76773 13.9425 6.72388C13.9062 6.68003 13.854 6.65231 13.7973 6.64675H11.2367L11.233 6.62846Z" fill="white"/>
<path fill-rule="evenodd" clip-rule="evenodd" d="M46.57 13.1801C45.0519 13.1801 43.7716 14.5775 43.7716 16.2492C43.7716 17.9209 45.0519 19.3622 46.57 19.3622C48.0076 19.3622 49.1306 18.1953 49.3318 16.6772V16.6004C49.3636 16.4812 49.3759 16.3577 49.3684 16.2346C49.3743 16.1428 49.3619 16.0508 49.3318 15.9639V11.0804H48.2015V13.7507C47.7371 13.3815 47.1632 13.1769 46.57 13.1691V13.1801ZM34.2459 13.1801C32.6913 13.1801 31.4073 14.5775 31.4073 16.2492C31.4073 17.9209 32.6913 19.3622 34.2459 19.3622C35.8006 19.3622 37.0444 17.9612 37.0444 16.2492C37.0444 14.5372 35.7604 13.1801 34.2459 13.1801ZM34.2459 14.5006C34.4665 14.5086 34.6833 14.5603 34.8836 14.6529C35.084 14.7454 35.264 14.8768 35.4131 15.0395C35.5622 15.2022 35.6774 15.393 35.7521 15.6007C35.8268 15.8083 35.8595 16.0288 35.8482 16.2492C35.8482 17.2625 35.1495 18.038 34.2569 18.038C34.0308 18.0321 33.8081 17.9806 33.6023 17.8866C33.3965 17.7927 33.2117 17.6582 33.0591 17.4912C32.9064 17.3242 32.789 17.1282 32.7139 16.9148C32.6388 16.7014 32.6074 16.475 32.6218 16.2492C32.6115 16.0263 32.6459 15.8037 32.723 15.5943C32.8001 15.3849 32.9183 15.1931 33.0707 15.0302C33.2231 14.8672 33.4065 14.7364 33.6103 14.6455C33.814 14.5545 34.0339 14.5053 34.2569 14.5006H34.2459ZM26.3152 19.1647V12.0497H31.1732V13.2569H27.7529V14.9286H30.7269V16.1321H27.7529V19.1647H26.3152ZM40.3878 13.1801C38.8332 13.1801 37.5894 14.5775 37.5894 16.2492C37.5894 17.9209 38.8332 19.3622 40.3878 19.3622C41.9425 19.3622 43.1863 17.9612 43.1863 16.2492C43.1863 14.5372 41.9425 13.1801 40.3878 13.1801ZM40.3878 14.5006C40.6076 14.51 40.8234 14.5628 41.0227 14.6559C41.222 14.749 41.4009 14.8806 41.5491 15.0431C41.6973 15.2056 41.812 15.3958 41.8864 15.6028C41.9608 15.8098 41.9936 16.0295 41.9828 16.2492C41.9828 17.2625 41.2804 18.038 40.3878 18.038C39.9428 18.0029 39.5274 17.8014 39.2244 17.4735C38.9214 17.1457 38.7531 16.7157 38.7531 16.2693C38.7531 15.8229 38.9214 15.3929 39.2244 15.0651C39.5274 14.7373 39.9428 14.5357 40.3878 14.5006ZM46.57 14.5006C46.9266 14.4719 47.2837 14.5517 47.5942 14.7295C47.9047 14.9073 48.1542 15.1748 48.3099 15.497C48.4656 15.8192 48.5203 16.1809 48.4667 16.5347C48.4131 16.8885 48.2538 17.2178 48.0097 17.4794C47.7656 17.7411 47.4481 17.9227 47.0989 18.0007C46.7496 18.0786 46.385 18.0491 46.0528 17.916C45.7207 17.783 45.4365 17.5526 45.2376 17.2551C45.0387 16.9577 44.9345 16.607 44.9385 16.2492C44.9246 15.8014 45.0884 15.3663 45.394 15.0388C45.6996 14.7113 46.1223 14.5178 46.57 14.5006Z" fill="white"/>
<path fill-rule="evenodd" clip-rule="evenodd" d="M48.5125 5.67377C48.2568 5.40505 47.9492 5.19096 47.6084 5.04447C47.2677 4.89797 46.9007 4.8221 46.5298 4.82144C46.035 4.83876 45.5533 4.98504 45.1324 5.24577C44.5105 5.63719 44.0021 6.10176 43.0692 7.30892V8.16491C43.6835 7.33621 44.3742 6.56707 45.1324 5.86765C45.5415 5.57693 46.0281 5.41515 46.5298 5.40307C47.1299 5.41822 47.7007 5.66586 48.1218 6.09376C48.5429 6.52166 48.7813 7.09637 48.7868 7.69668V8.20149C48.7851 8.79964 48.5471 9.37288 48.1247 9.79641C47.8446 10.0618 47.5016 10.2514 47.128 10.3475C46.7543 10.4436 46.3623 10.4429 45.989 10.3456C45.6157 10.2482 45.2733 10.0574 44.9941 9.79106C44.715 9.52473 44.5083 9.1917 44.3935 8.82337L44.0021 9.2916C44.2764 10.3012 45.3629 11.0402 46.5298 11.0402C46.9011 11.0397 47.2684 10.9635 47.6093 10.8163C47.9502 10.6692 48.2575 10.4541 48.5125 10.1842C48.7818 9.92797 48.9976 9.62072 49.147 9.28033C49.2965 8.93994 49.3767 8.5732 49.3831 8.20149V7.69668C49.3828 7.31941 49.3068 6.94603 49.1598 6.59859C49.0128 6.25115 48.7977 5.93668 48.5271 5.67377H48.5125ZM36.214 5.40307C35.9112 5.39085 35.6092 5.44211 35.3274 5.55355C35.0456 5.66498 34.7902 5.83413 34.5777 6.05013C34.3651 6.26613 34.2001 6.5242 34.0932 6.80777C33.9863 7.09133 33.9399 7.39412 33.957 7.69668V11.0402H33.39V7.69668C33.3781 7.32021 33.4426 6.94523 33.5797 6.59439C33.7167 6.24354 33.9235 5.92412 34.1874 5.65539C34.4513 5.38667 34.767 5.17423 35.1153 5.03089C35.4636 4.88756 35.8374 4.81631 36.214 4.82144C36.7346 4.80256 37.2475 4.9513 37.6773 5.24577C37.5208 5.36126 37.389 5.50676 37.2895 5.67377C36.9652 5.48034 36.5913 5.38623 36.214 5.40307ZM41.6572 11.0402H41.1122V7.69668C41.1214 7.52499 41.0956 7.35321 41.0362 7.19184C40.9769 7.03046 40.8853 6.88287 40.767 6.75806C40.6488 6.63326 40.5063 6.53386 40.3483 6.46593C40.1904 6.398 40.0203 6.36297 39.8483 6.36297C39.6764 6.36297 39.5062 6.398 39.3483 6.46593C39.1903 6.53386 39.0479 6.63326 38.9296 6.75806C38.8113 6.88287 38.7197 7.03046 38.6604 7.19184C38.6011 7.35321 38.5752 7.52499 38.5845 7.69668V8.20149C38.5825 8.36537 38.6133 8.52798 38.6751 8.67977C38.7369 8.83155 38.8285 8.96944 38.9444 9.08533C39.0602 9.20121 39.1981 9.29275 39.3499 9.35456C39.5017 9.41637 39.6643 9.4472 39.8282 9.44524C40.1469 9.44386 40.4583 9.34981 40.7244 9.17454V9.79641C40.4507 9.95006 40.1421 10.0307 39.8282 10.0305C39.3449 10.0248 38.883 9.8303 38.5412 9.48852C38.1994 9.14673 38.0049 8.68481 37.9992 8.20149V7.69668C37.9975 7.45169 38.0445 7.20881 38.1375 6.98212C38.2304 6.75543 38.3674 6.54945 38.5406 6.37612C38.8797 6.03196 39.3413 5.83601 39.8245 5.83106C40.0678 5.83102 40.3087 5.87951 40.533 5.97371C40.7574 6.0679 40.9606 6.20591 41.131 6.37964C41.3013 6.55338 41.4353 6.75935 41.525 6.9855C41.6147 7.21165 41.6584 7.45343 41.6536 7.69668L41.6572 11.0402ZM26.2933 7.34551C26.2933 5.36283 28.0785 3.68744 30.2184 3.68744C30.84 3.66235 31.4606 3.75545 32.0475 3.96179V4.62024C31.4817 4.33474 30.8514 4.20112 30.2184 4.23249C29.3369 4.22239 28.4863 4.55712 27.848 5.1653C27.5364 5.43716 27.2853 5.77131 27.1107 6.1462C26.9362 6.52109 26.8422 6.92839 26.8347 7.34185V7.53207C26.8448 8.35076 27.1651 9.13514 27.731 9.72691C28.0204 10.0213 28.3653 10.2554 28.7459 10.4155C29.1264 10.5756 29.5349 10.6586 29.9477 10.6597C31.1915 10.6597 31.8902 10.1915 32.1426 9.88055V7.53207H29.8124V6.99799H32.7389V10.0671C32.5652 10.3327 32.3241 10.5473 32.0402 10.689C31.409 11.0426 30.6927 11.216 29.9697 11.1901C29.4867 11.1995 29.0068 11.1114 28.5586 10.931C28.1105 10.7506 27.7033 10.4817 27.3615 10.1403C27.0238 9.79596 26.7575 9.38826 26.5779 8.94064C26.3984 8.49302 26.3091 8.01432 26.3153 7.53207L26.2933 7.34551ZM36.214 6.4127C36.0452 6.40493 35.8766 6.43314 35.7195 6.49548C35.5623 6.55781 35.4202 6.65283 35.3026 6.77425C35.185 6.89567 35.0946 7.0407 35.0373 7.19973C34.98 7.35876 34.9571 7.52815 34.9703 7.69668V11.0402H34.385V7.69668C34.3801 7.45343 34.4238 7.21165 34.5136 6.9855C34.6033 6.75935 34.7373 6.55338 34.9076 6.37964C35.0779 6.20591 35.2812 6.0679 35.5055 5.97371C35.7299 5.87951 35.9707 5.83102 36.214 5.83106C36.4979 5.82614 36.7785 5.89282 37.0298 6.02494C36.916 6.17947 36.8248 6.34946 36.7591 6.52976C36.5883 6.45071 36.4021 6.41072 36.214 6.4127ZM32.0694 5.70303V5.0519C31.5007 4.77497 30.8726 4.64182 30.2404 4.66414C29.4736 4.64199 28.7288 4.92179 28.1663 5.44331C27.894 5.67919 27.6764 5.97154 27.5286 6.30004C27.3808 6.62854 27.3063 6.9853 27.3103 7.34551V7.53207C27.3093 8.23755 27.5863 8.91501 28.0814 9.41762C28.5764 9.92022 29.2496 10.2075 29.9551 10.2171C31.1183 10.2171 31.6268 9.82934 31.7439 9.67204V7.96738H29.8124V8.55267H31.2134V9.40866C30.8203 9.57421 30.396 9.65283 29.9697 9.63912C29.6875 9.64522 29.4071 9.59316 29.1459 9.48617C28.8847 9.37918 28.6484 9.21956 28.4516 9.01724C28.0886 8.61496 27.8822 8.0957 27.87 7.55402V7.36014C27.87 6.19321 28.9674 5.26041 30.2404 5.26041C31.0964 5.26041 31.6012 5.37746 32.0694 5.72864V5.70303ZM45.6043 6.82972C45.1544 7.24972 44.7385 7.70475 44.3605 8.19052C43.896 8.73557 43.585 9.08675 43.0766 9.7452V8.82337C43.5448 8.24173 44.0898 7.61986 44.4374 7.22845C44.6715 6.99799 45.0227 6.60658 45.169 6.49683V6.45659C45.5318 6.09066 46.0156 5.86957 46.5298 5.83472C47.013 5.83967 47.4746 6.03562 47.8138 6.37978C47.9931 6.55062 48.1368 6.75527 48.2366 6.98192C48.3364 7.20857 48.3904 7.45273 48.3954 7.70034V8.20515C48.3812 8.69208 48.179 9.15458 47.8312 9.49561C47.4833 9.83663 47.0169 10.0297 46.5298 10.0342C46.0925 10.0383 45.6714 9.86853 45.3592 9.5623C45.0514 9.25173 44.836 8.86161 44.7373 8.43561L45.1653 7.85398C45.2138 8.24985 45.361 8.6272 45.5933 8.9514C45.7001 9.10101 45.8396 9.22425 46.0013 9.31174C46.163 9.39923 46.3425 9.44864 46.5261 9.45621C46.6901 9.45868 46.853 9.42819 47.005 9.36656C47.157 9.30493 47.2951 9.21341 47.4111 9.09742C47.5271 8.98144 47.6186 8.84334 47.6802 8.69133C47.7418 8.53932 47.7723 8.37648 47.7699 8.21247V7.69668C47.7763 7.52974 47.7488 7.36322 47.6891 7.20719C47.6294 7.05115 47.5387 6.90884 47.4224 6.78884C47.3062 6.66884 47.1669 6.57364 47.0128 6.50899C46.8587 6.44434 46.6932 6.41159 46.5261 6.4127C46.3499 6.41817 46.1766 6.45886 46.0164 6.53237C45.8562 6.60587 45.7124 6.71071 45.5933 6.84069L45.6043 6.82972ZM37.0444 8.20149C37.0412 8.56969 37.1117 8.93482 37.2518 9.27533C37.3919 9.61585 37.5987 9.92487 37.8602 10.1842C38.1151 10.4541 38.4225 10.6692 38.7633 10.8163C39.1042 10.9635 39.4715 11.0397 39.8428 11.0402C40.1515 11.0359 40.4562 10.97 40.7391 10.8463V10.3012C40.446 10.3756 40.1452 10.4149 39.8428 10.4183C39.2532 10.4128 38.6887 10.1786 38.2684 9.76507C37.848 9.35154 37.6046 8.79097 37.5895 8.20149V7.69668C37.5949 7.09699 37.8329 6.5228 38.2531 6.095C38.6734 5.6672 39.2433 5.41915 39.8428 5.40307C40.1404 5.39705 40.4359 5.45315 40.7105 5.56778C40.9851 5.68242 41.2328 5.85307 41.4377 6.06884C41.6503 6.28364 41.8182 6.5384 41.9319 6.81841C42.0455 7.09842 42.1026 7.39816 42.0999 7.70034V11.0438H42.6815V7.57962C42.6435 6.84921 42.3389 6.15811 41.8255 5.63719C41.2916 5.12426 40.5831 4.83276 39.8428 4.82144C39.4719 4.8221 39.1049 4.89797 38.7642 5.04447C38.4234 5.19096 38.1159 5.40505 37.8602 5.67377C37.595 5.93867 37.3861 6.25439 37.2459 6.602C37.1057 6.94961 37.0372 7.32194 37.0444 7.69668V8.20149ZM43.6545 5.9847C43.8298 5.76071 44.0244 5.55262 44.2362 5.36283V2.33029H43.6545V5.9847ZM44.6642 5.13237V2.33029H45.2495V4.74096C45.0426 4.85295 44.8467 4.98399 44.6642 5.13237Z" fill="white"/>
</svg>
