<svg width="83" height="27" viewBox="0 0 83 27" fill="none" xmlns="http://www.w3.org/2000/svg">
<path fill-rule="evenodd" clip-rule="evenodd" d="M10.9183 0H10.7244C8.50763 0.117058 6.33474 2.48749 6.21402 6.72719H1.11467C0.920635 6.72719 0.734546 6.80427 0.597341 6.94147C0.460137 7.07868 0.383057 7.26477 0.383057 7.4588L1.3561 21.9265C1.3561 22.2923 2.40597 24.1433 4.11429 24.1213H17.9418C20.4293 23.7555 20.7036 21.7106 20.7036 21.3192L21.5999 7.46612C21.5863 7.27658 21.5048 7.09828 21.3705 6.96391C21.2361 6.82954 21.0578 6.7481 20.8682 6.73451H15.747C15.158 1.74856 12.8644 0 10.9183 0ZM10.9183 1.2035C12.3596 1.2035 14.0679 2.66673 14.5361 6.72719H7.42118C7.498 3.22642 9.20998 1.28398 10.8012 1.2035H10.9183ZM10.9915 9.17444C11.5104 9.13489 12.0316 9.21304 12.5162 9.40306C13.0007 9.59308 13.4361 9.89007 13.7899 10.2719C14.2947 10.8535 13.4789 11.6729 12.9339 11.1278C12.0011 10.0304 9.7843 10.195 8.91002 11.3217C7.70285 12.9166 9.53189 13.7324 10.7756 14.1201C12.5644 14.6652 14.5069 15.6382 14.7995 17.6575C15.1104 19.2524 13.8265 20.7705 12.2718 21.0412C10.6 21.407 8.50031 20.8473 7.33339 19.578C7.23451 19.4618 7.18301 19.3126 7.18915 19.1601C7.19528 19.0076 7.25861 18.863 7.36651 18.7551C7.47442 18.6472 7.61899 18.5839 7.77147 18.5778C7.92395 18.5716 8.07315 18.6231 8.18938 18.722C8.92099 19.578 10.3659 19.9657 11.4816 19.9292C12.9193 19.9292 14.2032 18.6049 13.3875 17.1307C12.2608 15.1078 9.45873 15.6895 7.98453 14.058C6.8176 12.774 7.39924 10.7657 8.71614 9.8585C9.39465 9.41995 10.1836 9.18275 10.9915 9.17444Z" fill="white"/>
<path fill-rule="evenodd" clip-rule="evenodd" d="M33.624 9.29151C32.2266 7.73683 29.3111 7.66001 27.6394 8.74646C26.0444 9.84388 25.3823 12.207 26.7834 13.6849C28.4551 15.5505 31.7583 14.892 33.0826 17.2624C34.0373 19.022 32.5375 20.4852 30.8658 20.5291C29.505 20.5657 27.8698 20.1011 26.9772 19.1281C26.9122 19.0618 26.8346 19.0089 26.7491 18.9726C26.6636 18.9363 26.5718 18.9171 26.4789 18.9163C26.386 18.9154 26.2938 18.9329 26.2077 18.9677C26.1215 19.0024 26.0431 19.0538 25.9768 19.1189C25.9105 19.184 25.8576 19.2615 25.8213 19.347C25.785 19.4325 25.7658 19.5244 25.765 19.6173C25.7641 19.7102 25.7816 19.8023 25.8164 19.8885C25.8511 19.9746 25.9025 20.0531 25.9676 20.1194C27.3284 21.5826 29.8159 22.2191 31.7986 21.8314C33.6276 21.4656 35.0652 19.7316 34.7543 17.8624C34.3629 15.5322 32.1095 14.4421 30.05 13.8202C28.5868 13.3556 26.4322 12.357 27.8552 10.5279C28.8685 9.20372 31.473 9.06471 32.6107 10.2938C33.1923 10.9559 34.1654 9.98289 33.6203 9.32078L33.624 9.29151Z" fill="white"/>
<path fill-rule="evenodd" clip-rule="evenodd" d="M43.4605 16.3699V21.2168C43.4605 21.3086 43.4424 21.3995 43.4073 21.4842C43.3722 21.569 43.3207 21.646 43.2559 21.7109C43.191 21.7758 43.114 21.8272 43.0292 21.8623C42.9444 21.8975 42.8536 21.9155 42.7618 21.9155C42.67 21.9155 42.5792 21.8975 42.4944 21.8623C42.4097 21.8272 42.3326 21.7758 42.2678 21.7109C42.2029 21.646 42.1514 21.569 42.1163 21.4842C42.0812 21.3995 42.0631 21.3086 42.0631 21.2168V16.4614C42.0511 16.1797 41.9659 15.906 41.8158 15.6673C41.6656 15.4287 41.4559 15.2333 41.2071 15.1005C40.2341 14.6323 38.427 14.8116 37.3296 16.2528V21.2168C37.3168 21.3939 37.2374 21.5595 37.1074 21.6804C36.9775 21.8013 36.8066 21.8685 36.629 21.8685C36.4515 21.8685 36.2806 21.8013 36.1507 21.6804C36.0207 21.5595 35.9413 21.3939 35.9285 21.2168V8.74648C35.9413 8.56944 36.0207 8.40381 36.1507 8.2829C36.2806 8.162 36.4515 8.09479 36.629 8.09479C36.8066 8.09479 36.9775 8.162 37.1074 8.2829C37.2374 8.40381 37.3168 8.56944 37.3296 8.74648V14.347C39.0415 13.1801 41.2583 13.2971 42.268 14.0361C42.6606 14.2802 42.9798 14.6261 43.1916 15.037C43.4035 15.4479 43.5002 15.9085 43.4715 16.3699H43.4605Z" fill="white"/>
<path fill-rule="evenodd" clip-rule="evenodd" d="M73.475 17.7306C73.4384 15.8248 72.5056 14.0726 70.4424 13.6848C68.6939 13.3739 66.6344 14.2701 65.8955 15.9016C65.1163 17.6502 65.4272 19.984 66.9929 21.1912C68.6646 22.4715 71.2289 22.0435 72.9007 21.1107C73.0603 21.018 73.1765 20.8658 73.2238 20.6874C73.2712 20.509 73.2457 20.3192 73.1531 20.1596C73.0604 20 72.9082 19.8837 72.7298 19.8364C72.5514 19.7891 72.3616 19.8145 72.202 19.9072C71.0848 20.5549 69.7573 20.7362 68.5073 20.412C68.0928 20.2545 67.7294 19.9865 67.4566 19.6369C67.1837 19.2873 67.012 18.8697 66.96 18.4293H72.8129C72.9921 18.4217 73.1612 18.3444 73.2842 18.2139C73.4072 18.0834 73.4743 17.91 73.4713 17.7306H73.475ZM66.9856 17.0283C66.9856 16.9917 67.0221 16.9112 67.0221 16.8746C67.3879 15.7077 68.4854 15.0858 69.6669 15.009C71.0277 14.9688 71.7667 15.9016 72.0008 17.0283H66.9856Z" fill="white"/>
<path fill-rule="evenodd" clip-rule="evenodd" d="M82.8469 17.7306C82.8067 15.7845 81.8373 14.0359 79.8144 13.6848C78.0256 13.3372 75.9661 14.27 75.2638 15.9015C74.4882 17.6135 74.7992 19.9437 76.3612 21.1911C77.9927 22.4349 80.5606 22.0434 82.2726 21.0741C82.3492 21.0279 82.416 20.9672 82.4692 20.8953C82.5223 20.8233 82.5608 20.7416 82.5823 20.6548C82.6039 20.5681 82.6082 20.4779 82.5949 20.3894C82.5816 20.301 82.551 20.216 82.5049 20.1394C82.4588 20.0628 82.398 19.996 82.3261 19.9429C82.2542 19.8897 82.1725 19.8513 82.0857 19.8297C81.9989 19.8081 81.9087 19.8039 81.8203 19.8172C81.7318 19.8304 81.6469 19.861 81.5703 19.9071C80.4728 20.4522 79.0828 20.7997 77.8793 20.3717C77.4649 20.2244 77.0997 19.9647 76.8245 19.6216C76.5493 19.2786 76.3749 18.8657 76.3209 18.4293H82.1738C82.3566 18.4212 82.5296 18.345 82.659 18.2157C82.7883 18.0864 82.8645 17.9133 82.8725 17.7306H82.8469ZM76.3539 16.999C76.3553 16.9442 76.3691 16.8904 76.3941 16.8417C76.705 15.715 77.8573 15.0529 79.0352 15.0126C80.396 14.9724 81.0984 15.9052 81.3691 16.9953L76.3539 16.999Z" fill="white"/>
<path fill-rule="evenodd" clip-rule="evenodd" d="M49.2951 21.9668C48.4725 21.9668 47.6683 21.7228 46.9843 21.2658C46.3004 20.8088 45.7673 20.1592 45.4525 19.3992C45.1377 18.6392 45.0553 17.8029 45.2158 16.9961C45.3763 16.1893 45.7724 15.4482 46.3541 14.8665C46.9358 14.2848 47.6769 13.8887 48.4837 13.7282C49.2905 13.5678 50.1268 13.6501 50.8868 13.9649C51.6468 14.2797 52.2963 14.8128 52.7534 15.4968C53.2104 16.1808 53.4543 16.9849 53.4543 17.8075C53.4524 18.91 53.0136 19.9668 52.234 20.7464C51.4544 21.526 50.3976 21.9648 49.2951 21.9668ZM49.2951 15.1225C48.7684 15.1225 48.2536 15.2785 47.8154 15.5707C47.3773 15.8629 47.0355 16.2783 46.8332 16.7646C46.6308 17.2508 46.5769 17.786 46.6783 18.3028C46.7798 18.8196 47.0319 19.2948 47.4031 19.6685C47.7742 20.0421 48.2476 20.2975 48.7637 20.4025C49.2798 20.5074 49.8154 20.4572 50.303 20.2582C50.7906 20.0592 51.2083 19.7202 51.5035 19.2841C51.7987 18.848 51.9582 18.3342 51.9618 17.8075C51.9599 17.0967 51.6769 16.4154 51.1746 15.9124C50.6722 15.4093 49.9913 15.1254 49.2805 15.1225H49.2951Z" fill="white"/>
<path fill-rule="evenodd" clip-rule="evenodd" d="M59.6731 13.6482C59.0887 13.6464 58.5103 13.7665 57.9749 14.0008C57.4396 14.2351 56.9589 14.5785 56.5637 15.009V14.036C56.5637 13.1398 55.1261 13.1032 55.1261 14.036V25.815C55.1261 26.7112 56.5637 26.7112 56.5637 25.815V20.5656C56.9514 21.0082 57.4297 21.3624 57.9661 21.6041C58.5026 21.8458 59.0847 21.9695 59.6731 21.9667C60.7762 21.9667 61.8341 21.5285 62.6141 20.7485C63.3941 19.9685 63.8323 18.9106 63.8323 17.8075C63.8323 16.7044 63.3941 15.6465 62.6141 14.8664C61.8341 14.0864 60.7762 13.6482 59.6731 13.6482ZM59.6731 20.4522C58.9641 20.4535 58.2827 20.1776 57.7743 19.6835C57.2658 19.1894 56.9706 18.5162 56.9515 17.8075C56.9542 17.1652 57.1872 16.5451 57.608 16.0599C58.0288 15.5746 58.6096 15.2563 59.2451 15.1627C59.3621 15.1627 59.4792 15.1224 59.6731 15.1224C60.3776 15.1349 61.0492 15.423 61.5436 15.925C62.0381 16.427 62.3161 17.1028 62.3179 17.8075C62.3169 18.5086 62.0379 19.1808 61.5422 19.6765C61.0464 20.1723 60.3742 20.4513 59.6731 20.4522Z" fill="white"/>
</svg>
