<svg width="86" height="21" viewBox="0 0 86 21" fill="none" xmlns="http://www.w3.org/2000/svg">
<path fill-rule="evenodd" clip-rule="evenodd" d="M14.1294 4.08007H18.6398V14.5787C18.6259 16.0915 18.0268 17.5402 16.9681 18.6209C15.8876 19.6641 14.4461 20.2499 12.9442 20.2561H0.872559V4.08007H5.4232C5.51775 3.10511 5.95909 2.19648 6.66694 1.51942C7.06909 1.10286 7.55269 0.773564 8.08763 0.552035C8.62257 0.330506 9.1974 0.22149 9.7763 0.231775C10.8476 0.227762 11.8829 0.617585 12.6855 1.32712C13.4881 2.03665 14.002 3.0164 14.1294 4.08007ZM13.8587 4.66536H17.9411C17.9612 4.66625 17.9802 4.67463 17.9944 4.68885C18.0087 4.70307 18.017 4.72209 18.0179 4.74218V14.5787C18.0103 15.9237 17.4739 17.2117 16.5245 18.1645C15.5752 19.1172 14.2891 19.6583 12.9442 19.6708H1.53467V4.74218C1.53775 4.71315 1.55066 4.68604 1.57125 4.66536H5.65366C7.09727 4.64227 8.52075 5.00603 9.7763 5.71888C11.0154 5.00166 12.4273 4.63732 13.8587 4.66536ZM6.54257 4.1203C7.02635 4.14465 7.50724 4.20951 7.98019 4.31418C8.60196 4.47561 9.20241 4.71014 9.76898 5.01287C10.3246 4.71697 10.911 4.48268 11.5175 4.31418C11.9997 4.21263 12.4888 4.14782 12.9808 4.1203C12.8941 3.42857 12.5802 2.78521 12.0882 2.29127C11.4657 1.69171 10.6404 1.34827 9.7763 1.3292C8.90807 1.3387 8.0771 1.6834 7.45708 2.29127C6.96512 2.78521 6.65116 3.42857 6.56452 4.1203H6.54257Z" fill="white"/>
<path fill-rule="evenodd" clip-rule="evenodd" d="M5.92802 6.68465C6.47658 6.67254 7.02176 6.77346 7.52963 6.98114C8.0375 7.18882 8.49719 7.49881 8.88009 7.89181C9.27983 8.27018 9.58658 8.73594 9.77631 9.25262C9.98107 8.74453 10.2844 8.28203 10.6689 7.89181C11.0531 7.49958 11.5136 7.19014 12.0219 6.98254C12.5302 6.77493 13.0756 6.67356 13.6246 6.68465C14.1721 6.67878 14.7153 6.78224 15.2223 6.98895C15.7294 7.19566 16.19 7.50148 16.5774 7.88849C16.9647 8.27549 17.271 8.73591 17.4781 9.24275C17.6853 9.7496 17.7892 10.2927 17.7838 10.8402C17.7949 11.3883 17.6938 11.9329 17.4869 12.4405C17.2799 12.9482 16.9714 13.4082 16.5803 13.7923C16.1943 14.1821 15.7335 14.4899 15.2256 14.6974C14.7177 14.9048 14.1732 15.0076 13.6246 14.9994C13.0467 15.0072 12.4747 14.8821 11.9529 14.6336L11.7187 14.8275L10.047 16.4993L9.73607 16.8651L9.38856 16.4993L7.7534 14.8641L7.55952 14.7105C7.03953 14.9139 6.48638 15.0193 5.92802 15.0214C5.37906 15.0325 4.83363 14.9311 4.32531 14.7235C3.817 14.5159 3.35654 14.2065 2.9723 13.8142C2.5778 13.4279 2.26703 12.9644 2.05936 12.4528C1.85168 11.9412 1.75153 11.3922 1.76514 10.8402C1.75682 10.2916 1.85947 9.74702 2.06691 9.23909C2.27435 8.73117 2.58232 8.27041 2.9723 7.8845C3.35654 7.49227 3.817 7.18283 4.32531 6.97522C4.83363 6.76762 5.37906 6.66624 5.92802 6.67733V6.68465ZM9.73607 13.7667C10.0496 13.7634 10.3598 13.8316 10.643 13.9659C10.9263 14.1003 11.1754 14.2974 11.3712 14.5422L9.73607 16.1773L8.06434 14.5422C8.27011 14.2995 8.52621 14.1044 8.81487 13.9705C9.10353 13.8366 9.41786 13.767 9.73607 13.7667ZM5.92802 7.26994C6.85178 7.29957 7.72779 7.68735 8.37076 8.35127C9.01373 9.0152 9.37323 9.90318 9.37323 10.8274C9.37323 11.7516 9.01373 12.6396 8.37076 13.3036C7.72779 13.9675 6.85178 14.3553 5.92802 14.3849C5.45125 14.4002 4.97627 14.3195 4.5313 14.1476C4.08633 13.9757 3.68046 13.7161 3.33779 13.3842C2.99512 13.0524 2.72266 12.655 2.53659 12.2158C2.35051 11.7766 2.25463 11.3044 2.25463 10.8274C2.25463 10.3504 2.35051 9.87825 2.53659 9.43902C2.72266 8.99979 2.99512 8.60244 3.33779 8.27059C3.68046 7.93874 4.08633 7.67915 4.5313 7.50725C4.97627 7.33535 5.45125 7.25465 5.92802 7.26994ZM13.61 7.26994C14.3133 7.27067 15.0007 7.47976 15.5853 7.87082C16.1699 8.26187 16.6255 8.81737 16.8947 9.46717C17.1638 10.117 17.2344 10.8319 17.0976 11.5218C16.9607 12.2117 16.6225 12.8456 16.1257 13.3435C15.6289 13.8413 14.9957 14.1808 14.3061 14.3191C13.6164 14.4574 12.9013 14.3882 12.251 14.1204C11.6006 13.8526 11.0442 13.3981 10.6519 12.8143C10.2597 12.2305 10.0492 11.5436 10.047 10.8402C10.0575 9.89463 10.4378 8.99072 11.1064 8.32204C11.7751 7.65337 12.679 7.27309 13.6246 7.26263L13.61 7.26994ZM10.2409 13.335C10.049 13.057 9.89294 12.7559 9.77631 12.4388C9.65895 12.7481 9.49352 13.037 9.28613 13.2948H9.75071C9.92001 13.2865 10.0897 13.3 10.2555 13.335H10.2409Z" fill="white"/>
<path fill-rule="evenodd" clip-rule="evenodd" d="M6.31575 8.59045C6.90669 8.59909 7.47049 8.83993 7.8853 9.2609C8.30011 9.68187 8.53261 10.2492 8.53254 10.8402C8.53641 11.1341 8.48198 11.4258 8.3724 11.6986C8.26282 11.9713 8.10026 12.2197 7.89413 12.4292C7.68799 12.6387 7.44236 12.8053 7.17144 12.9194C6.90052 13.0334 6.60969 13.0926 6.31575 13.0935C6.01984 13.0935 5.72682 13.0352 5.45343 12.922C5.18003 12.8088 4.93162 12.6428 4.72238 12.4335C4.29979 12.0109 4.06238 11.4378 4.06238 10.8402C4.06162 10.4422 4.1691 10.0514 4.37332 9.70982C4.44159 9.93512 4.58051 10.1325 4.76956 10.2728C4.9586 10.4131 5.18776 10.4889 5.42318 10.489C5.64333 10.4869 5.85776 10.4186 6.0386 10.2931C6.21944 10.1675 6.35834 9.99044 6.43724 9.78491C6.51614 9.57937 6.5314 9.35486 6.48103 9.14054C6.43066 8.92622 6.31699 8.732 6.1548 8.58313L6.31575 8.59045Z" fill="white"/>
<path fill-rule="evenodd" clip-rule="evenodd" d="M13.1198 8.59045C13.7168 8.59045 14.2894 8.82735 14.7119 9.24915C15.1343 9.67095 15.3722 10.2432 15.3732 10.8402C15.3635 11.1753 15.2779 11.5039 15.1229 11.8013C14.9679 12.0986 14.7474 12.3569 14.4782 12.5567C14.2089 12.7565 13.8978 12.8926 13.5683 12.9547C13.2388 13.0169 12.8995 13.0035 12.5759 12.9156C12.2523 12.8276 11.9529 12.6674 11.7002 12.447C11.4475 12.2267 11.2481 11.9518 11.117 11.6432C10.9859 11.3346 10.9265 11.0003 10.9433 10.6654C10.9601 10.3305 11.0526 10.0038 11.2139 9.70982C11.2698 9.93298 11.3982 10.1313 11.5789 10.2736C11.7597 10.416 11.9825 10.4943 12.2126 10.4963C12.507 10.4983 12.7903 10.3842 13.0011 10.1788C13.212 9.97341 13.3335 9.69321 13.3393 9.39888C13.3363 9.09857 13.226 8.80923 13.0283 8.58313L13.1198 8.59045Z" fill="white"/>
<path fill-rule="evenodd" clip-rule="evenodd" d="M9.73608 13.7667C10.0496 13.7635 10.3598 13.8316 10.6431 13.966C10.9264 14.1003 11.1754 14.2974 11.3712 14.5422L9.73608 16.1774V13.7667Z" fill="white"/>
<path fill-rule="evenodd" clip-rule="evenodd" d="M9.73607 16.1736L8.06433 14.5385C8.27045 14.2964 8.5267 14.102 8.81535 13.9687C9.10399 13.8355 9.41814 13.7665 9.73607 13.7666V16.1736Z" fill="white"/>
<path fill-rule="evenodd" clip-rule="evenodd" d="M32.9099 11.2718C32.6993 11.0666 32.4496 10.9058 32.1756 10.799C31.9016 10.6922 31.609 10.6415 31.315 10.6499C29.9944 10.6499 29.1202 11.6632 29.1202 12.9838C29.1202 14.3044 29.9762 15.3176 31.315 15.3176C32.6539 15.3176 33.5318 14.3044 33.5318 12.9838C33.5212 12.3598 33.3023 11.7572 32.9099 11.2718ZM75.4972 9.32938H76.9604V16.4846H76.8836C76.5203 16.4846 76.1715 16.3421 75.9122 16.0876C75.6529 15.8331 75.5039 15.487 75.4972 15.1238V9.32938ZM63.0159 16.6455C62.0576 16.8355 61.0629 16.6704 60.2174 16.1809C59.5611 15.8249 59.0268 15.2802 58.6834 14.6173C58.34 13.9543 58.2034 13.2036 58.2912 12.4621C58.3791 11.7207 58.6873 11.0227 59.1762 10.4583C59.665 9.89396 60.3119 9.48923 61.0332 9.29646C62.0055 9.0668 63.0281 9.19673 63.9121 9.66227C65.3497 10.5183 65.9313 11.8022 65.7777 13.4337H59.815C59.8711 13.7572 60.0022 14.0631 60.1979 14.3268C60.3935 14.5904 60.6483 14.8045 60.9417 14.9518C61.1835 15.0997 61.453 15.1964 61.7336 15.236C62.0142 15.2757 62.3 15.2574 62.5732 15.1823C63.1158 14.943 63.5853 14.5644 63.934 14.0849L65.1778 14.9774C64.959 15.3981 64.6507 15.7657 64.2747 16.0545C63.8987 16.3433 63.464 16.5463 63.0012 16.6492L63.0159 16.6455ZM64.1425 12.0583C64.0812 11.8025 63.9619 11.5642 63.7938 11.3619C63.6257 11.1595 63.4134 10.9986 63.1731 10.8914C61.8892 10.1927 60.6125 10.7743 60.0638 12.0583H64.1425ZM84.4412 12.4863C84.4478 12.2131 84.3872 11.9425 84.2648 11.6982C84.1423 11.4539 83.9617 11.2434 83.7388 11.0853C83.3182 10.7683 82.802 10.6044 82.2756 10.6207C80.9148 10.6207 80.0807 11.6705 80.0807 12.9545C80.07 13.244 80.1167 13.5327 80.218 13.8041C80.3194 14.0754 80.4735 14.324 80.6714 14.5356C80.8693 14.7471 81.1071 14.9173 81.3712 15.0365C81.6352 15.1556 81.9202 15.2214 82.2097 15.2299C83.1023 15.2299 83.5705 14.7214 84.0754 14.0227V15.9285C83.8031 16.1181 83.517 16.2869 83.2194 16.4334C82.8636 16.5836 82.4781 16.6499 82.0927 16.6272C79.9527 16.6272 78.5553 14.8787 78.5553 12.8192C78.5273 12.3286 78.6038 11.8377 78.7799 11.379C78.9559 10.9203 79.2274 10.5042 79.5764 10.1583C79.9254 9.81243 80.3439 9.54467 80.8042 9.37275C81.2645 9.20084 81.756 9.1287 82.2463 9.16111C84.3863 9.16111 85.9044 10.3646 85.9044 12.5814V16.4846H85.791C85.6119 16.486 85.4343 16.4518 85.2685 16.384C85.1027 16.3161 84.9522 16.2159 84.8255 16.0893C84.6988 15.9626 84.5987 15.812 84.5308 15.6462C84.4629 15.4805 84.4287 15.3029 84.4302 15.1238L84.4412 12.4863ZM76.8836 8.4734C76.8017 8.56482 76.6982 8.63418 76.5825 8.67509C76.4668 8.716 76.3426 8.72715 76.2215 8.70751C76.1077 8.71272 75.9941 8.69414 75.8878 8.65296C75.7816 8.61179 75.6852 8.54892 75.6046 8.46837C75.5241 8.38782 75.4612 8.29136 75.42 8.18515C75.3789 8.07894 75.3603 7.96532 75.3655 7.85152C75.3602 7.73708 75.379 7.62281 75.4206 7.51607C75.4622 7.40934 75.5257 7.31251 75.6071 7.23185C75.6884 7.15119 75.7858 7.08848 75.8929 7.04778C76 7.00707 76.1144 6.98928 76.2288 6.99554C76.3445 6.98954 76.4602 7.00729 76.5688 7.04771C76.6774 7.08813 76.7765 7.15035 76.8602 7.23055C76.9438 7.31074 77.0101 7.40721 77.055 7.51401C77.0999 7.6208 77.1225 7.73567 77.1214 7.85152C77.128 8.08085 77.0454 8.3038 76.8909 8.4734H76.8836ZM72.7207 15.5518C72.3884 15.9078 71.9846 16.1897 71.5357 16.3788C71.0869 16.5679 70.6031 16.6601 70.1162 16.6492C69.608 16.6692 69.1016 16.5788 68.6318 16.3843C68.162 16.1898 67.7399 15.8958 67.3946 15.5225C66.7216 14.7622 66.361 13.7757 66.3849 12.7607C66.3782 12.3007 66.4625 11.844 66.633 11.4167C66.8036 10.9895 67.057 10.6003 67.3787 10.2715C67.7004 9.94266 68.084 9.68076 68.5073 9.50086C68.9307 9.32096 69.3855 9.22663 69.8455 9.2233C70.5763 9.21593 71.2976 9.38935 71.9452 9.72811V11.3523C71.3876 10.9408 70.729 10.688 70.0393 10.6207C68.6785 10.6207 67.8445 11.5937 67.8445 12.9545C67.8445 14.3153 68.7188 15.2299 70.0796 15.2299C70.365 15.2361 70.6483 15.1802 70.9098 15.0658C71.1714 14.9515 71.4049 14.7815 71.594 14.5677C72.0284 13.9714 72.2477 13.2453 72.2159 12.5082V7.50401C72.2206 7.1339 72.3698 6.78029 72.6315 6.51856C72.8932 6.25684 73.2468 6.10771 73.6169 6.10297H73.6938V12.7497C73.7381 13.7735 73.39 14.7757 72.7207 15.5518ZM56.6252 15.6286C56.3165 15.9699 55.9385 16.2415 55.5165 16.4251C55.0945 16.6086 54.6381 16.7 54.1779 16.6931C53.4531 16.7056 52.7389 16.5169 52.1148 16.148V14.5787C52.6601 14.9797 53.3059 15.2216 53.9804 15.2774C55.3815 15.2774 56.1972 14.3044 56.1972 12.9838C56.1972 11.6632 55.3412 10.6499 53.9804 10.6499C53.6892 10.6439 53.3999 10.6997 53.1319 10.8139C52.8639 10.928 52.6232 11.0978 52.4257 11.3121C51.9679 11.912 51.7466 12.6593 51.8039 13.4118V19.6707H51.7197C51.5358 19.6717 51.3535 19.6363 51.1833 19.5664C51.0131 19.4966 50.8584 19.3937 50.7282 19.2638C50.5979 19.1339 50.4947 18.9795 50.4244 18.8095C50.3541 18.6395 50.3182 18.4573 50.3187 18.2734V13.1521C50.3187 11.0121 51.6429 9.2233 53.9365 9.2233C54.4486 9.20118 54.9592 9.29459 55.4303 9.49659C55.9014 9.69859 56.3211 10.004 56.6581 10.3902C57.3439 11.1428 57.7065 12.1347 57.6677 13.1521C57.6701 13.6161 57.5782 14.0759 57.3978 14.5034C57.2173 14.931 56.952 15.3175 56.6179 15.6396L56.6252 15.6286ZM47.48 11.2718C47.06 10.8717 46.5018 10.6489 45.9217 10.6499C44.5609 10.6499 43.7268 11.6632 43.7268 12.9838C43.7268 14.3044 44.5426 15.3176 45.9217 15.3176C47.3008 15.3176 48.1165 14.3044 48.1165 12.9838C48.1261 12.3562 47.9048 11.747 47.4947 11.2718H47.48ZM48.5262 15.6615C48.1765 16.0014 47.7633 16.269 47.3101 16.4492C46.8569 16.6293 46.3727 16.7184 45.8851 16.7114C45.407 16.7189 44.9323 16.6302 44.4893 16.4505C44.0462 16.2707 43.6438 16.0037 43.3062 15.6652C42.9489 15.3176 42.6671 14.9001 42.4782 14.4388C42.2894 13.9774 42.1977 13.4821 42.2087 12.9838C42.1988 12.4911 42.2885 12.0014 42.4725 11.5442C42.6565 11.087 42.9309 10.6717 43.2794 10.3232C43.6279 9.97476 44.0432 9.70029 44.5004 9.5163C44.9576 9.33232 45.4472 9.24261 45.94 9.25256C46.9286 9.27084 47.8736 9.66295 48.5848 10.35C48.9411 10.6991 49.2223 11.1173 49.411 11.5791C49.5997 12.0408 49.692 12.5363 49.6822 13.035C49.6647 14.0292 49.259 14.9771 48.5518 15.6761L48.5262 15.6615ZM40.8809 11.1182C40.6467 11.484 40.4894 11.7803 40.4126 11.8973C40.259 12.0912 40.1017 12.2083 40.0249 12.3217C41.0345 12.6326 41.4223 13.3716 41.4223 14.3848V16.5797H41.3089C41.1246 16.5806 40.942 16.5451 40.7716 16.475C40.6011 16.4049 40.4463 16.3018 40.316 16.1715C40.1857 16.0412 40.0826 15.8864 40.0125 15.7159C39.9424 15.5455 39.9068 15.3629 39.9078 15.1786V14.5787C39.9078 13.8471 39.5969 13.3716 38.8982 13.3716H37.5374V16.5614H37.4533C37.2693 16.5619 37.0871 16.5259 36.9171 16.4557C36.7471 16.3854 36.5927 16.2821 36.4628 16.1519C36.3329 16.0216 36.23 15.867 36.1602 15.6968C36.0904 15.5266 36.0549 15.3443 36.0559 15.1603V7.5479C36.0607 7.18148 36.2104 6.83186 36.4722 6.57549C36.7341 6.31912 37.0868 6.17685 37.4533 6.17979H37.5337V12.0107H37.9983C38.191 12.0224 38.3832 11.9816 38.5545 11.8927C38.7259 11.8038 38.8699 11.6701 38.9714 11.5059L40.2553 9.4062H41.9271L40.8809 11.1182ZM33.9598 15.6652C33.6134 16.0107 33.2003 16.282 32.7456 16.4625C32.2908 16.643 31.8041 16.729 31.315 16.715C30.3425 16.7215 29.4066 16.3443 28.7105 15.6652C28.3532 15.3176 28.0714 14.9001 27.8825 14.4388C27.6937 13.9774 27.602 13.4821 27.613 12.9838C27.6066 12.4917 27.6989 12.0034 27.8844 11.5475C28.0699 11.0917 28.3448 10.6777 28.6929 10.3299C29.0411 9.98204 29.4554 9.70752 29.9114 9.52249C30.3674 9.33746 30.8559 9.24568 31.3479 9.25256C32.3383 9.25703 33.2871 9.65127 33.9891 10.35C34.3577 10.6917 34.6497 11.1077 34.8458 11.5705C35.0419 12.0333 35.1377 12.5325 35.1267 13.035C35.0957 14.0336 34.6771 14.9808 33.9598 15.6761V15.6652ZM25.3816 16.6016C23.9184 16.6016 23.2051 15.5883 23.2051 14.2275V8.97821C23.2006 8.79827 23.2327 8.6193 23.2994 8.45215C23.3662 8.28501 23.4663 8.13319 23.5936 8.00592C23.7209 7.87864 23.8727 7.77857 24.0398 7.71178C24.207 7.645 24.3859 7.61289 24.5659 7.61741H24.6829V9.4062H27.2107V10.8072H24.6866V14.3848C24.6866 14.9665 24.9573 15.1603 25.5389 15.1603H27.2107V16.6016H25.3816Z" fill="white"/>
</svg>
