<svg width="34" height="32" viewBox="0 0 34 32" fill="none" xmlns="http://www.w3.org/2000/svg">
<path d="M17.0778 0.0502964C13.0123 0.00200468 9.08028 1.49961 6.07701 4.24018C3.07374 6.98075 1.22346 10.7597 0.900455 14.8126C0.577446 18.8655 1.80582 22.8898 4.33709 26.0714C6.86837 29.2531 10.5136 31.3546 14.5354 31.9509V20.7387H10.4883V16.1161H14.5354V12.5313C14.5354 8.54548 16.9599 6.29079 20.6013 6.29079C21.8037 6.31081 23.0025 6.42754 24.1862 6.63984V10.569H22.1626C20.2004 10.569 19.5636 11.8379 19.5636 13.0549V16.1161H24.0117L23.3183 20.7387H19.5448V31.9509C23.559 31.3544 27.1979 29.2582 29.7278 26.0849C32.2577 22.9116 33.4904 18.8972 33.1775 14.8509C32.8646 10.8047 31.0293 7.02749 28.0416 4.28087C25.0539 1.53426 21.1361 0.0224771 17.0778 0.0502964Z" fill="white"/>
</svg>
