<svg width="33" height="32" viewBox="0 0 33 32" fill="none" xmlns="http://www.w3.org/2000/svg">
<path d="M26.2036 19.6981C26.2036 21.1993 25.6073 22.639 24.5458 23.7005C23.4843 24.762 22.0445 25.3584 20.5433 25.3584H13.0859C11.5847 25.3584 10.1449 24.762 9.08343 23.7005C8.02192 22.639 7.42557 21.1993 7.42557 19.6981V12.2548C7.42557 10.7536 8.02192 9.31383 9.08343 8.25231C10.1449 7.1908 11.5847 6.59445 13.0859 6.59445H20.5386C22.0398 6.59445 23.4795 7.1908 24.5411 8.25231C25.6026 9.31383 26.1989 10.7536 26.1989 12.2548L26.2036 19.6981ZM16.8406 -0.00924683C13.6742 -0.00924683 10.579 0.929679 7.94629 2.6888C5.31358 4.44792 3.26164 6.94822 2.04994 9.87352C0.838235 12.7988 0.521199 16.0178 1.13892 19.1232C1.75664 22.2287 3.28137 25.0813 5.52031 27.3202C7.75924 29.5592 10.6118 31.0839 13.7173 31.7016C16.8228 32.3193 20.0417 32.0023 22.967 30.7906C25.8923 29.5789 28.3926 27.527 30.1518 24.8943C31.9109 22.2615 32.8498 19.1663 32.8498 16C32.8423 11.7564 31.1532 7.68871 28.1525 4.68802C25.1518 1.68732 21.0842 -0.00176467 16.8406 -0.00924683Z" fill="white"/>
<path d="M16.8971 12.9952C16.3085 12.9896 15.7314 13.1588 15.2389 13.4811C14.7464 13.8035 14.3605 14.2647 14.1301 14.8064C13.8997 15.3481 13.835 15.946 13.9444 16.5244C14.0537 17.1028 14.3322 17.6358 14.7444 18.056C15.1567 18.4762 15.6843 18.7647 16.2605 18.885C16.8368 19.0053 17.4357 18.9521 17.9817 18.732C18.5277 18.5119 18.9961 18.1349 19.3278 17.6486C19.6595 17.1623 19.8396 16.5885 19.8452 15.9999C19.8496 15.6089 19.7767 15.2208 19.6308 14.858C19.4849 14.4952 19.2688 14.1647 18.9949 13.8856C18.721 13.6064 18.3947 13.3841 18.0347 13.2313C17.6748 13.0785 17.2882 12.9983 16.8971 12.9952Z" fill="white"/>
<path d="M21.8122 12.1275C21.6665 12.1328 21.5212 12.108 21.3855 12.0546C21.2497 12.0013 21.1265 11.9205 21.0233 11.8174C20.9202 11.7142 20.8394 11.591 20.7861 11.4552C20.7327 11.3195 20.7079 11.1742 20.7132 11.0285C20.7132 10.737 20.829 10.4574 21.0351 10.2513C21.2412 10.0452 21.5207 9.92943 21.8122 9.92943C22.0999 9.94002 22.3728 10.0594 22.5759 10.2633C22.779 10.4673 22.8972 10.7408 22.9065 11.0285C22.9072 11.1726 22.8793 11.3154 22.8246 11.4487C22.7699 11.582 22.6894 11.7032 22.5877 11.8053C22.486 11.9074 22.3652 11.9885 22.2321 12.0438C22.099 12.0991 21.9563 12.1275 21.8122 12.1275ZM16.8972 20.618C15.9736 20.6245 15.069 20.3562 14.2983 19.8471C13.5277 19.3381 12.9258 18.6113 12.5694 17.7593C12.2129 16.9073 12.1179 15.9685 12.2965 15.0623C12.4751 14.1561 12.9192 13.3236 13.5723 12.6705C14.2253 12.0174 15.0579 11.5733 15.9641 11.3947C16.8702 11.2162 17.8091 11.3111 18.6611 11.6676C19.5131 12.0241 20.2399 12.6259 20.7489 13.3965C21.258 14.1672 21.5263 15.0718 21.5198 15.9954C21.516 17.2202 21.0278 18.3938 20.1617 19.2599C19.2956 20.126 18.122 20.6142 16.8972 20.618ZM20.5386 8.35397H13.0859C12.575 8.35396 12.0691 8.45506 11.5974 8.65144C11.1257 8.84783 10.6975 9.13561 10.3375 9.49822C9.97753 9.86083 9.69287 10.2911 9.49993 10.7642C9.30698 11.2373 9.20957 11.7439 9.21331 12.2549V19.6982C9.2077 20.211 9.30363 20.7198 9.49556 21.1953C9.68749 21.6709 9.97163 22.1037 10.3316 22.469C10.6916 22.8342 11.1203 23.1246 11.593 23.3234C12.0657 23.5222 12.5731 23.6255 13.0859 23.6274H20.5386C21.5804 23.6261 22.579 23.2118 23.3156 22.4752C24.0522 21.7386 24.4666 20.7399 24.4678 19.6982V12.2549C24.4542 11.2222 24.0341 10.2366 23.2985 9.51167C22.563 8.78674 21.5714 8.38094 20.5386 8.38228V8.35397Z" fill="white"/>
</svg>
