<svg width="33" height="32" viewBox="0 0 33 32" fill="none" xmlns="http://www.w3.org/2000/svg">
<path d="M16.2393 -0.00924613C13.0728 -0.0101791 9.97709 0.927953 7.34377 2.6865C4.71044 4.44506 2.65776 6.94503 1.44533 9.87026C0.232909 12.7955 -0.0848002 16.0146 0.532387 19.1204C1.14957 22.2262 2.67394 25.0792 4.91268 27.3186C7.15143 29.558 10.004 31.0832 13.1096 31.7013C16.2152 32.3194 19.4344 32.0026 22.36 30.7911C25.2856 29.5795 27.7861 27.5276 29.5455 24.8947C31.3048 22.2619 32.2438 19.1665 32.2438 16C32.2445 13.8979 31.8309 11.8162 31.0269 9.87388C30.2229 7.93158 29.0441 6.1667 27.5579 4.68004C26.0717 3.19338 24.3071 2.01407 22.3651 1.20948C20.423 0.404879 18.3414 -0.00924622 16.2393 -0.00924613ZM24.5552 14.1415C24.3902 14.1415 24.2251 14.1415 24.0836 14.1415C23.1943 14.1551 22.3157 13.9464 21.5275 13.5346C20.7392 13.1228 20.0662 12.5207 19.5695 11.7831V19.9952C19.5704 21.1998 19.214 22.3776 18.5455 23.3797C17.8769 24.3817 16.9262 25.163 15.8135 25.6246C14.7009 26.0862 13.4764 26.2075 12.2948 25.9731C11.1132 25.7386 10.0277 25.159 9.17562 24.3076C8.32351 23.4561 7.74306 22.3711 7.50771 21.1897C7.27237 20.0083 7.39268 18.7837 7.85345 17.6707C8.31421 16.5577 9.09472 15.6063 10.0962 14.937C11.0978 14.2677 12.2753 13.9104 13.4799 13.9104C13.6073 13.9104 13.7299 13.9104 13.8573 13.9104V16.9104C13.7323 16.8908 13.6063 16.8782 13.4799 16.8726C13.0618 16.8563 12.6448 16.9246 12.2537 17.0734C11.8626 17.2221 11.5056 17.4483 11.2041 17.7383C10.9025 18.0284 10.6626 18.3763 10.4987 18.7613C10.3349 19.1462 10.2504 19.5603 10.2504 19.9787C10.2504 20.3971 10.3349 20.8112 10.4987 21.1962C10.6626 21.5812 10.9025 21.9291 11.2041 22.2191C11.5056 22.5092 11.8626 22.7353 12.2537 22.8841C12.6448 23.0328 13.0618 23.1011 13.4799 23.0848C14.3145 23.1066 15.1241 22.7992 15.7339 22.2291C16.3438 21.6589 16.7049 20.8718 16.7393 20.0377V6.04729H19.6072C19.7344 7.30134 20.3007 8.47009 21.2061 9.34703C22.1115 10.224 23.2978 10.7527 24.5552 10.8397V14.1415Z" fill="white"/>
</svg>
