<svg width="33" height="34" viewBox="0 0 33 34" fill="none" xmlns="http://www.w3.org/2000/svg">
<path d="M21.9069 19.4527C21.7428 19.7727 21.5057 20.0496 21.2148 20.261C20.9239 20.4724 20.5874 20.6124 20.2324 20.6697C19.6013 20.7441 18.9619 20.6446 18.3833 20.382C17.8405 20.1797 17.3178 19.927 16.822 19.6273C15.8296 19.0135 14.9661 18.2124 14.2796 17.2688C14.1051 16.9811 13.874 16.6886 13.6994 16.4009C13.4474 16.0012 13.2536 15.5676 13.124 15.1132C13.124 14.882 13.0674 14.7075 13.0674 14.533C13.0599 14.1848 13.1282 13.8391 13.2675 13.5198C13.4067 13.2006 13.6137 12.9154 13.8739 12.6839C14.0216 12.5334 14.2141 12.435 14.4226 12.4035C14.6311 12.372 14.8441 12.4092 15.0296 12.5094C15.4009 12.8147 15.6639 13.2315 15.7796 13.6981C15.9727 14.0092 16.0542 14.3769 16.0107 14.7405C15.9266 15.0678 15.7458 15.362 15.4919 15.5848C15.3173 15.7547 15.3173 15.8726 15.4353 16.1037C16.1175 17.2691 17.1777 18.1662 18.4399 18.6461C18.6145 18.7027 18.7277 18.7027 18.8456 18.5282C19.0767 18.2971 19.3173 17.7216 19.6522 17.5848C19.8727 17.5333 20.1021 17.5328 20.3228 17.5835C20.5436 17.6342 20.7498 17.7347 20.9258 17.8773C21.3314 18.1084 21.9069 18.349 21.9635 18.8207C22.0011 19.0326 21.9815 19.2508 21.9069 19.4527ZM17.5154 9.16983C15.54 9.17357 13.6465 9.95997 12.2497 11.3568C10.8528 12.7537 10.0664 14.6471 10.0627 16.6226C10.0575 17.9905 10.4367 19.3323 11.157 20.4952L11.3315 20.7829L10.5815 23.5565L13.4117 22.8065L13.6994 23.0376C14.6859 23.624 15.7945 23.9749 16.9388 24.0628C18.0831 24.1508 19.2323 23.9734 20.2968 23.5445C21.3613 23.1157 22.3125 22.4469 23.0763 21.5903C23.8401 20.7337 24.3959 19.7124 24.7004 18.6058C25.0049 17.4993 25.0498 16.3374 24.8318 15.2106C24.6138 14.0838 24.1387 13.0226 23.4434 12.1095C22.7481 11.1964 21.8515 10.4561 20.8233 9.9462C19.7951 9.43632 18.6631 9.17064 17.5154 9.16983Z" fill="white"/>
<path d="M17.5154 25.8113C15.9862 25.79 14.4829 25.4137 13.1239 24.7122L8.15229 26.0424L9.48246 21.0755C8.79249 19.8475 8.39377 18.4774 8.31704 17.071C8.2403 15.6645 8.48761 14.2592 9.03989 12.9635C9.59217 11.6677 10.4347 10.5161 11.5024 9.59741C12.5701 8.67875 13.8346 8.01758 15.1983 7.66489C16.562 7.3122 17.9884 7.27742 19.3677 7.56321C20.7469 7.84901 22.0421 8.44776 23.1534 9.31328C24.2646 10.1788 25.1622 11.288 25.777 12.5553C26.3918 13.8226 26.7073 15.2142 26.6992 16.6227C26.7011 17.8295 26.4649 19.0248 26.004 20.1401C25.5432 21.2554 24.8669 22.2689 24.0138 23.1225C23.1607 23.976 22.1476 24.6529 21.0324 25.1143C19.9173 25.5756 18.7222 25.8125 17.5154 25.8113ZM16.822 0.962488C13.6477 0.956891 10.5431 1.89343 7.90138 3.65351C5.25968 5.41358 3.19972 7.91802 1.98237 10.8496C0.765023 13.7813 0.445042 17.0082 1.06295 20.1218C1.68086 23.2355 3.20887 26.0957 5.45346 28.3403C7.69805 30.5849 10.5583 32.1129 13.6719 32.7308C16.7855 33.3487 20.0124 33.0287 22.9441 31.8114C25.8757 30.594 28.3801 28.534 30.1402 25.8924C31.9003 23.2507 32.8368 20.1461 32.8312 16.9717C32.8238 12.7281 31.1347 8.66045 28.134 5.65975C25.1333 2.65906 21.0656 0.96997 16.822 0.962488Z" fill="white"/>
</svg>
