<svg xmlns="http://www.w3.org/2000/svg" viewBox="0 0 491.88 57.87"><defs><style>.cls-1{fill:#e5c56a;}</style></defs><g id="Layer_2" data-name="Layer 2"><g id="Layer_1-2" data-name="Layer 1"><path class="cls-1" d="M39.6,26.32a16,16,0,0,1,2.82.62,2.55,2.55,0,0,1,1.76,1.95,1.49,1.49,0,0,1-.75,1.69,7.69,7.69,0,0,1-2.29.75c-.78.13-1.58.26-2.42.38,0,0-.1,0-.18.13a.33.33,0,0,0-.13.25A80.57,80.57,0,0,0,36.09,42c-.59,3.45-1.23,6.8-2,10.07a4,4,0,0,1-.31.62.56.56,0,0,1-.5.32.77.77,0,0,1-.63-.25,2.6,2.6,0,0,1-.31-.57,51.82,51.82,0,0,1-1.19-11c.08-1.5.21-3,.37-4.45a37,37,0,0,1,.76-4.33v-.19a6.79,6.79,0,0,0-1.63-.15c-.88,0-1.84,0-2.89,0l-3,.06-2,0a3.78,3.78,0,0,0-1.45.63,39.86,39.86,0,0,0-4.8,3.85c-1.48,1.41-3,2.75-4.48,4a36.32,36.32,0,0,1-4.77,3.48,17,17,0,0,1-5.58,2.17A1.88,1.88,0,0,1,.15,45.7c-.21-.21-.2-.47,0-.79A4,4,0,0,1,1,44.07q3.76-2.7,7.27-5.74t6.9-6.12l.25-.22.44-.34a45.6,45.6,0,0,1-5.3-1c-1.69-.44-3.42-.82-5.17-1.16-.59-.21-1.17-.39-1.76-.56A8.57,8.57,0,0,1,2,28.2c-.3-.34-.28-.54,0-.6a4.23,4.23,0,0,1,.78-.09c.63-.09,1.23-.16,1.79-.22s1.16-.14,1.79-.22c2.67,0,5.13-.13,7.37-.25s4.46-.19,6.68-.19a1,1,0,0,0,.53-.13l.47-.25a73.52,73.52,0,0,0,5.24-5.39q2.42-2.76,4.64-5.65c1.48-1.92,2.92-3.87,4.3-5.86s2.78-4,4.2-6a2.37,2.37,0,0,1,2.76-1,2.09,2.09,0,0,1,.94.78,2.16,2.16,0,0,1,.44,1.29,67,67,0,0,1-1.85,10.88q-1.35,5.24-2.42,10.5a1.59,1.59,0,0,1,0,.29A1.34,1.34,0,0,0,39.6,26.32Zm-4.2-8c-.5.59-1.11,1.23-1.82,1.94l-2.19,2.2c-.76.75-1.48,1.5-2.17,2.23S28,26.09,27.5,26.63h.06q1.07,0,2.82-.09c1.17-.07,2.11-.1,2.82-.1a.18.18,0,0,0,.13-.06l.13-.13a29.69,29.69,0,0,0,1.06-4C34.77,21,35.06,19.65,35.4,18.35Z"/><path class="cls-1" d="M48.13,40.37c-.83-1.17-1.66-2.37-2.48-3.58a7.07,7.07,0,0,1-1.22-4,8.29,8.29,0,0,1,1.41-4.61,12.78,12.78,0,0,1,3.23-3.48,8.19,8.19,0,0,1,1.54-.82,2.09,2.09,0,0,1,1.66.06,3.55,3.55,0,0,0,.79.29,5.2,5.2,0,0,1,.72.21,4.06,4.06,0,0,1,.69.38.79.79,0,0,1,.37.69c0,1.17,0,2.12.1,2.85a12.11,12.11,0,0,0,.28,1.89c.13.52.25,1,.38,1.38s.25.82.37,1.28A1.72,1.72,0,0,1,55.91,34c-.13.29-.44.33-.94.12a3.49,3.49,0,0,1-2-2,18.09,18.09,0,0,1-1-2.76,7.56,7.56,0,0,0-.32-.88,9.17,9.17,0,0,1-.31-.88,1.51,1.51,0,0,0-1.19.35,4.41,4.41,0,0,0-1.22,1.28,4.52,4.52,0,0,0-.69,1.88,3.42,3.42,0,0,0,.4,2.14,9.3,9.3,0,0,0,.73.91l.94,1.09c.31.38.62.75.94,1.1s.57.64.78.85a2,2,0,0,0,.5.41,1.68,1.68,0,0,0,.63-.16c.42-.21,1.06-.48,1.91-.82s1.76-.67,2.7-1,1.84-.62,2.7-.85a8.13,8.13,0,0,1,2-.34.67.67,0,0,1,.63.31c.13.13.11.29-.06.5a4,4,0,0,1-.66.63,5.94,5.94,0,0,1-.85.56l-.56.32q-1.07.63-2.7,1.41a25.42,25.42,0,0,0-2.82,1.54,1.62,1.62,0,0,1-.47.25,2.78,2.78,0,0,0-.54.25,18.29,18.29,0,0,1,1.07,2.92,7.08,7.08,0,0,1,.22,2.35,10.14,10.14,0,0,1-.47,2.29c-.25.77-.59,1.66-1,2.66-.59,1-1.19,1.88-1.79,2.76a15.68,15.68,0,0,1-2,2.39,9.5,9.5,0,0,1-2.45,1.69,6.57,6.57,0,0,1-2.88.63,6.69,6.69,0,0,1-1.69-.22A2.61,2.61,0,0,1,42,56.74a5.89,5.89,0,0,1-1.64-3.42,9.92,9.92,0,0,1,.32-3.67,10.28,10.28,0,0,1,.94-2.07,19.47,19.47,0,0,1,3-4C45.76,42.43,46.92,41.37,48.13,40.37Zm2.14,2.82c-.47.46-1.09,1.12-1.89,2A24.84,24.84,0,0,0,46.16,48a18.51,18.51,0,0,0-1.7,3,3.67,3.67,0,0,0-.34,2.54,9.5,9.5,0,0,0,2.57-1.85A16.57,16.57,0,0,0,49,48.8a10.61,10.61,0,0,0,1.41-3A3.47,3.47,0,0,0,50.27,43.19Z"/><path class="cls-1" d="M74.66,34.41l.76-.75h.06v.12a4.1,4.1,0,0,1-.25,2.16,6.84,6.84,0,0,0-.38.79c-.42.63-1,1.43-1.69,2.41s-1.46,2-2.23,3-1.52,2-2.22,2.83A21.1,21.1,0,0,1,67,46.83a14.76,14.76,0,0,1-1.63,1.63,3.18,3.18,0,0,1-.85.44,6.7,6.7,0,0,1-1.09.28,4.09,4.09,0,0,1-1.1,0,1.68,1.68,0,0,1-.85-.31,5.36,5.36,0,0,1-1.66-1.66,3.94,3.94,0,0,1-.6-2.11,26.63,26.63,0,0,1,.6-7.05,51.2,51.2,0,0,1,1.85-6.56,10.38,10.38,0,0,1,.88-1.82,1.19,1.19,0,0,1,1.31-.31,2.8,2.8,0,0,1,1.35,1,5.31,5.31,0,0,1,.88,1.92A4,4,0,0,1,66,34.6c-.21.71-.4,1.39-.57,2s-.35,1.33-.56,2c-.09.34-.22.82-.41,1.45l-.6,2c-.21.69-.39,1.35-.56,2A10.69,10.69,0,0,0,63,45.51c-.09.63.08.79.5.5a13.64,13.64,0,0,0,1.69-1.5c1.72-1.76,3.35-3.46,4.89-5.12S73.16,36.08,74.66,34.41Zm-8.78-7.53q-.43.44-.63,0a7.25,7.25,0,0,1-1.06-2.63,5.13,5.13,0,0,1,.25-2.76,2.39,2.39,0,0,1,1.1-1.35,1.91,1.91,0,0,1,1.53-.35,3.69,3.69,0,0,1,.82.41,1.29,1.29,0,0,1,.56.66A4.13,4.13,0,0,1,68,24.12,12.72,12.72,0,0,1,65.88,26.88Z"/><path class="cls-1" d="M80.18,43.82l-1.25,1a9.15,9.15,0,0,1-1.51.94,8.41,8.41,0,0,1-1.72.63,4.71,4.71,0,0,1-1.91,0,3.61,3.61,0,0,1-1.38-.53,7.8,7.8,0,0,1-1.2-1,2.73,2.73,0,0,1-.69-1.63,8.57,8.57,0,0,1-.06-1.69,31.28,31.28,0,0,1,.88-3.45,30,30,0,0,1,1.38-3.58,20.17,20.17,0,0,1,3.51-5.14,9.61,9.61,0,0,1,5.15-2.89,5.65,5.65,0,0,1,2.1-.09,4.53,4.53,0,0,1,1.91.72,3.92,3.92,0,0,1,1.25,1.41,2.5,2.5,0,0,1,.19,1.85c-.08.25-.18.51-.28.76a2,2,0,0,1-.38.62.74.74,0,0,1-.4.29c-.13,0-.25-.1-.38-.35s-.09-.3-.16-.53a2.86,2.86,0,0,0-.28-.69,2.07,2.07,0,0,0-.53-.63,1.39,1.39,0,0,0-.91-.28,4.17,4.17,0,0,0-2.7,1.47,24.69,24.69,0,0,0-2.88,3.45,32.72,32.72,0,0,0-2.39,4,15.4,15.4,0,0,0-1.25,3c-.25,1.09-.23,1.67.06,1.73s.75-.17,1.38-.69a18.42,18.42,0,0,0,2.13-2.17c.8-.92,1.55-1.82,2.26-2.72s1.33-1.7,1.85-2.39.81-1,.85-1.1a2.4,2.4,0,0,1,1.63-.56,2.31,2.31,0,0,1,1.41.6,2.69,2.69,0,0,1,.82,1.31,2.3,2.3,0,0,1-.16,1.6c-.29.67-.68,1.47-1.16,2.39a8.54,8.54,0,0,0-.91,2.44c-.13,1.09,0,1.8.38,2.13s1.06.32,2.07-.06a8.2,8.2,0,0,0,2.5-1.79c.88-.85,1.75-1.76,2.61-2.72s1.66-1.89,2.41-2.76a18.17,18.17,0,0,1,1.88-2l.47-.41c.19-.14.35-.17.47-.09s.33.2.35.34a3.64,3.64,0,0,1,0,.48,32,32,0,0,1-1.94,4,25.26,25.26,0,0,1-2.54,3.6A19,19,0,0,1,90,45.54a14.88,14.88,0,0,1-3.73,2,4.64,4.64,0,0,1-2.26.28,4.2,4.2,0,0,1-1.82-.72,4.55,4.55,0,0,1-1.32-1.44A6.25,6.25,0,0,1,80.18,43.82Z"/><path class="cls-1" d="M94.92,45.64a2.73,2.73,0,0,1-.37.62c-.67.46-1.13.34-1.38-.37A7.83,7.83,0,0,1,93,45a7.12,7.12,0,0,1-.06-1,25.41,25.41,0,0,1,0-2.76,19.06,19.06,0,0,1,.75-3.41A31.78,31.78,0,0,1,95,34.16c.52-1.22,1.06-2.36,1.63-3.42a18.83,18.83,0,0,1,1.6-2.6,1.32,1.32,0,0,1,1-.63,2.1,2.1,0,0,1,1.29.31,2.79,2.79,0,0,1,1,1.07,2.19,2.19,0,0,1,.19,1.57,2.08,2.08,0,0,0-.25.37c-.13.21-.25.44-.38.69s-.25.49-.37.72a3.12,3.12,0,0,1-.25.41c.45-.33.91-.71,1.38-1.13s.93-.81,1.41-1.19a10.07,10.07,0,0,1,1.47-1A3.4,3.4,0,0,1,106.4,29a3.08,3.08,0,0,1,1.88.6A4.88,4.88,0,0,1,109.63,31a4.31,4.31,0,0,1,.66,1.82,4.57,4.57,0,0,1-.13,1.85A14.73,14.73,0,0,1,108.6,38c-.67,1.07-1.35,2.12-2,3.17s-1.33,2.1-1.91,3.17a12.14,12.14,0,0,0-1.26,3.29c-.25.88-.26,1.42,0,1.63a.87.87,0,0,0,.91.13,4.44,4.44,0,0,0,1.16-.63l.85-.63a42.82,42.82,0,0,0,4.83-4.42q2.25-2.41,4.45-4.61a11.27,11.27,0,0,1,2.35-2c.31-.1.36.11.13.63a21.92,21.92,0,0,1-1.13,2.1l-1.41,2.32c-.51.84-1.2,1.85-2.07,3a34.65,34.65,0,0,1-2.92,3.45,21.1,21.1,0,0,1-3.29,2.82,5.65,5.65,0,0,1-3.14,1.17,3.63,3.63,0,0,1-1.88-.48,4.87,4.87,0,0,1-1.38-1.16,4.73,4.73,0,0,1-.85-1.56,5.68,5.68,0,0,1-.28-1.76A15.5,15.5,0,0,1,101,41.43a52.57,52.57,0,0,1,2.72-5.52c.46-.87.59-1.48.38-1.82s-.81-.27-1.82.19a6,6,0,0,0-2.32,2,27.08,27.08,0,0,0-2,3.2c-.6,1.15-1.16,2.29-1.66,3.42A22,22,0,0,1,94.92,45.64Z"/><path class="cls-1" d="M145.16,28.45a67.38,67.38,0,0,0,2.42,6.33,40.68,40.68,0,0,0,3.48,6.4,25.1,25.1,0,0,0,4.58,5.21,11.54,11.54,0,0,0,5.71,2.7,11.32,11.32,0,0,0,1.82.09,2.43,2.43,0,0,0,1.38-.41.37.37,0,0,1,.34-.06A.2.2,0,0,1,165,49a1.32,1.32,0,0,1-.32.53,4.87,4.87,0,0,1-1,.85,10.48,10.48,0,0,1-5.74,2.13,9,9,0,0,1-4.83-1.38A15.4,15.4,0,0,1,149,47.3a39,39,0,0,1-3.35-5.21q-1.51-2.79-2.73-5.61t-2.23-4.89a31.36,31.36,0,0,0-3,3.07,52.23,52.23,0,0,0-3.8,4.8A41.11,41.11,0,0,0,130.58,45a14.93,14.93,0,0,0-1.6,5.27c-.08.67-.34.81-.78.44a6,6,0,0,1-1.32-2,12.54,12.54,0,0,1-.94-3.48,9,9,0,0,1,.34-4,76,76,0,0,1,3.23-8.18c1.24-2.66,2.54-5.25,3.92-7.78s2.79-5,4.21-7.49,2.78-5,4.08-7.47c.29-.58.62-1.21,1-1.88a3.13,3.13,0,0,0,.5-1.76c0-.21-.28-.25-.85-.12a10.63,10.63,0,0,0-2.1.78c-.83.4-1.78.89-2.82,1.48a29,29,0,0,0-3.07,2,21,21,0,0,0-2.73,2.35,9.47,9.47,0,0,0-1.85,2.58,3.08,3.08,0,0,1-2.32-1.26,3.37,3.37,0,0,1-.47-2.29,6,6,0,0,1,1-2.57,7.71,7.71,0,0,1,2.1-2.16,27.08,27.08,0,0,1,3.42-2c1.11-.54,2.46-1.15,4-1.82a29.64,29.64,0,0,1,4-1.22,5,5,0,0,1,3.26.09,4.09,4.09,0,0,1,2,1.66,27,27,0,0,1,1.48,2.79,3.06,3.06,0,0,1,.31,1.6,7.81,7.81,0,0,1-.31,1.7,11.79,11.79,0,0,1-.66,1.69c-.27.57-.53,1.1-.78,1.6l-8.28,14.11c1.08-1,2.34-2.22,3.76-3.54s2.94-2.64,4.55-4,3.28-2.63,5-3.86a40,40,0,0,1,5.27-3.17,25.43,25.43,0,0,1,5.27-1.94,12.2,12.2,0,0,1,5.05-.19,3.32,3.32,0,0,1,1.1.44,7.42,7.42,0,0,1,1.16.81,1.9,1.9,0,0,1,.6.82c.06.25-.14.4-.6.44a5.51,5.51,0,0,0-.88.12,27.13,27.13,0,0,0-6.27,2.17,56.69,56.69,0,0,0-6.65,3.7,58.55,58.55,0,0,0-6.08,4.48A40.49,40.49,0,0,0,145.16,28.45Z"/><path class="cls-1" d="M175,34.41l.75-.75h.07v.12a4.1,4.1,0,0,1-.25,2.16,5.26,5.26,0,0,0-.38.79c-.42.63-1,1.43-1.69,2.41s-1.46,2-2.23,3-1.52,2-2.23,2.83a19.83,19.83,0,0,1-1.69,1.85,15.68,15.68,0,0,1-1.63,1.63,3.18,3.18,0,0,1-.85.44,6.56,6.56,0,0,1-1.1.28,4.07,4.07,0,0,1-1.1,0,1.68,1.68,0,0,1-.84-.31,5.26,5.26,0,0,1-1.66-1.66,3.94,3.94,0,0,1-.6-2.11,25.82,25.82,0,0,1,.6-7.05A51.2,51.2,0,0,1,162,31.52a10.38,10.38,0,0,1,.88-1.82,1.19,1.19,0,0,1,1.31-.31,2.89,2.89,0,0,1,1.35,1,5.31,5.31,0,0,1,.88,1.92,3.88,3.88,0,0,1-.1,2.26c-.21.71-.39,1.39-.56,2s-.36,1.33-.56,2c-.09.34-.22.82-.41,1.45l-.6,2c-.21.69-.4,1.35-.56,2a11.06,11.06,0,0,0-.32,1.44c-.08.63.09.79.51.5a14.41,14.41,0,0,0,1.69-1.5c1.71-1.76,3.34-3.46,4.89-5.12S173.52,36.08,175,34.41Zm-8.78-7.53q-.44.44-.63,0a7.08,7.08,0,0,1-1.06-2.63,5.13,5.13,0,0,1,.25-2.76,2.38,2.38,0,0,1,1.09-1.35,1.94,1.94,0,0,1,1.54-.35,4.17,4.17,0,0,1,.82.41,1.29,1.29,0,0,1,.56.66,4.17,4.17,0,0,1-.47,3.26A13.38,13.38,0,0,1,166.24,26.88Z"/><path class="cls-1" d="M174.71,52.41a1,1,0,0,0,1.53.75,8.67,8.67,0,0,0,2.7-1.88,37.18,37.18,0,0,0,3.23-3.51q1.7-2.07,3.23-4.08c1-1.34,1.91-2.55,2.67-3.64s1.25-1.79,1.5-2.13a6.51,6.51,0,0,1,.72-.94,10.17,10.17,0,0,1,1-.94c.17-.13.36-.26.59-.41a.93.93,0,0,1,.6-.19c.17,0,.24.16.22.41a4.16,4.16,0,0,1-.47,1.25c-.25.51-.65,1.27-1.19,2.29s-1.22,2.18-2,3.45-1.67,2.6-2.63,4a36.06,36.06,0,0,1-3.11,3.79,28,28,0,0,1-3.39,3.07,8.78,8.78,0,0,1-3.48,1.7,14.45,14.45,0,0,1-2.88.41,3.08,3.08,0,0,1-2.32-1,4.07,4.07,0,0,1-1.07-2.69,17.74,17.74,0,0,1,.16-3.74,33.11,33.11,0,0,1,.78-3.82c.34-1.24.61-2.19.82-2.86.67-2.17,1.3-4.31,1.91-6.43s1.2-4.23,1.79-6.36c.62-1.88,1.2-3.82,1.72-5.8s1.06-3.78,1.6-5.37c-.83,0-1.69-.07-2.57-.09l-2.63-.06c-.88,0-1.75-.08-2.61-.16a13.74,13.74,0,0,1-2.41-.44,2.8,2.8,0,0,1-1.48-.81,1.66,1.66,0,0,1-.44-1.13,1.3,1.3,0,0,1,.63-1,3.07,3.07,0,0,1,1.73-.4c.46,0,1.21,0,2.26.12s2.14.15,3.29.19,2.21,0,3.2,0a6.14,6.14,0,0,0,1.91-.22c.13,0,.19-.1.19-.19.25-.75.52-1.54.81-2.38l.88-2.45c.29-.79.58-1.54.85-2.25s.51-1.32.72-1.82a.87.87,0,0,1,1-.47,4.82,4.82,0,0,1,1.64.53,5.55,5.55,0,0,1,1.47,1.1A1.54,1.54,0,0,1,188,7.06a10.89,10.89,0,0,1-.87,3.2,22.92,22.92,0,0,0-1.2,3.57l6.81-.09,5.55,0c.59,0,1.17,0,1.76,0a6.06,6.06,0,0,1,1.35.16c.31.08.38.2.22.34a5.62,5.62,0,0,1-1.64.6,61,61,0,0,1-7.65,1.91q-3.71.66-7.27,1c-.21.05-.31.09-.29.13s0,.17-.15.37a.16.16,0,0,1-.07.13.18.18,0,0,0-.06.13q-1,2.76-2.19,6.21c-.8,2.3-1.59,4.66-2.39,7.08s-1.54,4.81-2.26,7.15-1.31,4.47-1.81,6.37-.87,3.49-1.1,4.77A4,4,0,0,0,174.71,52.41Z"/><path class="cls-1" d="M207.51,35.22c.46-.21.74-.19.85,0a1,1,0,0,1-.1.85,6.12,6.12,0,0,1-.94,1.38,10.12,10.12,0,0,1-1.25,1.19c-1,.88-1.77,1.6-2.42,2.17s-1.19,1-1.63,1.35l-1.09.81-.82.57c-1,.58-1.91,1.15-2.85,1.69a12.94,12.94,0,0,1-2.67,1.19,6.61,6.61,0,0,1-3.79,0,4.52,4.52,0,0,1-2.8-2.22,7.92,7.92,0,0,1-.87-4.49,13.84,13.84,0,0,1,1.28-4.89,12.61,12.61,0,0,1,2.92-4,6.39,6.39,0,0,1,4-1.78,1.78,1.78,0,0,1,1.41.4,2.29,2.29,0,0,1,.91,1.23,2.47,2.47,0,0,1,.07,1.25c-.09.46-.2,1-.35,1.54s-.3,1.18-.47,1.85-.31,1.36-.44,2.07c-.08.25-.2.39-.34.41s-.29-.08-.41-.29a5.49,5.49,0,0,1-.85-2c-.1-.65-.22-1.27-.34-1.85-.25,0-.58.24-1,.72a10.56,10.56,0,0,0-1.17,1.78,15,15,0,0,0-.94,2.29,7.52,7.52,0,0,0-.37,2.17,3.76,3.76,0,0,0,.37,1.88,1.5,1.5,0,0,0,.94.75,2.87,2.87,0,0,0,1.32-.06,7.16,7.16,0,0,0,1.51-.57c2.21-1,4.35-2.16,6.4-3.35A48.13,48.13,0,0,0,207.51,35.22Z"/><path class="cls-1" d="M219.49,34.66q-2.38,1.81-4.61,3.54a25.81,25.81,0,0,0-4,3.92,30.53,30.53,0,0,0-2,2.73,15.21,15.21,0,0,0-1.47,2.86.87.87,0,0,1-1.2.25,5.81,5.81,0,0,1-2.07-2.89,11.69,11.69,0,0,1-.53-3.73,20.25,20.25,0,0,1,.44-3.89c.27-1.28.55-2.39.85-3.36q1-3.63,2.29-7.49T209.93,19q1.47-3.77,3.07-7.28t3.1-6.52a17.25,17.25,0,0,1,1.76-2.76A11.18,11.18,0,0,1,219.8.47,2.1,2.1,0,0,1,221,0a2.22,2.22,0,0,1,1.09.22,2.36,2.36,0,0,1,.85.72,2.09,2.09,0,0,1,.41,1,15.77,15.77,0,0,1-.57,6.21,43.24,43.24,0,0,1-2.57,7,55.33,55.33,0,0,1-3.61,6.65,31.56,31.56,0,0,1-3.73,4.93c-.17.16-.25.29-.25.37-.67,1.76-1.25,3.47-1.75,5.15s-1.05,3.34-1.64,5c-.08.46-.17.94-.28,1.45a7.63,7.63,0,0,0-.15,1.5,13,13,0,0,1,1.63-1.82q1.93-1.87,4.07-3.57a27.74,27.74,0,0,1,4.58-3,11.5,11.5,0,0,1,2-.79,3.4,3.4,0,0,1,2,0,6.27,6.27,0,0,1,1.63.62,1.8,1.8,0,0,1,.91,1.32,4.66,4.66,0,0,1-.22,1.57c-.41,1.55-.95,3.24-1.6,5.08s-1.26,3.59-1.85,5.24l-1.5,4.26a5.15,5.15,0,0,0-.5,2.17c.21.41.61.44,1.22.06a13.74,13.74,0,0,0,2.2-1.82c.85-.84,1.79-1.84,2.82-3s2-2.35,3.07-3.54,2-2.33,3-3.39,1.78-1.92,2.45-2.54,1-.78,1.38-.69.44.52.19,1.31c-.34.59-.88,1.44-1.64,2.55s-1.64,2.33-2.66,3.66-2.12,2.7-3.29,4.08-2.34,2.64-3.49,3.77a26.74,26.74,0,0,1-3.29,2.79,5,5,0,0,1-2.69,1.09A5.11,5.11,0,0,1,217,55.3a5,5,0,0,1-1.66-1.23,5.19,5.19,0,0,1-1-1.82A5.35,5.35,0,0,1,214.1,50a10.14,10.14,0,0,1,.18-1c.09-.36.19-.79.32-1.29.46-1.21.89-2.42,1.28-3.64s.83-2.42,1.29-3.63a38.6,38.6,0,0,1,2.63-5.46v-.13C219.8,34.7,219.7,34.66,219.49,34.66Zm-6.4-10.1a9.81,9.81,0,0,0,1.6-1.88,34.7,34.7,0,0,0,2.14-3.45q1.09-2,2.19-4.3c.73-1.52,1.36-3,1.88-4.42A25.76,25.76,0,0,0,222,6.68a3.89,3.89,0,0,0-.09-2.51q-.69,1.51-1.92,4.3t-2.54,5.87q-1.3,3.07-2.54,5.89C214.13,22.11,213.51,23.56,213.09,24.56Z"/><path class="cls-1" d="M230.84,42.06a17.2,17.2,0,0,1,.51-5,17.39,17.39,0,0,1,1.88-4.73,11.25,11.25,0,0,1,3.16-3.54,7.83,7.83,0,0,1,4.49-1.45,3.37,3.37,0,0,1,2,1.32,3,3,0,0,1,.41,2.45,9,9,0,0,1-.73,2.35,7.19,7.19,0,0,1-1.59,2c-.38.33-.9.77-1.57,1.31s-1.32,1.11-1.95,1.7a14.12,14.12,0,0,0-1.63,1.79,2.72,2.72,0,0,0-.69,1.53c-.12,1.09,0,1.79.5,2.1a2.68,2.68,0,0,0,1.79.38,6.75,6.75,0,0,0,2.23-.6c.75-.33,1.36-.62,1.82-.87s1.15-.85,1.82-1.42,1.33-1.16,2-1.78l1.95-1.82,1.57-1.45c.33-.33.63-.64.9-.94a4.11,4.11,0,0,1,1-.75,1.86,1.86,0,0,1,.78-.06c.19,0,.16.35-.09.94a11.51,11.51,0,0,1-1.23,2c-.48.62-1,1.25-1.53,1.88-.75.84-1.56,1.71-2.42,2.63a26.74,26.74,0,0,1-2.69,2.54,19.24,19.24,0,0,1-3,2,9.51,9.51,0,0,1-3.17,1.1,7,7,0,0,1-4.74-1.19A5.28,5.28,0,0,1,230.84,42.06Zm10-11.79a7.09,7.09,0,0,0-2.67,1.63,6.12,6.12,0,0,0-1.41,3,25.25,25.25,0,0,0,2.48-2A6.06,6.06,0,0,0,240.88,30.27Z"/><path class="cls-1" d="M248.41,45.64a3,3,0,0,1-.38.62c-.67.46-1.13.34-1.38-.37-.08-.34-.15-.65-.19-.94a7.12,7.12,0,0,1-.06-1q-.06-1.36,0-2.76a21,21,0,0,1,.75-3.41,36,36,0,0,1,1.35-3.67c.52-1.22,1.07-2.36,1.63-3.42a19.86,19.86,0,0,1,1.6-2.6,1.34,1.34,0,0,1,1-.63,2.07,2.07,0,0,1,1.28.31,2.74,2.74,0,0,1,1,1.07,2.19,2.19,0,0,1,.18,1.57,2.9,2.9,0,0,0-.25.37c-.12.21-.25.44-.37.69s-.25.49-.38.72a2.26,2.26,0,0,1-.25.41,15.23,15.23,0,0,0,1.38-1.13c.46-.41.93-.81,1.41-1.19a10.07,10.07,0,0,1,1.47-1,3.44,3.44,0,0,1,1.64-.41,3.1,3.1,0,0,1,1.88.6A5.15,5.15,0,0,1,263.12,31a4.67,4.67,0,0,1,.53,3.67A15.23,15.23,0,0,1,262.08,38c-.67,1.07-1.35,2.12-2,3.17s-1.33,2.1-1.91,3.17a12.11,12.11,0,0,0-1.25,3.29c-.26.88-.27,1.42,0,1.63a.87.87,0,0,0,.91.13,4.29,4.29,0,0,0,1.16-.63l.85-.63a42,42,0,0,0,4.83-4.42q2.27-2.41,4.45-4.61a11.19,11.19,0,0,1,2.36-2q.47-.15.12.63a19.85,19.85,0,0,1-1.13,2.1c-.52.88-1,1.65-1.41,2.32-.5.84-1.19,1.85-2.07,3A34.65,34.65,0,0,1,264,48.55a20.65,20.65,0,0,1-3.29,2.82,5.62,5.62,0,0,1-3.13,1.17,3.66,3.66,0,0,1-1.89-.48,5,5,0,0,1-1.38-1.16,4.9,4.9,0,0,1-.84-1.56,5.69,5.69,0,0,1-.29-1.76,15.5,15.5,0,0,1,1.29-6.15,54.6,54.6,0,0,1,2.73-5.52c.46-.87.58-1.48.38-1.82s-.82-.27-1.82.19a6.09,6.09,0,0,0-2.33,2,27,27,0,0,0-2,3.2c-.61,1.15-1.16,2.29-1.66,3.42A25.18,25.18,0,0,1,248.41,45.64Z"/><path class="cls-1" d="M303,30.21a56.16,56.16,0,0,0-5.46,1.66,31.91,31.91,0,0,0-5.05,2.32,20.72,20.72,0,0,0-4.14,3.1,12,12,0,0,0-2.73,4.08c-.83,2-1,3.48-.4,4.42a3.44,3.44,0,0,0,2.66,1.66,9,9,0,0,0,4.3-.47A31.57,31.57,0,0,0,297,45a36.73,36.73,0,0,0,4.32-2.64,17.29,17.29,0,0,0,2.92-2.48c-.08-1.08-.12-2.18-.12-3.29a8.33,8.33,0,0,1,.56-3.1,1.33,1.33,0,0,1,.82-.88,2.61,2.61,0,0,1,1.34-.16,2.43,2.43,0,0,1,1.29.57,1.49,1.49,0,0,1,.56,1.22,15.18,15.18,0,0,1,0,1.69c0,.38,0,.92,0,1.63a5.41,5.41,0,0,0,1.17-.75c.47-.38,1-.74,1.5-1.1a10.4,10.4,0,0,1,1.47-.84c.46-.21.8-.23,1-.07a1.64,1.64,0,0,1,.37,1,2.36,2.36,0,0,1-.06,1A24.29,24.29,0,0,1,312,40.3l-2.26,3a17,17,0,0,0,.94,2.39,15.59,15.59,0,0,0,1.07,1.82A17.9,17.9,0,0,0,313,49.09q.66.75,1.41,1.56c.76.67,1,1.08.66,1.23a3,3,0,0,1-1.57,0,15.88,15.88,0,0,1-2.29-.6c-.79-.27-1.31-.47-1.56-.59a9.9,9.9,0,0,1-2.2-1.79,11.72,11.72,0,0,1-1.63-2.29,60.4,60.4,0,0,1-7.81,4,20.31,20.31,0,0,1-7.75,1.51,9.75,9.75,0,0,1-5.95-1.89,13.1,13.1,0,0,1-4-4.7,9.18,9.18,0,0,1-.72-3,12.22,12.22,0,0,1,1.85-7.06,16.06,16.06,0,0,1,2.7-3.13A18,18,0,0,1,287.23,30c1.09-.63,2.09-1.15,3-1.57a6.34,6.34,0,0,1-1.63-2.89,8.27,8.27,0,0,1-.15-3.13,10.55,10.55,0,0,1,.91-3.08,18.32,18.32,0,0,1,1.56-2.76,14.12,14.12,0,0,1,4.17-3.51,15.17,15.17,0,0,1,5.24-1.85,10.66,10.66,0,0,1,5.18.47,7.5,7.5,0,0,1,4,3.45,6.63,6.63,0,0,1,.72,1.91,11.11,11.11,0,0,1,.16,1.92c-.13.5-.4.58-.82.25a10.42,10.42,0,0,1-.94-.94A5.51,5.51,0,0,0,304.89,16a11.37,11.37,0,0,0-4.8.28,13.61,13.61,0,0,0-4.48,2.13,7.85,7.85,0,0,0-2.79,3.3,2.37,2.37,0,0,0,.43,2.6,8.3,8.3,0,0,0,2.73,2,14.53,14.53,0,0,0,3.8,1.16,10.89,10.89,0,0,0,3.57.09c.63-.17,1-.15,1.16.06a.83.83,0,0,1,0,.82,3.57,3.57,0,0,1-.62,1A2.56,2.56,0,0,1,303,30.21Z"/><path class="cls-1" d="M340.23,41.87q-.18,0-.18-.12a4.05,4.05,0,0,1-1.16-2.32,9.72,9.72,0,0,1,0-3,16.2,16.2,0,0,1,.78-3.2c.38-1.09.75-2.11,1.13-3.07q2.25-5.52,4.39-11.3T349,8.19A31.06,31.06,0,0,0,343.68,10a13,13,0,0,0-4.32,3.13c-.3.3-.66.72-1.1,1.26A16.16,16.16,0,0,0,337,16.12a10.66,10.66,0,0,0-.91,1.82,2.64,2.64,0,0,0-.22,1.48c-.09.37-.29.46-.6.25a3.84,3.84,0,0,1-1-1.07,7.46,7.46,0,0,1-.85-1.72,3.23,3.23,0,0,1-.16-1.79A12.19,12.19,0,0,1,335.75,10,16.33,16.33,0,0,1,339.8,6.5a20.55,20.55,0,0,1,4.95-2.26,34.15,34.15,0,0,1,5.14-1.19,33.34,33.34,0,0,1,4.49-.51,32.75,32.75,0,0,1,4.95.13,22.87,22.87,0,0,1,4.71,1,11.1,11.1,0,0,1,3.79,2,11.6,11.6,0,0,1,4.77,5.49,14.89,14.89,0,0,1,1,6.93,26.51,26.51,0,0,1-3.35,8,44.35,44.35,0,0,1-5.62,7.3,51.21,51.21,0,0,1-6.9,6.12A50.94,50.94,0,0,1,350.58,44a5.59,5.59,0,0,1-.91.54c-.31.14-.65.32-1,.53a35.25,35.25,0,0,1-5.21,2,25.56,25.56,0,0,1-4.86.94,22.56,22.56,0,0,1-4.92-.09,30.67,30.67,0,0,1-5.33-1.2c-.46-.25-.69-.46-.69-.62s.21-.4.62-.69a7.34,7.34,0,0,1,1.26-.5,7,7,0,0,1,1.25-.26c1.63-.46,3.25-.84,4.86-1.16a20.16,20.16,0,0,0,4.61-1.47Zm1.38-.44a7.48,7.48,0,0,0,2.2-.56c.84-.34,1.69-.73,2.57-1.19s1.72-.93,2.51-1.41,1.44-.89,1.94-1.23a82.52,82.52,0,0,0,9.95-8.25,35.55,35.55,0,0,0,7.37-10.31c.25-.55.48-1.1.69-1.67a8.69,8.69,0,0,0,.44-1.72A5.65,5.65,0,0,0,369,11.8a5.89,5.89,0,0,0-1.82-2.26,8.68,8.68,0,0,0-2.82-1.41A19.87,19.87,0,0,0,361,7.4a23.29,23.29,0,0,0-3.3-.18q-1.59,0-2.73.15c-.12,0-.18.15-.18.44v.76q-2.64,8.58-5.74,16.84A118.55,118.55,0,0,1,341.61,41.43Z"/><path class="cls-1" d="M383.76,34.41l.76-.75h.06v.12a4.1,4.1,0,0,1-.25,2.16,6.84,6.84,0,0,0-.38.79c-.42.63-1,1.43-1.69,2.41s-1.45,2-2.23,3-1.51,2-2.22,2.83a21.1,21.1,0,0,1-1.7,1.85,14.76,14.76,0,0,1-1.63,1.63,3.18,3.18,0,0,1-.85.44,6.7,6.7,0,0,1-1.09.28,4.09,4.09,0,0,1-1.1,0,1.68,1.68,0,0,1-.85-.31,5.36,5.36,0,0,1-1.66-1.66,3.94,3.94,0,0,1-.6-2.11,26.63,26.63,0,0,1,.6-7.05,51.2,51.2,0,0,1,1.85-6.56,10.38,10.38,0,0,1,.88-1.82,1.2,1.2,0,0,1,1.32-.31,2.82,2.82,0,0,1,1.34,1,5.31,5.31,0,0,1,.88,1.92,4,4,0,0,1-.09,2.26c-.21.71-.4,1.39-.57,2s-.35,1.33-.56,2c-.08.34-.22.82-.41,1.45s-.39,1.28-.59,2-.4,1.35-.57,2a10.69,10.69,0,0,0-.31,1.44c-.09.63.08.79.5.5a13.64,13.64,0,0,0,1.69-1.5c1.72-1.76,3.35-3.46,4.9-5.12S382.26,36.08,383.76,34.41ZM375,26.88c-.29.29-.5.29-.62,0a7.1,7.1,0,0,1-1.07-2.63,5.13,5.13,0,0,1,.25-2.76,2.39,2.39,0,0,1,1.1-1.35,1.91,1.91,0,0,1,1.53-.35,3.69,3.69,0,0,1,.82.41,1.29,1.29,0,0,1,.56.66,4.13,4.13,0,0,1-.47,3.26A12.72,12.72,0,0,1,375,26.88Z"/><path class="cls-1" d="M392,34.22c-1.75,2-3.39,4-4.92,6s-3,4-4.48,6a1.17,1.17,0,0,1-.88.38,1.12,1.12,0,0,1-.66-.38,2.12,2.12,0,0,1-.44-.78,6.31,6.31,0,0,1-.22-.85,12.82,12.82,0,0,1,0-2.48,11.13,11.13,0,0,1,.25-1.72c.17-.71.39-1.53.66-2.45s.55-1.85.85-2.79.57-1.86.84-2.76.54-1.7.79-2.42a1.25,1.25,0,0,1,.88-.91,1.61,1.61,0,0,1,1.22.19,2.32,2.32,0,0,1,.94,1.16,3.52,3.52,0,0,1,.09,2.07c-.16.84-.35,1.68-.56,2.51s-.4,1.65-.57,2.45q1.83-2,3.61-4.17t3.48-4.3a1.78,1.78,0,0,1,1.7-.25,2.27,2.27,0,0,1,1.31,1.38,5,5,0,0,1,.44,2.32,12.32,12.32,0,0,1-.31,2.26,33.9,33.9,0,0,1,4.26-3.7,22.19,22.19,0,0,1,4.77-2.76,3,3,0,0,1,2.07-.13,3.55,3.55,0,0,1,1.63,1.16,5.76,5.76,0,0,1,1,2.07,8,8,0,0,1,.28,2.54c-.5,1-1,2.06-1.44,3s-.88,2-1.26,2.91a22.94,22.94,0,0,0-.91,2.89,10.75,10.75,0,0,0-.28,3c.29.21.78.08,1.47-.38a25.9,25.9,0,0,0,2.36-1.82c.88-.75,1.78-1.55,2.72-2.38s1.77-1.55,2.48-2.14q3.08-2.45,3.39-2.07c.21.25-.38,1.2-1.76,2.83s-2.75,3.15-4.23,4.7a29.13,29.13,0,0,1-4.74,4A3.43,3.43,0,0,1,406,49a5.3,5.3,0,0,1-2.1-.37,4.67,4.67,0,0,1-1.79-1.26,3.64,3.64,0,0,1-.88-2.1,10.25,10.25,0,0,1,.23-3.45,25.29,25.29,0,0,1,1.09-3.61,34,34,0,0,1,1.57-3.48l1.63-3.13c-.12-.34-.6-.22-1.41.34a36.87,36.87,0,0,0-3,2.35c-1.17,1-2.4,2.13-3.7,3.39l-3.58,3.45a4.58,4.58,0,0,1-1,.78,1.42,1.42,0,0,1-.6.16c-.41,0-.69-.34-.81-1a11.67,11.67,0,0,1-.16-2.39,22.38,22.38,0,0,1,.22-2.63C391.86,35.15,392,34.55,392,34.22Z"/><path class="cls-1" d="M419,40.37c-.83-1.17-1.66-2.37-2.48-3.58a7.07,7.07,0,0,1-1.22-4,8.29,8.29,0,0,1,1.41-4.61,12.78,12.78,0,0,1,3.23-3.48,8.19,8.19,0,0,1,1.54-.82,2.09,2.09,0,0,1,1.66.06,3.55,3.55,0,0,0,.79.29,5.2,5.2,0,0,1,.72.21,4.06,4.06,0,0,1,.69.38.79.79,0,0,1,.37.69c0,1.17,0,2.12.1,2.85a12.11,12.11,0,0,0,.28,1.89c.13.52.25,1,.38,1.38s.25.82.37,1.28a1.72,1.72,0,0,1-.06,1.07c-.12.29-.44.33-.94.12a3.49,3.49,0,0,1-2-2,18.09,18.09,0,0,1-1-2.76,9.17,9.17,0,0,0-.31-.88,7.56,7.56,0,0,1-.32-.88,1.51,1.51,0,0,0-1.19.35,4.41,4.41,0,0,0-1.22,1.28,4.52,4.52,0,0,0-.69,1.88,3.42,3.42,0,0,0,.4,2.14,9.3,9.3,0,0,0,.73.91l.94,1.09c.31.38.62.75.94,1.1s.57.64.78.85a2,2,0,0,0,.5.41,1.68,1.68,0,0,0,.63-.16c.42-.21,1.06-.48,1.91-.82s1.76-.67,2.7-1,1.84-.62,2.7-.85a8.13,8.13,0,0,1,2-.34.66.66,0,0,1,.63.31c.13.13.11.29-.06.5a4,4,0,0,1-.66.63,5.94,5.94,0,0,1-.85.56l-.56.32q-1.06.63-2.7,1.41a25.42,25.42,0,0,0-2.82,1.54,1.62,1.62,0,0,1-.47.25,2.41,2.41,0,0,0-.53.25,19.14,19.14,0,0,1,1.06,2.92,7.08,7.08,0,0,1,.22,2.35,10.14,10.14,0,0,1-.47,2.29c-.25.77-.59,1.66-1,2.66-.59,1-1.19,1.88-1.79,2.76a15.68,15.68,0,0,1-2,2.39,9.5,9.5,0,0,1-2.45,1.69,6.57,6.57,0,0,1-2.88.63,6.69,6.69,0,0,1-1.69-.22,2.61,2.61,0,0,1-1.38-.91,5.89,5.89,0,0,1-1.64-3.42,9.92,9.92,0,0,1,.32-3.67,10.28,10.28,0,0,1,.94-2.07,19.47,19.47,0,0,1,3-4C416.58,42.43,417.74,41.37,419,40.37Zm2.14,2.82c-.46.46-1.09,1.12-1.89,2A24.84,24.84,0,0,0,417,48a18.51,18.51,0,0,0-1.7,3,3.67,3.67,0,0,0-.34,2.54,9.5,9.5,0,0,0,2.57-1.85,16.57,16.57,0,0,0,2.32-2.83,10.61,10.61,0,0,0,1.41-3A3.47,3.47,0,0,0,421.09,43.19Z"/><path class="cls-1" d="M458.78,35.35h.06v.5a12.4,12.4,0,0,1-1.94,4.08,17.68,17.68,0,0,0-1.22,1.79,19.27,19.27,0,0,1-1.29,1.85c-.88,1-1.7,1.8-2.48,2.54a12.7,12.7,0,0,1-2.79,2,11,11,0,0,1-1.66.66,6.05,6.05,0,0,1-1.82.28,4.69,4.69,0,0,1-1.72-.31,2.94,2.94,0,0,1-1.38-1.13,5.07,5.07,0,0,1-1.1-3,8.62,8.62,0,0,1,.59-3.54l-.37.37-.57.57-.59.59a2.14,2.14,0,0,1-.41.35,16.93,16.93,0,0,1-1.88,1.63,13.22,13.22,0,0,1-1.95,1.19,4.57,4.57,0,0,1-1.41.44,1.81,1.81,0,0,1-1.1-.22,3.72,3.72,0,0,1-1-.85c-.31-.37-.66-.81-1-1.31a9.76,9.76,0,0,1-1.23-2.23,4.23,4.23,0,0,1-.15-2.35c.08-.29.15-.59.22-.88a3.18,3.18,0,0,1,.28-.82c.25-.71.55-1.52.91-2.44s.72-1.84,1.1-2.76.74-1.79,1.09-2.61.66-1.47.91-2c.3-.75.73-1.13,1.32-1.13a2.26,2.26,0,0,1,1.6.69,4.4,4.4,0,0,1,1.1,1.82,2.67,2.67,0,0,1-.19,2.19c-.21.51-.52,1.22-.94,2.14l-1.29,2.85c-.44,1-.82,1.91-1.16,2.79a8.73,8.73,0,0,0-.56,2c0,.92.17,1.4.53,1.44a2.2,2.2,0,0,0,1.44-.69,14.73,14.73,0,0,0,2-2.1c.73-.9,1.47-1.85,2.23-2.86s1.45-2,2.1-2.91,1.2-1.71,1.66-2.29c.59-1,1.08-2,1.48-2.79A9,9,0,0,1,448,26.44a2.07,2.07,0,0,1,1.51.1,4.6,4.6,0,0,1,1.57,1,3.9,3.9,0,0,1,1,1.54,1.57,1.57,0,0,1-.16,1.47c-.75,1-1.43,1.78-2,2.45a12.2,12.2,0,0,0-1.72,2.57c-.29.67-.63,1.41-1,2.23s-.72,1.65-1,2.51a22,22,0,0,0-.75,2.5,6.2,6.2,0,0,0-.16,2.17c0,.71.35,1,1.07.88a8,8,0,0,0,3.32-1.6,34.51,34.51,0,0,0,3.58-3.08c1.17-1.15,2.25-2.28,3.26-3.38S458.2,35.89,458.78,35.35Z"/><path class="cls-1" d="M465.24,34.22c-1.75,2-3.4,4-4.92,6s-3,4-4.49,6a1.14,1.14,0,0,1-.87.38,1.09,1.09,0,0,1-.66-.38,2.12,2.12,0,0,1-.44-.78,5.1,5.1,0,0,1-.22-.85,11.4,11.4,0,0,1,0-2.48,10,10,0,0,1,.25-1.72c.17-.71.39-1.53.66-2.45s.55-1.85.85-2.79.57-1.86.84-2.76.53-1.7.79-2.42a1.24,1.24,0,0,1,.87-.91,1.63,1.63,0,0,1,1.23.19,2.37,2.37,0,0,1,.94,1.16,3.52,3.52,0,0,1,.09,2.07c-.17.84-.35,1.68-.56,2.51s-.4,1.65-.57,2.45c1.21-1.34,2.42-2.73,3.61-4.17s2.35-2.88,3.48-4.3a1.76,1.76,0,0,1,1.69-.25,2.26,2.26,0,0,1,1.32,1.38,5,5,0,0,1,.44,2.32,13.25,13.25,0,0,1-.31,2.26,33.9,33.9,0,0,1,4.26-3.7,22,22,0,0,1,4.77-2.76,3,3,0,0,1,2.07-.13A3.55,3.55,0,0,1,482,29.23a5.75,5.75,0,0,1,1,2.07,8,8,0,0,1,.29,2.54c-.51,1-1,2.06-1.45,3s-.87,2-1.25,2.91a21.41,21.41,0,0,0-.91,2.89,10.75,10.75,0,0,0-.28,3c.29.21.78.08,1.47-.38a24.6,24.6,0,0,0,2.35-1.82c.88-.75,1.79-1.55,2.73-2.38s1.77-1.55,2.48-2.14q3.07-2.45,3.39-2.07c.21.25-.38,1.2-1.76,2.83s-2.75,3.15-4.23,4.7a29.56,29.56,0,0,1-4.74,4,3.43,3.43,0,0,1-1.88.59,5.3,5.3,0,0,1-2.1-.37,4.67,4.67,0,0,1-1.79-1.26,3.64,3.64,0,0,1-.88-2.1,10.5,10.5,0,0,1,.22-3.45,25.34,25.34,0,0,1,1.1-3.61,34,34,0,0,1,1.57-3.48c.58-1.13,1.13-2.17,1.63-3.13-.13-.34-.6-.22-1.41.34a36.87,36.87,0,0,0-3,2.35c-1.17,1-2.41,2.13-3.7,3.39l-3.58,3.45a4.58,4.58,0,0,1-1,.78,1.42,1.42,0,0,1-.6.16c-.42,0-.69-.34-.81-1a11.67,11.67,0,0,1-.16-2.39,20.42,20.42,0,0,1,.22-2.63C465.05,35.15,465.16,34.55,465.24,34.22Z"/></g></g></svg>