<svg xmlns="http://www.w3.org/2000/svg" viewBox="0 0 273.9 210.56"><defs><style>.cls-1{fill:#5d2515;}</style></defs><g id="Layer_2" data-name="Layer 2"><g id="Layer_1-2" data-name="Layer 1"><path class="cls-1" d="M108.76,41.77a97.84,97.84,0,0,0,4.3,10.07A64.06,64.06,0,0,0,119.26,62a41.83,41.83,0,0,0,8.16,8.27,21.57,21.57,0,0,0,10.17,4.29,22.48,22.48,0,0,0,3.24.15,4.58,4.58,0,0,0,2.46-.65.72.72,0,0,1,.62-.1.32.32,0,0,1,.22.4,2.12,2.12,0,0,1-.56.85,8.72,8.72,0,0,1-1.84,1.34Q136.14,80,131.5,80a17.49,17.49,0,0,1-8.6-2.19,26.42,26.42,0,0,1-7.27-6,61.48,61.48,0,0,1-6-8.28Q107,59,104.79,54.54c-1.46-3-2.78-5.59-4-7.78a56.45,56.45,0,0,0-5.42,4.88,87.77,87.77,0,0,0-6.76,7.63,63.23,63.23,0,0,0-5.87,8.83,21.65,21.65,0,0,0-2.85,8.37c-.15,1.07-.62,1.3-1.4.7A9.54,9.54,0,0,1,76.17,74a18.2,18.2,0,0,1-1.67-5.53,12.63,12.63,0,0,1,.61-6.33,111,111,0,0,1,5.76-13q3.3-6.33,7-12.36t7.49-11.92q3.81-5.88,7.27-11.87c.52-.93,1.12-1.92,1.79-3a4.62,4.62,0,0,0,.89-2.79c0-.33-.5-.4-1.51-.2A20.31,20.31,0,0,0,100,8.22q-2.24.94-5,2.34a55.6,55.6,0,0,0-5.48,3.14,37.56,37.56,0,0,0-4.86,3.74,15.7,15.7,0,0,0-3.3,4.09c-2-.26-3.39-.93-4.13-2a4.92,4.92,0,0,1-.84-3.64,8.81,8.81,0,0,1,1.79-4.09,13.4,13.4,0,0,1,3.74-3.44A52.76,52.76,0,0,1,88,5.18c2-.87,4.38-1.83,7.21-2.9a59.67,59.67,0,0,1,7-1.94,10.16,10.16,0,0,1,5.82.15,7.05,7.05,0,0,1,3.52,2.64,40.2,40.2,0,0,1,2.62,4.44,4.36,4.36,0,0,1,.56,2.54,11.12,11.12,0,0,1-.56,2.69,17.5,17.5,0,0,1-1.17,2.7c-.49.89-1,1.74-1.4,2.54L96.91,40.48q2.9-2.49,6.7-5.64t8.11-6.33q4.31-3.2,8.94-6.13a71.35,71.35,0,0,1,9.39-5,49.3,49.3,0,0,1,9.39-3.09,24.48,24.48,0,0,1,9-.3,6.36,6.36,0,0,1,1.95.7,12.86,12.86,0,0,1,2.07,1.3,2.79,2.79,0,0,1,1.06,1.29c.11.4-.24.63-1.06.7a11,11,0,0,0-1.57.2,52.05,52.05,0,0,0-11.17,3.44,107,107,0,0,0-11.85,5.88A105.25,105.25,0,0,0,117,34.59,68.33,68.33,0,0,0,108.76,41.77Z"/><path class="cls-1" d="M135.92,63.41a24.49,24.49,0,0,1,.89-7.88A26.89,26.89,0,0,1,140.16,48a18.73,18.73,0,0,1,5.65-5.63,15,15,0,0,1,8-2.29,6.13,6.13,0,0,1,3.63,2.09,4.27,4.27,0,0,1,.73,3.89,13.54,13.54,0,0,1-1.29,3.74A11.92,11.92,0,0,1,154,53c-.67.53-1.6,1.23-2.79,2.09s-2.35,1.77-3.47,2.7a24.49,24.49,0,0,0-2.9,2.84,4.16,4.16,0,0,0-1.23,2.44c-.23,1.73.07,2.84.89,3.34a5.25,5.25,0,0,0,3.19.6,13.41,13.41,0,0,0,4-1c1.34-.53,2.42-1,3.24-1.39,1-.6,2.05-1.35,3.24-2.25s2.38-1.84,3.58-2.84l3.46-2.89c1.12-.93,2.05-1.69,2.79-2.29s1.14-1,1.63-1.5a7.17,7.17,0,0,1,1.73-1.2,3.78,3.78,0,0,1,1.4-.1c.33.07.27.57-.17,1.5a17.84,17.84,0,0,1-2.18,3.19c-.86,1-1.77,2-2.74,3-1.34,1.33-2.78,2.73-4.3,4.19a48.3,48.3,0,0,1-4.81,4,35.53,35.53,0,0,1-5.25,3.19,18.5,18.5,0,0,1-5.65,1.75,13.49,13.49,0,0,1-8.44-1.9Q135.93,68.4,135.92,63.41ZM153.8,44.66a12.86,12.86,0,0,0-4.75,2.6,9.21,9.21,0,0,0-2.52,4.68A44,44,0,0,0,151,48.7,9.57,9.57,0,0,0,153.8,44.66Z"/><path class="cls-1" d="M169.45,69.1a4.85,4.85,0,0,1-.67,1c-1.19.73-2,.54-2.46-.6A14.77,14.77,0,0,1,166,68a10.07,10.07,0,0,1-.11-1.5q-.1-2.19,0-4.38a28.46,28.46,0,0,1,1.34-5.44,52.65,52.65,0,0,1,2.4-5.83c.94-1.93,1.9-3.74,2.91-5.44a33.12,33.12,0,0,1,2.85-4.14,2.45,2.45,0,0,1,1.85-1,4,4,0,0,1,2.29.5,4.52,4.52,0,0,1,1.78,1.69,3.17,3.17,0,0,1,.34,2.49,6.08,6.08,0,0,0-.45.6c-.22.34-.44.7-.67,1.1s-.44.78-.67,1.15a3.19,3.19,0,0,1-.45.64,29.36,29.36,0,0,0,2.46-1.79c.82-.66,1.66-1.3,2.52-1.9A19,19,0,0,1,187,43.22a6.59,6.59,0,0,1,2.9-.65,6,6,0,0,1,3.35,1,8.79,8.79,0,0,1,2.41,2.29,6.65,6.65,0,0,1,1.17,2.89,6.57,6.57,0,0,1-.22,2.94,23.35,23.35,0,0,1-2.8,5.24c-1.19,1.7-2.4,3.37-3.63,5s-2.37,3.34-3.41,5a18.39,18.39,0,0,0-2.23,5.24c-.45,1.39-.47,2.26-.06,2.59a1.69,1.69,0,0,0,1.62.2,7.83,7.83,0,0,0,2.07-1c.71-.46,1.21-.8,1.51-1a71.65,71.65,0,0,0,8.6-7q4-3.83,7.94-7.33c2.24-2,3.63-3.07,4.19-3.24s.63.17.23,1a32.09,32.09,0,0,1-2,3.34q-1.4,2.1-2.51,3.69-1.35,2-3.69,4.84a56.65,56.65,0,0,1-5.2,5.48,36.94,36.94,0,0,1-5.87,4.49,10.84,10.84,0,0,1-5.58,1.84,7.36,7.36,0,0,1-3.36-.74A8.74,8.74,0,0,1,180,77.47,7.4,7.4,0,0,1,178.44,75a8.3,8.3,0,0,1-.5-2.79,22.56,22.56,0,0,1,2.29-9.78,79.24,79.24,0,0,1,4.87-8.77c.81-1.4,1-2.36.67-2.89s-1.46-.43-3.25.3a10.35,10.35,0,0,0-4.13,3.24,41.9,41.9,0,0,0-3.52,5.08q-1.62,2.75-3,5.44A36.78,36.78,0,0,1,169.45,69.1Z"/><path class="cls-1" d="M203.87,63.41a24.23,24.23,0,0,1,.9-7.88A26.61,26.61,0,0,1,208.12,48a18.81,18.81,0,0,1,5.64-5.63,15.07,15.07,0,0,1,8-2.29,6.13,6.13,0,0,1,3.63,2.09,4.3,4.3,0,0,1,.73,3.89,13.54,13.54,0,0,1-1.29,3.74A11.92,11.92,0,0,1,222,53c-.67.53-1.6,1.23-2.79,2.09s-2.35,1.77-3.47,2.7a23.87,23.87,0,0,0-2.91,2.84,4.13,4.13,0,0,0-1.22,2.44c-.23,1.73.07,2.84.89,3.34a5.24,5.24,0,0,0,3.18.6,13.27,13.27,0,0,0,4-1c1.34-.53,2.42-1,3.24-1.39,1-.6,2-1.35,3.25-2.25s2.38-1.84,3.57-2.84l3.47-2.89c1.12-.93,2.05-1.69,2.79-2.29s1.14-1,1.62-1.5a7.38,7.38,0,0,1,1.73-1.2,3.8,3.8,0,0,1,1.4-.1c.34.07.28.57-.17,1.5a16.85,16.85,0,0,1-2.18,3.19c-.85,1-1.77,2-2.73,3q-2,2-4.31,4.19a48.19,48.19,0,0,1-4.8,4,35.11,35.11,0,0,1-5.26,3.19,18.36,18.36,0,0,1-5.64,1.75,13.49,13.49,0,0,1-8.44-1.9Q203.87,68.4,203.87,63.41Zm17.89-18.75a12.78,12.78,0,0,0-4.75,2.6,9.21,9.21,0,0,0-2.52,4.68,44,44,0,0,0,4.42-3.24A9.57,9.57,0,0,0,221.76,44.66Z"/><path class="cls-1" d="M243,60.72c-1.49-1.86-3-3.76-4.41-5.68a10.34,10.34,0,0,1-2.18-6.39,12.26,12.26,0,0,1,2.51-7.33,22,22,0,0,1,5.76-5.53,16.27,16.27,0,0,1,2.74-1.3,4.16,4.16,0,0,1,3,.1,6.73,6.73,0,0,0,1.4.45,10.11,10.11,0,0,1,1.28.35,6.86,6.86,0,0,1,1.23.6,1.22,1.22,0,0,1,.67,1.1c0,1.86.06,3.37.17,4.53a18.53,18.53,0,0,0,.5,3c.23.84.45,1.57.67,2.2s.45,1.31.67,2a2.53,2.53,0,0,1-.11,1.7c-.22.46-.78.53-1.67.2a6,6,0,0,1-3.64-3.19,26.22,26.22,0,0,1-1.73-4.39,11.07,11.07,0,0,0-.56-1.4,13,13,0,0,1-.56-1.39,2.91,2.91,0,0,0-2.12.55,7.5,7.5,0,0,0-2.18,2,6.93,6.93,0,0,0-1.23,3,4.92,4.92,0,0,0,.73,3.39,13.69,13.69,0,0,0,1.28,1.45q.84.84,1.68,1.74c.56.6,1.12,1.18,1.68,1.75s1,1,1.39,1.34a3,3,0,0,0,.9.65,2.85,2.85,0,0,0,1.11-.25c.75-.33,1.89-.76,3.41-1.29s3.13-1.07,4.81-1.6,3.28-1,4.81-1.35a16.56,16.56,0,0,1,3.52-.54,1.23,1.23,0,0,1,1.11.49c.23.2.19.47-.11.8a6.34,6.34,0,0,1-1.17,1,15.41,15.41,0,0,1-1.51.9l-1,.5c-1.26.66-2.87,1.41-4.8,2.24a50.81,50.81,0,0,0-5,2.44,2.33,2.33,0,0,1-.84.4,4.74,4.74,0,0,0-1,.4,28.14,28.14,0,0,1,1.9,4.64,10.15,10.15,0,0,1,.39,3.74,14.49,14.49,0,0,1-.84,3.64q-.66,1.84-1.79,4.23c-1,1.53-2.1,3-3.18,4.39A24.58,24.58,0,0,1,247,84.85a17.24,17.24,0,0,1-4.36,2.69,13.52,13.52,0,0,1-8.16.65A4.75,4.75,0,0,1,232,86.75a9,9,0,0,1-2.91-5.44,14.27,14.27,0,0,1,.56-5.83,15.66,15.66,0,0,1,1.68-3.29,31.94,31.94,0,0,1,5.42-6.44Q239.75,63.11,243,60.72Zm3.8,4.49q-1.23,1.1-3.35,3.14a40,40,0,0,0-4,4.43,30.15,30.15,0,0,0-3,4.74,5.33,5.33,0,0,0-.61,4,16.45,16.45,0,0,0,4.58-2.94,27.41,27.41,0,0,0,4.14-4.49,16.15,16.15,0,0,0,2.51-4.84A4.89,4.89,0,0,0,246.79,65.21Z"/><path class="cls-1" d="M39,118.52a4.76,4.76,0,0,0,1.23-.15,4.71,4.71,0,0,1,1.23-.15,21.56,21.56,0,0,0,7.54-1.6,36.8,36.8,0,0,0,7.72-4,23.87,23.87,0,0,0,5.7-5.28,6.88,6.88,0,0,0,1.62-5.59,10.4,10.4,0,0,0-4.75-4.68,21.52,21.52,0,0,0-7.44-2,41.14,41.14,0,0,0-9,.1,74.5,74.5,0,0,0-9.39,1.7,63.61,63.61,0,0,0-8.72,2.79A37.07,37.07,0,0,0,18,103.06c-.83.27-1.29.08-1.4-.55a5.16,5.16,0,0,1,.22-2.29,13.44,13.44,0,0,1,1.12-2.7,9.44,9.44,0,0,1,1.29-1.94,11.59,11.59,0,0,1,3.68-4.09,20.4,20.4,0,0,1,4.92-2.39,45.84,45.84,0,0,1,11-1.8A65.4,65.4,0,0,1,52,87.85a44.26,44.26,0,0,1,11.91,3.34q5.31,2.4,7.21,6.58a13.28,13.28,0,0,1,.61,6.44A16.11,16.11,0,0,1,69.58,110a21.89,21.89,0,0,1-4.19,5,31.86,31.86,0,0,1-5.59,4,1.47,1.47,0,0,1-.45.3l-.67.3L62.26,121a15.21,15.21,0,0,1,3.24,1.74,13.25,13.25,0,0,1,3.24,3.14,10.68,10.68,0,0,1,1.79,3.74,12.41,12.41,0,0,1,.45,6.54,28,28,0,0,1-1.9,5.93,42.92,42.92,0,0,1-4,5.83,27.34,27.34,0,0,1-5,4.84,49.77,49.77,0,0,1-15.7,10.62,65.82,65.82,0,0,1-18.61,4.83c-2.24.07-4.32,0-6.26-.09A19.54,19.54,0,0,1,14.2,167a14.89,14.89,0,0,1-4.48-2.59,15.7,15.7,0,0,1-3.57-4.59,44.36,44.36,0,0,1-3.86-6.13,20.87,20.87,0,0,1-2.12-6.24,11.09,11.09,0,0,1,.5-5.78,10.35,10.35,0,0,1,4-4.79,38.14,38.14,0,0,1,4.42-3,15.16,15.16,0,0,1,5.2-1.84l.95-.35a2.63,2.63,0,0,1,1-.15h.33a5,5,0,0,0-.89,1,4.67,4.67,0,0,1-.67.79A44.49,44.49,0,0,0,11.29,138a21.76,21.76,0,0,0-2.74,5.39,15.46,15.46,0,0,0-.84,5.58A8.73,8.73,0,0,0,9.61,154a10.53,10.53,0,0,0,3.75,3,15.84,15.84,0,0,0,4.69,1.39,25.41,25.41,0,0,0,5.09.2q2.57-.15,4.92-.45a45.67,45.67,0,0,0,13.8-4.58,58.81,58.81,0,0,0,11.46-8c.89-.93,1.84-2,2.85-3.14A44.92,44.92,0,0,0,59,138.91a29.41,29.41,0,0,0,2.24-3.79,14.69,14.69,0,0,0,1.28-3.74,7,7,0,0,0-6.15-6.18,26.73,26.73,0,0,0-6.2-.35q-3.63.15-8.33.55c-1,.13-2.12.21-3.24.25s-2.23.11-3.35.24a.65.65,0,0,0-.34.2.32.32,0,0,1-.22.1q-3.59,6-6.82,12.17a57.4,57.4,0,0,1-7.93,11.47c-.15.2-.51.64-1.07,1.34a15.37,15.37,0,0,1-1.78,1.9,3.75,3.75,0,0,1-1.85,1c-.6.1-1-.34-1.12-1.34a4.71,4.71,0,0,1-.44-2.64,19.08,19.08,0,0,1,.56-3.44,29.39,29.39,0,0,1,1.06-3.44c.41-1.1.72-1.95,1-2.55q.55-1.78,1.11-3.54a30.25,30.25,0,0,1,1.35-3.44q2.45-4.38,4.63-8.67t4.76-8.48q1.34-2.59,2.73-5.08t2.85-4.89a3.21,3.21,0,0,1,2.57-1.45,5.38,5.38,0,0,1,3,.8,7.4,7.4,0,0,1,2.34,2.29,4.48,4.48,0,0,1,.73,3.15,20.44,20.44,0,0,1-1.45,3.74Z"/><path class="cls-1" d="M90.65,153.52l-2.24,1.54a16.12,16.12,0,0,1-2.68,1.5,15.52,15.52,0,0,1-3.07,1,8.86,8.86,0,0,1-3.41,0,6.77,6.77,0,0,1-2.46-.84,12.57,12.57,0,0,1-2.13-1.55,4,4,0,0,1-1.23-2.59,12.49,12.49,0,0,1-.11-2.69,48.54,48.54,0,0,1,1.57-5.49,42.19,42.19,0,0,1,2.46-5.68,31.73,31.73,0,0,1,6.26-8.18A17.84,17.84,0,0,1,92.77,126a11.14,11.14,0,0,1,3.75-.15A8.5,8.5,0,0,1,99.93,127a6.48,6.48,0,0,1,2.23,2.25,3.69,3.69,0,0,1,.34,2.94c-.15.4-.32.79-.51,1.19a3.37,3.37,0,0,1-.67,1,1.33,1.33,0,0,1-.72.45c-.23,0-.45-.15-.67-.55-.08-.2-.17-.48-.28-.85a4.86,4.86,0,0,0-.51-1.09,3.44,3.44,0,0,0-1-1,2.68,2.68,0,0,0-1.62-.45c-1.41,0-3,.78-4.8,2.34a40.07,40.07,0,0,0-5.15,5.49A51.35,51.35,0,0,0,82.38,145a23.47,23.47,0,0,0-2.24,4.74c-.45,1.73-.41,2.64.11,2.74s1.34-.27,2.46-1.1a31.07,31.07,0,0,0,3.8-3.44q2.13-2.19,4-4.34c1.26-1.42,2.36-2.69,3.29-3.78s1.44-1.68,1.51-1.75a4.61,4.61,0,0,1,2.91-.9,4.46,4.46,0,0,1,2.51,1,4.35,4.35,0,0,1,1.46,2.09,3.29,3.29,0,0,1-.28,2.55c-.53,1.06-1.21,2.32-2.07,3.79a12.72,12.72,0,0,0-1.62,3.89c-.22,1.72,0,2.85.67,3.39s1.9.49,3.69-.1a15.27,15.27,0,0,0,4.47-2.85q2.34-2,4.64-4.33c1.52-1.53,3-3,4.3-4.39a28.49,28.49,0,0,1,3.35-3.09,10,10,0,0,1,.84-.65q.51-.34.84-.15c.37.13.58.32.62.55a5.78,5.78,0,0,1,0,.75,48.6,48.6,0,0,1-3.46,6.28,40.06,40.06,0,0,1-4.53,5.73,32.71,32.71,0,0,1-5.59,4.69,28.27,28.27,0,0,1-6.65,3.24,9.43,9.43,0,0,1-4,.45,8.31,8.31,0,0,1-3.25-1.15,7.32,7.32,0,0,1-2.34-2.29A8.77,8.77,0,0,1,90.65,153.52Z"/><path class="cls-1" d="M126.86,141.45a23.47,23.47,0,0,1,2.07-2.39q1.51-1.6,3.63-3.49c1.42-1.26,2.94-2.55,4.58-3.84s3.25-2.46,4.81-3.49a41.52,41.52,0,0,1,4.36-2.54,6.52,6.52,0,0,1,3.24-.9,3.21,3.21,0,0,1,1.73.45,3.8,3.8,0,0,1,1.12,1,1.24,1.24,0,0,1,.28,1c-.07.3-.37.48-.89.55a11.29,11.29,0,0,0-3.69,1.79,59.88,59.88,0,0,0-5,3.69c-1.72,1.4-3.28,2.76-4.7,4.09a16.31,16.31,0,0,0-2.57,2.79,4.39,4.39,0,0,1,2.52,2.95,21,21,0,0,1,.89,5.28,60.73,60.73,0,0,1,0,6.33q-.17,3.3-.05,6.09a16.21,16.21,0,0,0,.72,4.58,2.1,2.1,0,0,0,2.18,1.7,4,4,0,0,0,2.07-1.25,40.1,40.1,0,0,0,3.13-3.19c1.15-1.3,2.37-2.74,3.63-4.34s2.48-3.17,3.64-4.73,2.17-3,3.07-4.34,1.6-2.39,2.12-3.19,1-1.23,1.34-1.1.49.5.34,1.1a19.23,19.23,0,0,1-1.23,3.59,23,23,0,0,1-1.79,3.19c-.52.86-1.25,2-2.18,3.44s-2,2.92-3.24,4.49-2.53,3.1-3.91,4.63a25.33,25.33,0,0,1-4.36,3.89,14.65,14.65,0,0,1-4.58,2.2,6.07,6.07,0,0,1-4.42-.5,4.79,4.79,0,0,1-3.18-2.35,12.49,12.49,0,0,1-1.46-4.38,31.63,31.63,0,0,1-.33-5.44c0-1.93.13-3.82.28-5.68s.28-3.59.39-5.19a16.41,16.41,0,0,0-.06-3.69,10.29,10.29,0,0,0-4,3.79,39,39,0,0,0-3.24,6,61.33,61.33,0,0,0-2.29,6.19c-.6,2-1,3.34-1.12,4.14a4.4,4.4,0,0,0-.11.89,2.19,2.19,0,0,1-.22.9,2,2,0,0,1-.9,1.35,1.34,1.34,0,0,1-1.11,0,2.5,2.5,0,0,1-1-.9,13.91,13.91,0,0,1-.78-1.25,14.57,14.57,0,0,1-1-3.84,35.78,35.78,0,0,1-.28-4.53c0-1.53,0-3,.11-4.34a23.7,23.7,0,0,1,.34-3.14q.56-3.79,1.9-9.18t3.41-11.46q2.06-6.09,4.63-12.47t5.65-12.31a120.24,120.24,0,0,1,6.43-11,47.68,47.68,0,0,1,6.93-8.48,3,3,0,0,1,2.62-.75,6.09,6.09,0,0,1,2.74,1.2A5.91,5.91,0,0,1,152,87.4a2.77,2.77,0,0,1,0,2.6,43.81,43.81,0,0,0-2.52,6.13q-1.4,4-3.85,9.72t-6.32,12.82a132.64,132.64,0,0,1-9.78,15.2,20.81,20.81,0,0,0-1.67,3.74A26.12,26.12,0,0,0,126.86,141.45Zm3.47-11.27a57.08,57.08,0,0,0,3.57-5.68c1.27-2.26,2.57-4.67,3.92-7.23s2.64-5.15,3.91-7.78,2.42-5.12,3.46-7.48,1.92-4.47,2.63-6.33,1.21-3.29,1.51-4.29q-2.24,3.6-4.7,8t-5,9.37q-2.52,4.93-4.92,10.37T130.33,130.18Z"/><path class="cls-1" d="M155.14,150.72a24.4,24.4,0,0,1,.89-7.87,26.66,26.66,0,0,1,3.36-7.53,18.84,18.84,0,0,1,5.64-5.64,15.12,15.12,0,0,1,8-2.29,6.13,6.13,0,0,1,3.64,2.09,4.3,4.3,0,0,1,.72,3.89,13.43,13.43,0,0,1-1.28,3.74,11.92,11.92,0,0,1-2.85,3.24c-.67.54-1.61,1.23-2.8,2.1s-2.35,1.76-3.46,2.69a23.87,23.87,0,0,0-2.91,2.84,4.18,4.18,0,0,0-1.23,2.45c-.22,1.72.07,2.84.9,3.34a5.3,5.3,0,0,0,3.18.59,13.63,13.63,0,0,0,4-.94c1.34-.53,2.42-1,3.24-1.4,1-.6,2.05-1.35,3.24-2.24s2.39-1.85,3.58-2.84l3.46-2.9c1.12-.93,2.05-1.69,2.8-2.29q.89-.8,1.62-1.5a6.88,6.88,0,0,1,1.73-1.19,3.4,3.4,0,0,1,1.4-.1c.33.06.28.56-.17,1.49a17,17,0,0,1-2.18,3.19c-.86,1-1.77,2-2.74,3q-2,2-4.3,4.18a47,47,0,0,1-4.81,4,34.21,34.21,0,0,1-5.25,3.19,18.5,18.5,0,0,1-5.65,1.75,13.4,13.4,0,0,1-8.43-1.9Q155.14,155.71,155.14,150.72ZM173,132a12.94,12.94,0,0,0-4.75,2.59,9.31,9.31,0,0,0-2.51,4.69,45.89,45.89,0,0,0,4.41-3.24A9.52,9.52,0,0,0,173,132Z"/><path class="cls-1" d="M214.83,131a24.83,24.83,0,0,0-7.83,5,63.58,63.58,0,0,0-6.76,7.42c-2.13,2.73-4.19,5.56-6.21,8.48s-4,5.65-6,8.18a2,2,0,0,1-2.12.5,2.25,2.25,0,0,1-1.57-1.55,3.56,3.56,0,0,1,.22-2.44c.53-1.6,1-3.39,1.51-5.39s1-4.09,1.4-6.28.91-4.39,1.4-6.58,1-4.29,1.51-6.28a2,2,0,0,1,1.06-1.25,4.38,4.38,0,0,1,1.84-.5,3.59,3.59,0,0,1,1.79.35,1.9,1.9,0,0,1,1,1.2,10.42,10.42,0,0,1-.28,4.78c-.49,1.87-1,3.69-1.62,5.49,1.34-1.46,2.81-3.18,4.41-5.14a47.75,47.75,0,0,1,5.26-5.48,29.18,29.18,0,0,1,6-4.19A12,12,0,0,1,216.5,126a6.09,6.09,0,0,1,2.85,1.65,8,8,0,0,1,1.62,2.59,9,9,0,0,1,.62,2.84,7,7,0,0,1-.28,2.4c-.52.93-1.14,1.94-1.85,3a16.54,16.54,0,0,0-1.67,3.34,8.18,8.18,0,0,0-.51,3.34,4.07,4.07,0,0,0,1.79,2.94c.45.53.41.93-.11,1.2a5.35,5.35,0,0,1-2.12.45,10.67,10.67,0,0,1-2.69-.25,3.7,3.7,0,0,1-1.9-.9,9.8,9.8,0,0,1-2.18-4.44,11,11,0,0,1,.17-4.53,17.62,17.62,0,0,1,1.79-4.49A32.18,32.18,0,0,1,214.83,131Z"/><path class="cls-1" d="M234.83,156.91a8.46,8.46,0,0,1-5.42-.8,5.51,5.51,0,0,1-3.07-3.89,24.91,24.91,0,0,1-.45-5,46.6,46.6,0,0,1,.34-5.63,51.43,51.43,0,0,1,1-5.53c.4-1.8.83-3.39,1.28-4.79a1.89,1.89,0,0,1,1.73-.9,7.38,7.38,0,0,1,2.46.45,8.43,8.43,0,0,1,2.24,1.15,3,3,0,0,1,1.17,1.39,8.11,8.11,0,0,1-.61,4.14q-1,2.85-2.07,5.93c-.75,2.07-1.34,4-1.79,5.74s-.37,2.87.22,3.34,1.21.35,2.07-.35a15.89,15.89,0,0,0,2.74-3.09c1-1.36,2-3,3-4.79s2.07-3.64,3.07-5.43,1.92-3.46,2.74-5,1.49-2.69,2-3.49c.15-.26.51-.38,1.06-.35a5.33,5.33,0,0,1,1.74.45,7.54,7.54,0,0,1,1.67,1.05,2.92,2.92,0,0,1,1,1.44,20.9,20.9,0,0,1,.67,7.53,47,47,0,0,1-1.23,7.63q4.14-2.9,8.1-5.18a62.54,62.54,0,0,1,8.55-4.09,4.38,4.38,0,0,1,1.74-.45,9.61,9.61,0,0,1,2.18,0c.59.07.91.28.95.65s-.66.94-2.07,1.74q-5.15,2.9-10.4,6.58t-9.83,7a2.38,2.38,0,0,0-1,1.6,80,80,0,0,1-3.13,12.36A126.73,126.73,0,0,1,242,181.94a113.15,113.15,0,0,1-7.15,13.11,67,67,0,0,1-8.33,10.72,16,16,0,0,1-5.92,4,10.21,10.21,0,0,1-5.76.55,7.35,7.35,0,0,1-4.36-3,11.13,11.13,0,0,1-1.84-6.43,46.7,46.7,0,0,1,4.69-12,81,81,0,0,1,7.77-11.47q4.53-5.64,10-11.27t11.52-11.42a4.66,4.66,0,0,0,1.45-2.34,29.34,29.34,0,0,0,1.12-3.94,34.87,34.87,0,0,0,.61-3.94,5.58,5.58,0,0,0-.05-2.24c-.75,1.19-1.57,2.61-2.46,4.24s-1.83,3.19-2.8,4.68a33.92,33.92,0,0,1-2.9,3.89A4.43,4.43,0,0,1,234.83,156.91Zm-20.9,48.16c.82.27,2-.45,3.58-2.14a63.09,63.09,0,0,0,5.25-6.78q2.91-4.25,5.92-9.48t5.54-10.17q2.5-4.94,4.19-8.92a21.26,21.26,0,0,0,1.79-5.69q-2.91,2.79-6.37,6.73T227,176.9q-3.36,4.33-6.32,8.83a85.62,85.62,0,0,0-4.92,8.37,28.91,28.91,0,0,0-2.57,6.83Q212.6,203.87,213.93,205.07Z"/></g></g></svg>