<svg xmlns="http://www.w3.org/2000/svg" viewBox="0 0 374.67 223.73"><defs><style>.cls-1{fill:#e8cb5d;}.cls-2{fill:#e8c95b;}</style></defs><g id="Layer_2" data-name="Layer 2"><g id="Layer_1-2" data-name="Layer 1"><polygon class="cls-1" points="25.02 193.96 19.64 193.96 4.12 209.79 4.12 193.96 0 193.96 0 223.41 4.12 223.41 4.12 215.49 9.19 210.43 20.59 223.41 25.97 223.41 12.35 207.26 25.02 193.96"/><polygon class="cls-1" points="34.84 210.43 49.41 210.43 49.41 206.31 34.84 206.31 34.84 197.76 51.31 197.76 51.31 193.96 30.4 193.96 30.4 223.41 51.94 223.41 51.94 219.29 34.84 219.29 34.84 210.43"/><polygon class="cls-1" points="77.28 215.49 60.17 193.96 56.69 193.96 56.69 223.41 61.13 223.41 61.13 201.87 77.91 223.41 81.39 223.41 81.39 193.96 77.28 193.96 77.28 215.49"/><polygon class="cls-1" points="91.53 210.43 106.1 210.43 106.1 206.31 91.53 206.31 91.53 197.76 107.68 197.76 107.68 193.96 87.09 193.96 87.09 223.41 108.31 223.41 108.31 219.29 91.53 219.29 91.53 210.43"/><path class="cls-1" d="M132.07,208.84a15.83,15.83,0,0,0-3.49-1.27l-3.8-.95a15.4,15.4,0,0,1-3.48-1.26,8.29,8.29,0,0,1-2.22-1.27,4.65,4.65,0,0,1-.63-2.22,6,6,0,0,1,.63-2.21,13.74,13.74,0,0,1,2.22-1.59,12.2,12.2,0,0,1,7.6,0,11.58,11.58,0,0,1,3.48,1.59l1,.63,1.59-3.8-.64-.32c-1.26-.63-2.53-1.26-4.11-1.9a25.18,25.18,0,0,0-5.07-.63,12.08,12.08,0,0,0-6,1.27,8.61,8.61,0,0,0-3.8,2.85,10.32,10.32,0,0,0-1.26,4.43,6.82,6.82,0,0,0,1.26,3.8,9.7,9.7,0,0,0,2.54,2.53,17.5,17.5,0,0,0,3.8,1.27c.95.32,2.21.63,3.48,1a11.47,11.47,0,0,1,3.48,1.27,5.07,5.07,0,0,1,2.22,1.27,4.5,4.5,0,0,1,.63,2.21,4.4,4.4,0,0,1-.63,1.9,4.05,4.05,0,0,1-2.22,1.59c-1,.63-2.21.63-4.11.63a12.73,12.73,0,0,1-4.75-1,10.84,10.84,0,0,1-3.8-2.22l-.64-.63-1.9,3.48.32.32a8.65,8.65,0,0,0,4.75,2.85,13.74,13.74,0,0,0,6,1.27,17.27,17.27,0,0,0,6.33-1.27,9.29,9.29,0,0,0,3.8-3.17,9,9,0,0,0,1.27-4.11,5,5,0,0,0-1.27-3.8,9.41,9.41,0,0,0-2.53-2.54Z"/><polygon class="cls-1" points="184.64 193.32 179.26 193.32 163.1 209.79 163.1 193.32 158.67 193.32 158.67 223.73 163.1 223.73 163.1 215.49 168.49 210.43 179.89 223.73 185.28 223.73 171.34 207.26 184.64 193.32"/><path class="cls-1" d="M212.2,208.52a18.54,18.54,0,0,1-.64,4.44,13.89,13.89,0,0,1-2.53,3.48,14.23,14.23,0,0,1-3.49,2.54,15.14,15.14,0,0,1-9.18,0,16.27,16.27,0,0,1-3.8-2.54,13.18,13.18,0,0,1-2.22-3.48,11.23,11.23,0,0,1-1-4.44,10.17,10.17,0,0,1,1-4.43,11.09,11.09,0,0,1,2.22-3.8,15.3,15.3,0,0,1,3.8-2.22,10.17,10.17,0,0,1,4.43-.95,12.73,12.73,0,0,1,4.75.95,13.24,13.24,0,0,1,3.49,2.22,11.37,11.37,0,0,1,2.53,3.8,18.53,18.53,0,0,1,.64,4.43Zm0-11.08a10.75,10.75,0,0,0-5.07-3.17,16.56,16.56,0,0,0-12.67,0,12.57,12.57,0,0,0-5.07,3.17,12.72,12.72,0,0,0-3.17,4.75,14.18,14.18,0,0,0-1.26,6.33,12.85,12.85,0,0,0,1.26,6,12.64,12.64,0,0,0,3.17,4.75,18.09,18.09,0,0,0,5.07,3.49,21.6,21.6,0,0,0,12.67,0,19.76,19.76,0,0,0,5.07-3.17,18.12,18.12,0,0,0,3.48-5.07,18.53,18.53,0,0,0,.95-6,20.53,20.53,0,0,0-.95-6.33,13.29,13.29,0,0,0-3.48-4.75Z"/><path class="cls-1" d="M240.07,199a6.48,6.48,0,0,1,1.9,4.75c0,2.22-.64,3.8-1.9,4.75a9.47,9.47,0,0,1-6.34,1.9h-7v-13h7c2.85,0,4.75.32,6.34,1.58Zm.31-4.43a12.54,12.54,0,0,0-6.33-1.27H222.33v30.41h4.43v-9.19h7.29a17.29,17.29,0,0,0,6.33-1.26,10.52,10.52,0,0,0,4.44-3.81,11.07,11.07,0,0,0,0-11.4,8.2,8.2,0,0,0-4.44-3.48Z"/><rect class="cls-1" x="251.78" y="193.32" width="4.43" height="30.4"/><polygon class="cls-1" points="262.24 197.44 272.37 197.44 272.37 223.73 276.8 223.73 276.8 197.44 286.94 197.44 286.94 193.32 262.24 193.32 262.24 197.44"/><rect class="cls-1" x="293.27" y="193.32" width="4.43" height="30.4"/><path class="cls-1" d="M315.44,212l5.7-13,6,13Zm3.8-18.69-13.93,30.41h4.75l3.48-7.92h15.2l3.49,7.92H337L323,193.32Z"/><polygon class="cls-1" points="370.87 193.32 358.83 213.91 346.8 193.32 343 193.32 343 223.73 347.43 223.73 347.43 202.51 357.56 219.93 360.1 219.93 370.23 202.51 370.23 223.73 374.67 223.73 374.67 193.32 370.87 193.32"/><path class="cls-2" d="M246.49,133.19c-3.72,4.46-9.68,4.46-14.14,1.48L169.1,83.33l61-49.85c4.46-3,10.41-3,14.13,1.49a76.28,76.28,0,0,1,19.35,50.6,74.8,74.8,0,0,1-17.11,47.62ZM239.79,18.6l-2.23-2.23L166.13,73.66V62.5l-8.93,7.44V96l8.93,7.44V93l73.66,59.52,3-2.23a84.54,84.54,0,0,0,29.76-64.73c0-26.79-11.91-51.34-32.74-67Z"/><polygon class="cls-2" points="157.2 53.57 166.13 46.13 166.13 12.65 157.2 5.95 157.2 53.57"/><polygon class="cls-2" points="166.13 122.03 157.2 114.58 157.2 165.18 166.13 158.48 166.13 122.03"/><path class="cls-2" d="M140.83,83.33,157.2,69.94l8.93-7.44,64-51.34-6.7-3A86.45,86.45,0,0,0,187.71,0a85.48,85.48,0,0,0-27.53,4.46L157.2,6l8.93,6.7c6.69-2.23,14.13-3,21.58-3a79.94,79.94,0,0,1,18.6,2.23c2.23.75,3,3.73.74,6L166.13,50.6,157.2,58l-3,3-1.49.75L138.6,73.66l-9.68,7.44v4.47L138.6,93l18.6,14.88h0l8.93,7.44,45.39,36.46c2.23,2.23,1.48,5.21-1.49,6a78,78,0,0,1-22.32,3.72c-7.45,0-14.89-1.49-21.58-3l-8.93,6.7,3,.75a85.48,85.48,0,0,0,27.53,4.46,83.56,83.56,0,0,0,39.43-9.67l6-3-67-54.32L157.2,96Z"/><polygon class="cls-2" points="128.93 121.28 138.6 121.28 138.6 93.01 128.93 85.57 128.93 121.28"/><path class="cls-2" d="M128.92,125a2.82,2.82,0,0,1-5.2,1.49c-8.19-11.9-11.91-26-11.91-40.92s3.72-29,11.91-41.67a2.82,2.82,0,0,1,5.2,1.49v29L138.6,67V14.88l-8.19,6.7a86.75,86.75,0,0,0-28.27,64c0,23.81,10.42,46.87,28.27,63.24l8.19,6.7V121.28h-9.68Z"/></g></g></svg>