<svg xmlns="http://www.w3.org/2000/svg" viewBox="0 0 239.35 214.18"><defs><style>.cls-1{fill:#5d2515;}</style></defs><g id="Layer_2" data-name="Layer 2"><g id="Layer_1-2" data-name="Layer 1"><path class="cls-1" d="M41.91,50.88a122.46,122.46,0,0,0,5.25,12.26,76.63,76.63,0,0,0,7.55,12.39,50.81,50.81,0,0,0,9.94,10.08A26.24,26.24,0,0,0,77,90.84,26.6,26.6,0,0,0,81,91a5.71,5.71,0,0,0,3-.79.87.87,0,0,1,.75-.12.37.37,0,0,1,.27.48,2.48,2.48,0,0,1-.68,1,11,11,0,0,1-2.24,1.64q-6.81,4.13-12.46,4.12a21.3,21.3,0,0,1-10.48-2.67,32,32,0,0,1-8.85-7.35A74,74,0,0,1,43,77.29q-3.26-5.4-5.92-10.87T32.25,57a67.67,67.67,0,0,0-6.6,5.95,105.2,105.2,0,0,0-8.24,9.29,78.67,78.67,0,0,0-7.15,10.75,26.54,26.54,0,0,0-3.47,10.2c-.18,1.3-.75,1.58-1.7.85a11.35,11.35,0,0,1-2.86-3.88,22.48,22.48,0,0,1-2-6.74,15.39,15.39,0,0,1,.75-7.72A135.39,135.39,0,0,1,8,59.8q4-7.71,8.51-15.06t9.12-14.51q4.62-7.17,8.85-14.45c.63-1.13,1.36-2.35,2.18-3.65a5.71,5.71,0,0,0,1.09-3.4c0-.4-.62-.48-1.84-.24A23.87,23.87,0,0,0,31.3,10q-2.73,1.15-6.13,2.85a68.61,68.61,0,0,0-6.67,3.83,45.56,45.56,0,0,0-5.92,4.55,19.05,19.05,0,0,0-4,5q-3.68-.48-5-2.43a6.08,6.08,0,0,1-1-4.43,11,11,0,0,1,2.18-5,16.63,16.63,0,0,1,4.56-4.19A65,65,0,0,1,16.66,6.3q3.61-1.58,8.78-3.52A70.76,70.76,0,0,1,34,.41,12.42,12.42,0,0,1,41.1.6a8.69,8.69,0,0,1,4.29,3.21,49.07,49.07,0,0,1,3.2,5.41,5.34,5.34,0,0,1,.68,3.1,14.3,14.3,0,0,1-.68,3.28,21.62,21.62,0,0,1-1.43,3.28C46.57,20,46,21,45.46,22l-18,27.33c2.35-2,5.08-4.31,8.16-6.86s6.38-5.12,9.87-7.72,7.13-5.08,10.89-7.46a86.48,86.48,0,0,1,11.44-6.14,59.26,59.26,0,0,1,11.44-3.76A29.63,29.63,0,0,1,90.24,17a7.87,7.87,0,0,1,2.39.85,16.75,16.75,0,0,1,2.52,1.58A3.47,3.47,0,0,1,96.44,21c.14.49-.3.77-1.29.85a12.9,12.9,0,0,0-1.91.24,63.81,63.81,0,0,0-13.61,4.19A130.82,130.82,0,0,0,65.2,33.45,127.76,127.76,0,0,0,52,42.13,85.16,85.16,0,0,0,41.91,50.88Z"/><path class="cls-1" d="M75,77.23a29.87,29.87,0,0,1,1.08-9.59,32.29,32.29,0,0,1,4.09-9.17A22.82,22.82,0,0,1,87,51.61a18.39,18.39,0,0,1,9.74-2.8,7.49,7.49,0,0,1,4.42,2.55,5.23,5.23,0,0,1,.89,4.74,16.6,16.6,0,0,1-1.57,4.55,14.35,14.35,0,0,1-3.47,3.95c-.82.65-2,1.5-3.4,2.55s-2.86,2.15-4.22,3.28a29.18,29.18,0,0,0-3.54,3.46,5.09,5.09,0,0,0-1.5,3c-.27,2.11.09,3.46,1.09,4.07a6.4,6.4,0,0,0,3.88.73,16.41,16.41,0,0,0,4.83-1.16c1.64-.64,3-1.21,4-1.7,1.18-.73,2.49-1.64,4-2.73s2.9-2.25,4.35-3.46,2.86-2.39,4.22-3.52,2.5-2.07,3.41-2.8c.72-.64,1.38-1.25,2-1.82A8.67,8.67,0,0,1,118.15,63a4.41,4.41,0,0,1,1.7-.12c.41.08.34.69-.2,1.82A20.62,20.62,0,0,1,117,68.61c-1,1.21-2.15,2.43-3.33,3.64-1.64,1.62-3.38,3.32-5.24,5.1a55.52,55.52,0,0,1-5.86,4.92,41.72,41.72,0,0,1-6.4,3.89,22.61,22.61,0,0,1-6.87,2.13Q83,88.65,79,86T75,77.23ZM96.78,54.4A15.71,15.71,0,0,0,91,57.56a11.24,11.24,0,0,0-3.06,5.71,56.89,56.89,0,0,0,5.38-4A11.81,11.81,0,0,0,96.78,54.4Z"/><path class="cls-1" d="M115.83,84.16a5.38,5.38,0,0,1-.81,1.21q-2.17,1.34-3-.73a16.35,16.35,0,0,1-.4-1.82,11.59,11.59,0,0,1-.14-1.82,53,53,0,0,1,0-5.35A35.25,35.25,0,0,1,113.11,69,63.42,63.42,0,0,1,116,61.93c1.13-2.35,2.31-4.55,3.54-6.62a38.31,38.31,0,0,1,3.47-5,3,3,0,0,1,2.25-1.21,5,5,0,0,1,2.79.6,5.77,5.77,0,0,1,2.18,2.07,3.84,3.84,0,0,1,.4,3,6.34,6.34,0,0,0-.54.73c-.27.41-.55.85-.82,1.34s-.54,1-.81,1.4A5.6,5.6,0,0,1,128,59a35.6,35.6,0,0,0,3-2.19c1-.81,2-1.58,3.06-2.31a23.25,23.25,0,0,1,3.2-1.88,8,8,0,0,1,3.54-.79A7.37,7.37,0,0,1,144.83,53a10.59,10.59,0,0,1,2.93,2.8,8.08,8.08,0,0,1,1.16,7.1,28.6,28.6,0,0,1-3.41,6.38c-1.45,2.06-2.92,4.11-4.42,6.13s-2.88,4.07-4.15,6.14a22.42,22.42,0,0,0-2.73,6.37c-.54,1.7-.56,2.75-.06,3.16a2.06,2.06,0,0,0,2,.24,9.79,9.79,0,0,0,2.52-1.21l1.84-1.22A87.93,87.93,0,0,0,151,80.33q4.9-4.68,9.66-8.93,4.09-3.65,5.11-3.94c.68-.2.77.2.27,1.21a40.09,40.09,0,0,1-2.45,4.07q-1.71,2.55-3.06,4.49c-1.09,1.62-2.59,3.59-4.49,5.89a68.29,68.29,0,0,1-6.34,6.68,45,45,0,0,1-7.14,5.47,13.23,13.23,0,0,1-6.81,2.25,8.88,8.88,0,0,1-4.08-.91,10.73,10.73,0,0,1-3-2.25,9.11,9.11,0,0,1-1.84-3,10.17,10.17,0,0,1-.61-3.4A27.29,27.29,0,0,1,129,76a98.12,98.12,0,0,1,5.92-10.69c1-1.7,1.27-2.87.82-3.52s-1.77-.53-4,.36a12.7,12.7,0,0,0-5,4,49.88,49.88,0,0,0-4.29,6.19q-2,3.34-3.61,6.62A41.84,41.84,0,0,1,115.83,84.16Z"/><path class="cls-1" d="M157.76,77.23a29.89,29.89,0,0,1,1.09-9.59,32.29,32.29,0,0,1,4.09-9.17,22.82,22.82,0,0,1,6.87-6.86,18.36,18.36,0,0,1,9.74-2.8A7.49,7.49,0,0,1,184,51.36a5.23,5.23,0,0,1,.89,4.74,16.6,16.6,0,0,1-1.57,4.55,14.35,14.35,0,0,1-3.47,3.95c-.82.65-1.95,1.5-3.41,2.55s-2.85,2.15-4.21,3.28a28.47,28.47,0,0,0-3.54,3.46,5.09,5.09,0,0,0-1.5,3c-.27,2.11.09,3.46,1.09,4.07a6.4,6.4,0,0,0,3.88.73A16.41,16.41,0,0,0,177,80.51c1.63-.64,2.95-1.21,3.95-1.7,1.18-.73,2.49-1.64,4-2.73s2.9-2.25,4.35-3.46,2.86-2.39,4.22-3.52,2.5-2.07,3.41-2.8c.72-.64,1.38-1.25,2-1.82A8.67,8.67,0,0,1,200.92,63a4.41,4.41,0,0,1,1.7-.12c.41.08.34.69-.2,1.82a20.62,20.62,0,0,1-2.66,3.89c-1,1.21-2.15,2.43-3.33,3.64-1.64,1.62-3.38,3.32-5.24,5.1a56.55,56.55,0,0,1-5.86,4.92,41.72,41.72,0,0,1-6.4,3.89,22.61,22.61,0,0,1-6.87,2.13q-6.27.36-10.28-2.31T157.76,77.23ZM179.55,54.4a15.71,15.71,0,0,0-5.79,3.16,11.24,11.24,0,0,0-3.06,5.71,56.89,56.89,0,0,0,5.38-4A11.81,11.81,0,0,0,179.55,54.4Z"/><path class="cls-1" d="M205.41,74Q202.68,70.56,200,67a12.62,12.62,0,0,1-2.65-7.77,14.87,14.87,0,0,1,3.06-8.93,26.75,26.75,0,0,1,7-6.74A19.14,19.14,0,0,1,210.79,42a5.13,5.13,0,0,1,3.61.12,7.68,7.68,0,0,0,1.7.55,10.2,10.2,0,0,1,1.56.43,8.4,8.4,0,0,1,1.5.72,1.49,1.49,0,0,1,.82,1.34c0,2.27.07,4.11.2,5.53a23.27,23.27,0,0,0,.61,3.64c.28,1,.55,1.9.82,2.67s.55,1.6.82,2.49a3.09,3.09,0,0,1-.14,2.07c-.27.56-.95.65-2,.24a7.23,7.23,0,0,1-4.42-3.89,30.75,30.75,0,0,1-2.11-5.34,17.86,17.86,0,0,0-.68-1.7,14.16,14.16,0,0,1-.69-1.7,3.58,3.58,0,0,0-2.58.67,9.06,9.06,0,0,0-2.66,2.49A8.25,8.25,0,0,0,205.62,56a6,6,0,0,0,.88,4.13,18.49,18.49,0,0,0,1.57,1.76c.68.69,1.36,1.4,2,2.12s1.36,1.44,2,2.13,1.25,1.24,1.7,1.64a1.67,1.67,0,0,0,2.45.49c.91-.41,2.29-.93,4.15-1.58s3.82-1.3,5.86-2,4-1.19,5.85-1.64a20.19,20.19,0,0,1,4.29-.66,1.53,1.53,0,0,1,1.36.6c.27.25.23.57-.13,1a7.83,7.83,0,0,1-1.43,1.22,15.6,15.6,0,0,1-1.84,1.09c-.64.33-1,.53-1.23.61q-2.31,1.22-5.85,2.73a67,67,0,0,0-6.13,3,3,3,0,0,1-1,.48,6.34,6.34,0,0,0-1.15.49,35.92,35.92,0,0,1,2.31,5.65,12.46,12.46,0,0,1,.48,4.55,17.63,17.63,0,0,1-1,4.43c-.54,1.5-1.27,3.22-2.17,5.17q-1.92,2.79-3.88,5.34a30.27,30.27,0,0,1-4.43,4.62,21.23,21.23,0,0,1-5.31,3.28,16,16,0,0,1-6.26,1.21,15.3,15.3,0,0,1-3.67-.43,5.83,5.83,0,0,1-3-1.76A10.86,10.86,0,0,1,188.53,99a17.34,17.34,0,0,1,.68-7.1,19.87,19.87,0,0,1,2-4,38.19,38.19,0,0,1,6.61-7.83Q201.46,76.86,205.41,74ZM210,79.42q-1.5,1.33-4.08,3.83a49,49,0,0,0-4.84,5.4,35.94,35.94,0,0,0-3.67,5.77,6.5,6.5,0,0,0-.75,4.92,20.39,20.39,0,0,0,5.58-3.58,34.19,34.19,0,0,0,5-5.47,19.93,19.93,0,0,0,3.06-5.89A6,6,0,0,0,210,79.42Z"/><path class="cls-1" d="M7.75,154.67a2.89,2.89,0,0,1,1.83-1.21L12,153q1.77-.24,3.54-.42c1.18-.12,2.41-.27,3.68-.43A1.68,1.68,0,0,0,21,150.91c.82-1.14,1.91-2.71,3.27-4.74s2.9-4.19,4.63-6.5,3.6-4.59,5.65-6.86A43.16,43.16,0,0,1,40.83,127a20.68,20.68,0,0,1,6.67-3.4,9.93,9.93,0,0,1,6.67.36,10.45,10.45,0,0,1,4.08,3c.91,1.17.77,2.09-.41,2.73a32.35,32.35,0,0,1-4.15,1.76A11,11,0,0,0,50,133.54a33.47,33.47,0,0,0-6.13,7.29,52,52,0,0,1-5.58,7.41,38.82,38.82,0,0,0,9.32-2.74A113.86,113.86,0,0,0,59,140a124.92,124.92,0,0,0,11.44-7,76.54,76.54,0,0,0,9.12-7.28,19.67,19.67,0,0,0,4.76-6.32c.77-1.9.21-3.26-1.7-4.07a24.49,24.49,0,0,0-6.06-1.76,43.36,43.36,0,0,0-6.94-.55,62.44,62.44,0,0,0-7.22.43,69.26,69.26,0,0,0-6.87,1.15,59.42,59.42,0,0,0-7.69,2.19c-3.05,1-6.06,2.27-9.06,3.64a69.88,69.88,0,0,0-8.3,4.5A19.56,19.56,0,0,0,25,129.65a7.61,7.61,0,0,1-1-6.19,12.68,12.68,0,0,1,3.47-5.41,30.63,30.63,0,0,1,6.33-4.55,59.38,59.38,0,0,1,7.77-3.58c2.67-1,5.24-1.87,7.69-2.55s4.49-1.2,6.12-1.52a67.61,67.61,0,0,1,15.52-1.46,35.93,35.93,0,0,1,13.75,3.28A15.54,15.54,0,0,1,89.77,111,14.67,14.67,0,0,1,93,115.5a13.68,13.68,0,0,1,1.15,5.17,9.87,9.87,0,0,1-1.15,5,46.36,46.36,0,0,1-8,11.06,62.13,62.13,0,0,1-10.82,8.86,85.55,85.55,0,0,1-12.73,6.8A98.64,98.64,0,0,1,48,157.1a2.3,2.3,0,0,1-.88.3,2.48,2.48,0,0,0-.89.31q-.27,0-.27.24v.49a31.13,31.13,0,0,0,1.43,8.8,57.84,57.84,0,0,0,3.81,9.54,64.28,64.28,0,0,0,5.38,8.86,43.41,43.41,0,0,0,6.12,6.93,45.27,45.27,0,0,0,10.49,6.74,53.58,53.58,0,0,0,12.25,4,53,53,0,0,0,12.86,1,41.87,41.87,0,0,0,12.19-2.37c.09,0,.13.08.13.24a1.25,1.25,0,0,1,.14,1,9.19,9.19,0,0,1-3.88,5.16,24.9,24.9,0,0,1-7.08,3.34,43.34,43.34,0,0,1-8.58,1.64,38.1,38.1,0,0,1-8.37-.06A48.33,48.33,0,0,1,64,206.9a60.82,60.82,0,0,1-15.18-12.51,64.22,64.22,0,0,1-10.41-16.34,53.92,53.92,0,0,1-4.63-17.91H30.62c-.73,0-1.09.16-1.09.48a35.75,35.75,0,0,0-3.82,6.87c-1,2.38-1.92,4.77-2.79,7.16s-1.75,4.78-2.65,7.17a52.61,52.61,0,0,1-3.27,7q-1.37,2.31-2.86,0a10.15,10.15,0,0,1-1.9-5,49.26,49.26,0,0,1,.13-13.24,38.81,38.81,0,0,1,4.09-11.9c-.82-.24-1.62-.49-2.38-.73s-1.57-.44-2.39-.61a9.6,9.6,0,0,1-2.24-1A4.94,4.94,0,0,1,7.75,154.67Z"/><path class="cls-1" d="M80.3,183.58a29.92,29.92,0,0,1,1.09-9.6,32.42,32.42,0,0,1,4.09-9.17A22.82,22.82,0,0,1,92.35,158a18.36,18.36,0,0,1,9.74-2.79,7.39,7.39,0,0,1,4.42,2.55,5.2,5.2,0,0,1,.89,4.73,16.67,16.67,0,0,1-1.57,4.56,14.49,14.49,0,0,1-3.47,3.95c-.82.65-2,1.5-3.4,2.55s-2.86,2.14-4.22,3.28a27.78,27.78,0,0,0-3.54,3.46,5,5,0,0,0-1.5,3c-.27,2.11.09,3.47,1.09,4.07a6.4,6.4,0,0,0,3.88.73,16.39,16.39,0,0,0,4.83-1.15c1.63-.65,3-1.22,4-1.7,1.18-.73,2.49-1.64,4-2.74s2.9-2.24,4.35-3.46l4.22-3.52q2-1.69,3.41-2.79c.72-.65,1.38-1.26,2-1.82a8.15,8.15,0,0,1,2.11-1.46,4.41,4.41,0,0,1,1.7-.12c.41.08.34.69-.2,1.82A21,21,0,0,1,122.3,175c-1,1.22-2.15,2.43-3.33,3.65q-2.46,2.43-5.24,5.1a59.17,59.17,0,0,1-5.86,4.92,41.66,41.66,0,0,1-6.4,3.88,22.07,22.07,0,0,1-6.87,2.13q-6.27.36-10.28-2.31C81.65,190.54,80.3,187.63,80.3,183.58Zm21.79-22.84a16,16,0,0,0-5.79,3.16,11.28,11.28,0,0,0-3.06,5.71,53.59,53.59,0,0,0,5.38-4A11.68,11.68,0,0,0,102.09,160.74Z"/><path class="cls-1" d="M128,180.3q-2.72-3.41-5.38-6.92a12.62,12.62,0,0,1-2.65-7.78,14.84,14.84,0,0,1,3.06-8.92,26.44,26.44,0,0,1,7-6.74,18.44,18.44,0,0,1,3.34-1.58,5,5,0,0,1,3.61.12,8.21,8.21,0,0,0,1.7.54,13.17,13.17,0,0,1,1.56.43,8.51,8.51,0,0,1,1.5.73,1.48,1.48,0,0,1,.82,1.33c0,2.27.07,4.11.2,5.53a23.07,23.07,0,0,0,.61,3.64c.28,1,.55,1.91.82,2.68s.55,1.6.82,2.49a3.12,3.12,0,0,1-.14,2.06q-.41.85-2,.24a7.22,7.22,0,0,1-4.42-3.88,31.14,31.14,0,0,1-2.11-5.35,17.86,17.86,0,0,0-.68-1.7,13.51,13.51,0,0,1-.69-1.7,3.58,3.58,0,0,0-2.58.67,9.33,9.33,0,0,0-2.66,2.49,8.3,8.3,0,0,0-1.49,3.64,6,6,0,0,0,.88,4.13,16.32,16.32,0,0,0,1.57,1.76q1,1,2,2.13t2,2.13c.68.68,1.25,1.23,1.7,1.64a3.83,3.83,0,0,0,1.09.78,3.52,3.52,0,0,0,1.36-.3c.91-.4,2.29-.93,4.16-1.58s3.81-1.29,5.85-1.94,4-1.2,5.85-1.64a20.34,20.34,0,0,1,4.29-.67,1.51,1.51,0,0,1,1.36.61c.27.24.23.57-.13,1a7.81,7.81,0,0,1-1.43,1.21,17.19,17.19,0,0,1-1.84,1.1l-1.23.6q-2.31,1.23-5.85,2.74a64.57,64.57,0,0,0-6.13,3,2.82,2.82,0,0,1-1,.49,5.76,5.76,0,0,0-1.15.48,35.92,35.92,0,0,1,2.31,5.65,12.52,12.52,0,0,1,.48,4.56,17.83,17.83,0,0,1-1,4.43c-.54,1.5-1.27,3.22-2.17,5.16q-1.92,2.79-3.88,5.34a29.81,29.81,0,0,1-4.43,4.62,20.66,20.66,0,0,1-5.31,3.28,16.59,16.59,0,0,1-9.93.79,5.89,5.89,0,0,1-3-1.76,10.89,10.89,0,0,1-3.54-6.62,17.37,17.37,0,0,1,.68-7.11,19.79,19.79,0,0,1,2-4,38.53,38.53,0,0,1,6.61-7.84Q124,183.22,128,180.3Zm4.63,5.46c-1,.9-2.36,2.17-4.08,3.83a49,49,0,0,0-4.84,5.4,36.38,36.38,0,0,0-3.67,5.77,6.45,6.45,0,0,0-.75,4.92,20.15,20.15,0,0,0,5.58-3.58,32.92,32.92,0,0,0,5-5.47,19.69,19.69,0,0,0,3.06-5.89A6,6,0,0,0,132.58,185.76Z"/><path class="cls-1" d="M161,203.62c.55,1.53,1.66,2,3.34,1.45a19.31,19.31,0,0,0,5.85-3.64,75.32,75.32,0,0,0,7-6.8q3.68-4,7-7.89t5.79-7.05q2.44-3.15,3.27-4.13a12.12,12.12,0,0,1,1.56-1.82,20,20,0,0,1,2.25-1.82c.36-.24.79-.51,1.29-.79a2.33,2.33,0,0,1,1.29-.37c.37.05.53.31.48.79a7.69,7.69,0,0,1-1,2.43q-.83,1.46-2.59,4.44t-4.35,6.68q-2.6,3.71-5.72,7.65a70.35,70.35,0,0,1-6.74,7.35,61.44,61.44,0,0,1-7.35,6,20.28,20.28,0,0,1-7.56,3.28,34.77,34.77,0,0,1-6.26.79,7.15,7.15,0,0,1-5-1.89,7.46,7.46,0,0,1-2.31-5.22,30.38,30.38,0,0,1,.34-7.23,56.55,56.55,0,0,1,1.7-7.4q1.09-3.58,1.77-5.53,2.18-6.32,4.15-12.45t3.88-12.33q2-5.46,3.75-11.23t3.47-10.39q-2.73-.12-5.58-.18l-5.72-.12c-1.91,0-3.79-.14-5.65-.3a34.34,34.34,0,0,1-5.24-.85,6.13,6.13,0,0,1-3.2-1.58,2.94,2.94,0,0,1-1-2.19,2.42,2.42,0,0,1,1.36-1.88,7.2,7.2,0,0,1,3.74-.79c1,0,2.63.08,4.9.24s4.65.29,7.15.37,4.81.1,6.94.06a14.93,14.93,0,0,0,4.15-.43c.28-.08.41-.2.41-.36q.83-2.19,1.77-4.62c.64-1.62,1.27-3.19,1.91-4.73s1.24-3,1.84-4.38,1.11-2.55,1.56-3.52c.36-.73,1.11-1,2.25-.91a11.54,11.54,0,0,1,3.54,1,12.24,12.24,0,0,1,3.2,2.13,3,3,0,0,1,1.22,2.37A19.76,19.76,0,0,1,188,122a39.7,39.7,0,0,0-2.59,6.92q8.58-.12,14.77-.18t12.05-.06q1.91,0,3.81.06a14.84,14.84,0,0,1,2.93.31c.68.16.84.38.47.66a13,13,0,0,1-3.54,1.16,143.26,143.26,0,0,1-16.6,3.7q-8,1.27-15.8,1.88c-.45.09-.66.17-.61.25s-.07.32-.34.73a.36.36,0,0,1-.13.24.31.31,0,0,0-.14.24c-1.45,3.57-3,7.57-4.77,12s-3.45,9-5.17,13.72-3.36,9.31-4.9,13.85-2.86,8.64-4,12.32-1.88,6.76-2.38,9.23S160.58,203.05,161,203.62Z"/><path class="cls-1" d="M223.11,170.46a15.2,15.2,0,0,0,3.54-.73c1.27-.4,2.45-.73,3.54-1,1.27-.32,2.6-.71,4-1.15a36.24,36.24,0,0,1,4-1c.9,0,1.27.23,1.09.67a4.83,4.83,0,0,1-1.3,1.58,18.9,18.9,0,0,1-2.31,1.76c-.86.57-1.52,1-2,1.22a41,41,0,0,1-6.47,2.06,30.48,30.48,0,0,0-6.06,2.07c-.81,1.29-1.95,3-3.4,5.16a62.57,62.57,0,0,1-4.83,6.25,36.3,36.3,0,0,1-5.59,5.23,9.55,9.55,0,0,1-5.65,2.18,11,11,0,0,1-6.53-1.94,7.41,7.41,0,0,1-3.06-3.77,18.23,18.23,0,0,1-1.23-5.52,27.54,27.54,0,0,1,.21-5.83,33.71,33.71,0,0,1,.95-4.68,2.37,2.37,0,0,1,.41-1.15,1.7,1.7,0,0,1,.54-.43l.61-.24a1.29,1.29,0,0,0,.62-.49q.41-1.33.81-2.79a9.29,9.29,0,0,1,1.23-2.67,30.28,30.28,0,0,1,5.92-6.74,14.81,14.81,0,0,1,8.37-3.58,12.35,12.35,0,0,1,5.52.24,9.6,9.6,0,0,1,4.42,2.79,9.08,9.08,0,0,1,2.31,3.46,13.63,13.63,0,0,1,.82,3.65,12.51,12.51,0,0,1-.13,3.22C223.33,169.25,223.2,170,223.11,170.46Zm-19.88,19.92a6.63,6.63,0,0,0,3.06-1.76,28.55,28.55,0,0,0,3.27-3.46,32.51,32.51,0,0,0,2.73-3.95,17,17,0,0,0,1.56-3.34q-2.73.24-5.85.24a33.83,33.83,0,0,1-5.86-.48,10.77,10.77,0,0,0-.54,2.85,24.56,24.56,0,0,0,0,3.64,22.46,22.46,0,0,0,.54,3.59A8,8,0,0,0,203.23,190.38Zm12.12-18.7a.79.79,0,0,0,.54-.25.67.67,0,0,0,.27-.48,11.18,11.18,0,0,0,1-5.1,6,6,0,0,0-2-4.5,3.69,3.69,0,0,0-2.45-1.09,5.83,5.83,0,0,0-2.86.48,14.73,14.73,0,0,0-4.35,3.41c-1.09,1.29-2.14,2.63-3.14,4a1.06,1.06,0,0,0,.28.85,2.74,2.74,0,0,1,1.22,2.43c0,.41.52.65,1.57.73a33.41,33.41,0,0,0,3.54.06q2-.06,3.81-.3A23.23,23.23,0,0,1,215.35,171.68Z"/></g></g></svg>