<svg xmlns="http://www.w3.org/2000/svg" viewBox="0 0 63.77 53.57"><defs><style>.cls-1{fill:#f16522;}</style></defs><g id="Layer_2" data-name="Layer 2"><g id="Layer_1-2" data-name="Layer 1"><path class="cls-1" d="M29.43,0l-.21,0a2.5,2.5,0,0,1,.47,0A2.34,2.34,0,0,0,29.43,0Z"/><path class="cls-1" d="M36,.31a1.6,1.6,0,0,1,.47.43A1.6,1.6,0,0,0,36,.31Z"/><path class="cls-1" d="M28,.74a1.7,1.7,0,0,1,.46-.43A1.7,1.7,0,0,0,28,.74Z"/><path class="cls-1" d="M28.55.24a1.56,1.56,0,0,1,.56-.2A1.64,1.64,0,0,0,28.55.24Z"/><path class="cls-1" d="M33.25,1.5a1.74,1.74,0,0,0,.31,1.33A1.74,1.74,0,0,1,33.25,1.5Z"/><path class="cls-1" d="M35,0a2.51,2.51,0,0,0-.27,0,2.57,2.57,0,0,1,.48,0Z"/><path class="cls-1" d="M34,.34a1.84,1.84,0,0,1,.59-.27A1.84,1.84,0,0,0,34,.34Z"/><path class="cls-1" d="M35.33,0a1.71,1.71,0,0,1,.56.2A1.64,1.64,0,0,0,35.33,0Z"/><polygon class="cls-1" points="27.98 0.74 15.99 17.34 15.99 17.34 27.98 0.74"/><path class="cls-1" d="M31.17,2.18a1.79,1.79,0,0,0-.7-1.84,1.66,1.66,0,0,0-.59-.27,1.66,1.66,0,0,1,.59.27A1.79,1.79,0,0,1,31.17,2.18Z"/><path class="cls-1" d="M14,19.61h0Z"/><path class="cls-1" d="M14,26.74a3.38,3.38,0,0,0,.72-.08,3.38,3.38,0,0,1-.72.08Z"/><path class="cls-1" d="M47.2,21.72a3.66,3.66,0,0,0-.31,1.45,3.38,3.38,0,0,0,.07.72,3.38,3.38,0,0,1-.07-.72A3.66,3.66,0,0,1,47.2,21.72Z"/><path class="cls-1" d="M47.93,25.69a3.53,3.53,0,0,1-1-1.8A3.53,3.53,0,0,0,47.93,25.69Z"/><path class="cls-1" d="M50.45,26.74a3.38,3.38,0,0,0,.72-.08,3.38,3.38,0,0,1-.72.08Z"/><rect class="cls-1" x="15.16" y="17.08" height="2.83"/><path class="cls-1" d="M50.45,19.61h0a3.38,3.38,0,0,1,.72.07A3.38,3.38,0,0,0,50.45,19.61Z"/><path class="cls-1" d="M47.2,21.72a3.66,3.66,0,0,0-.31,1.45,3.38,3.38,0,0,0,.07.72,3.53,3.53,0,0,0,1,1.8,3.88,3.88,0,0,0,1.14.77,3.51,3.51,0,0,0,1.38.28,3.38,3.38,0,0,0,.72-.08,3.56,3.56,0,0,0,0-7,3.38,3.38,0,0,0-.72-.07c-.12,0-.23,0-.35,0L36.45.74h0A1.6,1.6,0,0,0,36,.31L35.89.24a1.71,1.71,0,0,0-.56-.2l-.11,0a2.57,2.57,0,0,0-.48,0l-.19,0A1.84,1.84,0,0,0,34,.34h0a1.76,1.76,0,0,0-.71,1.16,1.74,1.74,0,0,0,.31,1.33Z"/><path class="cls-1" d="M11,21.18a3.55,3.55,0,0,0,0,4,3.55,3.55,0,0,0,3,1.58,3.38,3.38,0,0,0,.72-.08,3.55,3.55,0,0,0,2.85-3.49,3.5,3.5,0,0,0-.32-1.45L30.87,2.83a1.67,1.67,0,0,0,.3-.65,1.79,1.79,0,0,0-.7-1.84,1.66,1.66,0,0,0-.59-.27,1.08,1.08,0,0,0-.19,0,2.5,2.5,0,0,0-.47,0l-.11,0a1.56,1.56,0,0,0-.56.2l-.1.07A1.7,1.7,0,0,0,28,.74L16,17.34l-1.66,2.3h0l-.17,0H14A3.54,3.54,0,0,0,11,21.18Z"/><path class="cls-1" d="M60.61,17.34H50.1l.67.93a4.91,4.91,0,1,1-5.22,4.9,4.61,4.61,0,0,1,.16-1.23l-3.32-4.6H22l-3.31,4.6a4.61,4.61,0,0,1,.16,1.23,4.91,4.91,0,1,1-5.22-4.9l.67-.93H3.15A3.15,3.15,0,0,0,.43,22.08L12.5,52a3.16,3.16,0,0,0,2.72,1.57H48.54A3.15,3.15,0,0,0,51.26,52L63.33,22.08A3.15,3.15,0,0,0,60.61,17.34ZM24.5,46.19a2,2,0,0,1-4,0V28.75a2,2,0,1,1,4,0Zm10.07,0a2,2,0,0,1-4,0V28.75a2,2,0,0,1,4,0Zm10.06,0a2,2,0,0,1-4,0V28.75a2,2,0,0,1,4,0Z"/></g></g></svg>