<svg xmlns="http://www.w3.org/2000/svg" viewBox="0 0 253.39 71.2"><defs><style>.cls-1{fill:#ea6204;fill-rule:evenodd;}</style></defs><g id="Layer_2" data-name="Layer 2"><g id="Layer_1-2" data-name="Layer 1"><path class="cls-1" d="M59,58.8,47.18,60.57,30.64,45.8,54.86,21.59a1.71,1.71,0,0,0-1.18-3H43.93a4.77,4.77,0,0,0-3.84,1.77l-5.61,5.32a1.36,1.36,0,0,0,.89,2.36h3.54L23.85,42V8.89c0-3.55-3-6.8-6.5-6.5C12.92,3,4.06,5.64,3.18,6.82,2,8-1.25,12.73.52,15.09c2.07,2.36,5.9-1.48,7.09.29V58.5a12.85,12.85,0,0,0,13,12.7h3.25V55C27.1,57.91,36,65.59,41.27,69.72a3.24,3.24,0,0,0,3.25.3C66.08,62,59,58.8,59,58.8Z"/><path class="cls-1" d="M133.12,15.68a25,25,0,0,0-8.57,1.18c-.29-.89-.88-2.36-2.36-2.66C120.12,13.61,108.31,24,107.72,26c-.89,5.62,6.2-.29,6.79,2.37V60.57a10,10,0,0,0,10,10H129V39.89c0-16.53,2.37-16.53,5.61-16.53,3,0,5.32,1.47,5.32,15.94,0,.89.29,1.48.29,2.37v18.9a10,10,0,0,0,10.05,10h1.47V27.79c0-6.8-8.27-12.11-18.6-12.11Z"/><path class="cls-1" d="M247.7,39a3,3,0,0,0-.88-.3c.29,0,.59.3.88.3Z"/><path class="cls-1" d="M230.28,45.51Z"/><path class="cls-1" d="M247.7,39c-.29,0-.59-.3-.88-.3-3.84-1.77-18-2.65-18.9-3-3.55-1.18-5.91-3.54-5.62-5.91,0-3.54.89-8,8.86-8,8.57,0,7.39,4.73,8.27,8.56a3.46,3.46,0,0,0,3.25,2.66l9.16.59c.59-13.58-8.57-17.42-20.09-18s-21.26,5.61-21.55,13.58c-.3,4.43,0,8.86,4.13,12.11,2.95,2.07,7.68,3.84,15.95,4.14h0c7.38.29,10,3.54,10,7.38,0,9.15-4.43,10.63-9.45,10.34-3.84-.3-8.27-2.66-8.27-8.86,0-2.66-3.25-4.43-5.91-4.73l-7.38-.29c-.89,15.94,8.86,19.78,21,20.08,12.4.59,22.44-6.5,23-16,.3-5.91,0-10.93-5.61-14.47Z"/><path class="cls-1" d="M102.4,33.1a5,5,0,0,0,.89-7.38C94.73,15.68,78.78,13.91,69,21,57.81,29.26,56,45.51,64.9,57.61c6.79,9.16,17.42,13.59,27.17,11.52,3.25-.59,8.27-5.31,10.33-8.27,7.09-9.45,7.39-11.22,4.14-21-.3-.29-.89-.59-1.18-.29l-7.09,5.61a2.28,2.28,0,0,0-.59,2.95c.88,1.19,1.48,2.37,2.07,3a1.33,1.33,0,0,1,0,1.47c-1.48,2.37-5.62,8.86-7.09,8.57-4.43-.59-10-4.43-14.77-10ZM72.58,26c3.84-3,11.22,0,17.42,6.5L73.46,44.62c-4.13-8-4.72-15.65-.88-18.61Z"/><path class="cls-1" d="M199.86,33.1a5.2,5.2,0,0,0,.89-7.38c-8.57-10-24.52-11.81-34.26-4.73-11.22,8.27-13,24.52-4.14,36.62,6.5,9.16,17.43,13.59,27.17,11.52,3-.59,8.27-5.31,10.34-8.27,7.09-9.45,7.38-11.22,4.13-21-.29-.29-.88-.59-1.18-.29l-7.08,5.61a2.29,2.29,0,0,0-.6,2.95,12.88,12.88,0,0,0,2.07,3,1.29,1.29,0,0,1,0,1.47c-1.47,2.37-5.61,8.86-7.09,8.57-4.43-.59-10-4.43-14.76-10ZM170,26c3.84-3,10.93,0,17.43,6.5L170.92,44.62c-4.14-8-4.73-15.65-.89-18.61Z"/><path class="cls-1" d="M167.67,12.43a.29.29,0,0,0,.29.3c.3-.3.6-.3.89-.6s0-.59,0-.88a5.56,5.56,0,0,1,0-2.36h.3c8,2.06,15.06,3.84,21.85,5.31h0c.3.3.59.3,1.18.3a1.08,1.08,0,0,0,.89-.3c.88,0,2.06-.59,2.66-3.25.29-2.36-.3-5.61-3-7.08h-1.18a1.09,1.09,0,0,0-.29.88c0,.59-.3.89-.6.89v.29C186,4.75,176.82,2.09,171.21.32a6.33,6.33,0,0,0-4.72.3,5.47,5.47,0,0,0-2.07,3.54c-.59,5.61,1.77,8,3.25,8.27Z"/></g></g></svg>