<svg width="24" height="42" viewBox="0 0 24 42" fill="none" xmlns="http://www.w3.org/2000/svg">
<path d="M16.2446 6.33374V26.3742H17.6556V11.258C17.6556 11.258 21.2535 16.4315 21.7474 19.1735C21.8628 20.0117 21.7896 20.8651 21.5333 21.6714C21.277 22.4777 20.844 23.2167 20.2659 23.8344C19.9126 24.1515 19.597 24.5081 19.3252 24.8973C19.0929 25.3535 18.9858 25.8631 19.0148 26.3742V28.5706C19.0148 28.5706 19.1653 29.4783 18.4081 29.4783H14.5374V3.6435L13.9306 2.73108L13.0229 4.05739V29.4218L5.63417 29.4971C5.52526 29.5011 5.41694 29.4794 5.31804 29.4336C5.21914 29.3879 5.13246 29.3194 5.06508 29.2337C5.01759 29.1387 4.99188 29.0342 4.98982 28.928V28.2272H3.4942V28.8339C3.56945 30.4283 4.59475 30.8798 5.27672 30.9175C6.5654 30.9927 18.8361 30.9175 18.8361 30.9175C19.2618 30.8894 19.6616 30.7029 19.9567 30.3947C20.2518 30.0866 20.4208 29.6791 20.4305 29.2525V26.0684C20.4538 25.9158 20.5189 25.7725 20.6186 25.6546C21.3813 24.9031 22.0166 24.0326 22.4999 23.0772C23.1066 21.6662 23.9109 20.1612 22.5375 16.8642C21.1642 13.5673 18.2529 9.198 16.2446 6.33374Z" fill="#62411E"/>
<path d="M10.9395 7.20374L9.46265 9.47539V26.4117H10.9395V7.20374Z" fill="#62411E"/>
<path d="M12.8348 1.20264L12.3645 0.901633C12.2708 0.825355 12.1618 0.770236 12.0449 0.740059C11.928 0.709882 11.8059 0.705361 11.687 0.726807C11.5682 0.748253 11.4554 0.795158 11.3564 0.864303C11.2574 0.933448 11.1745 1.0232 11.1134 1.12739L6.35376 8.29979V24.7611H4.61357C3.80081 24.1778 3.15102 23.3961 2.72618 22.4904C2.30134 21.5848 2.11561 20.5853 2.18671 19.5875C2.60633 17.3059 3.57483 15.1607 5.00864 13.3369V10.515C5.00864 10.515 1.20373 15.9566 0.898025 18.7221C0.634645 21.4265 1.09086 23.7781 3.96452 26.1297C4.06034 26.2204 4.17343 26.2908 4.29706 26.3369C4.42068 26.383 4.55232 26.4037 4.68411 26.3978H7.78824L7.83057 8.72779L12.8348 1.20264Z" fill="#62411E"/>
<path d="M0.7099 33.5325H2.37954L2.18671 33.8382V35.5784L3.51302 35.315V33.9134L3.36251 33.5325H4.91458L4.72645 33.9511V37.549L4.91458 38.0052H3.32489L3.51302 37.5114V36.1098L2.18671 36.3356V37.4738L2.33721 38.0052H0.785151L0.935654 37.7748V33.9511L0.7099 33.5325Z" fill="#62411E"/>
<path d="M7.22861 36.4108L7.793 34.9717L8.26332 36.298L7.22861 36.4108ZM10.2575 38.0052L10.1446 37.8124L8.39971 33.5325H6.9229L7.11103 33.9134L5.44609 37.8124L5.22034 38.0052H6.9229L6.81002 37.8124L6.99815 37.2057L8.59254 37.0552L8.78067 37.7748L8.63017 38.0052H10.2575Z" fill="#62411E"/>
<path d="M16.2447 36.4108L16.809 34.9717L17.2794 36.298L16.2447 36.4108ZM19.2735 38.0052L19.1607 37.8124L17.4158 33.5325H15.9013L16.0895 33.9134L14.4245 37.8124L14.2364 38.0052H15.939L15.7885 37.8124L15.9766 37.2057L17.571 37.0552L17.7591 37.7748L17.6462 38.0052H19.2735Z" fill="#62411E"/>
<path d="M10.5584 33.5325H12.1528L11.9223 33.9887V37.0928H13.4791L14.1187 36.7918L13.8554 38.0052H10.5584L10.8265 37.6995V33.9511L10.5584 33.5325Z" fill="#62411E"/>
<path d="M19.7673 33.5325H21.357L21.1313 33.9887V37.0928H22.6833L23.3277 36.7918L23.0596 38.0052H19.7673L19.9931 37.6995V33.9511L19.7673 33.5325Z" fill="#62411E"/>
<path d="M1.20377 39.4067H0.672302V41.2269H1.20377V39.4067Z" fill="#62411E"/>
<path d="M2.45477 41.2222V39.4067H2.86866L3.85633 40.6155H3.6635V39.4067H4.15734V41.2222H3.74345L2.75578 40.0135H2.94391V41.2222H2.45477Z" fill="#62411E"/>
<path d="M5.90227 40.8083H6.2409C6.33044 40.8171 6.42079 40.8042 6.50428 40.7707C6.58619 40.7269 6.65329 40.6598 6.69711 40.5779C6.74419 40.4979 6.77009 40.4073 6.77236 40.3145C6.76497 40.2226 6.73939 40.133 6.69711 40.0511C6.65369 39.9778 6.58519 39.9226 6.50428 39.8959C6.42431 39.8488 6.33366 39.8229 6.2409 39.8206H5.90227V40.8083ZM5.43195 41.2222V39.4068H6.26442C6.44817 39.4 6.63075 39.4388 6.79588 39.5196C6.95376 39.5902 7.0854 39.7087 7.17214 39.8583C7.26024 39.9986 7.30142 40.1633 7.28972 40.3286C7.28887 40.4925 7.24854 40.6539 7.17214 40.7989C7.0831 40.9378 6.9509 41.0435 6.79588 41.0999C6.63075 41.1808 6.44817 41.2196 6.26442 41.2128L5.43195 41.2222Z" fill="#62411E"/>
<path d="M9.34976 40.846C9.41479 40.8518 9.48012 40.8387 9.53789 40.8083C9.57552 40.7707 9.65077 40.7707 9.6884 40.6907C9.7349 40.6479 9.77316 40.5969 9.80127 40.5402C9.80127 40.465 9.8389 40.3897 9.8389 40.3145C9.83007 40.2511 9.8175 40.1883 9.80127 40.1264C9.76365 40.0511 9.72602 40.0088 9.6884 39.9335C9.64688 39.894 9.59445 39.8678 9.53789 39.8583C9.48012 39.8279 9.41479 39.8148 9.34976 39.8206C9.28307 39.8105 9.21492 39.8238 9.15693 39.8583C9.12785 39.859 9.09928 39.8661 9.07327 39.8791C9.04725 39.8921 9.02443 39.9107 9.00643 39.9335C8.93118 40.0088 8.89355 40.0511 8.89355 40.1264C8.85942 40.1827 8.84611 40.2493 8.85593 40.3145C8.84969 40.3917 8.86261 40.4692 8.89355 40.5402C8.89355 40.6155 8.93118 40.6531 9.00643 40.6907C9.08168 40.7284 9.08168 40.7707 9.15693 40.8083C9.21492 40.8428 9.28307 40.8561 9.34976 40.846ZM9.34976 41.2598C9.2059 41.2755 9.06057 41.2494 8.93118 41.1846C8.81829 41.1447 8.71553 41.0804 8.63017 40.9965C8.52008 40.9245 8.43857 40.8164 8.39971 40.6907C8.35307 40.5706 8.32761 40.4433 8.32446 40.3145C8.33187 40.1846 8.35719 40.0564 8.39971 39.9335C8.44181 39.8205 8.52378 39.7269 8.63017 39.6701C8.71364 39.5747 8.81618 39.4978 8.93118 39.4444C9.06589 39.3975 9.20715 39.3721 9.34976 39.3691C9.47859 39.3723 9.6059 39.3977 9.72602 39.4444C9.85312 39.4984 9.96943 39.5749 10.0694 39.6701C10.1526 39.7413 10.2172 39.8317 10.2575 39.9335C10.318 40.0509 10.344 40.1829 10.3327 40.3145C10.348 40.4447 10.3217 40.5764 10.2575 40.6907C10.2188 40.8056 10.1544 40.9101 10.0694 40.9965C9.96767 41.0801 9.85122 41.1439 9.72602 41.1846C9.61169 41.2488 9.47998 41.2751 9.34976 41.2598Z" fill="#62411E"/>
<path d="M11.5085 41.2222V39.4067H11.9224L12.9101 40.6155H12.7173V39.4067H13.2111V41.2222H12.7972L11.8096 40.0135H12.0024V41.2222H11.5085Z" fill="#62411E"/>
<path d="M14.9183 40.1263H15.7884V40.5026H14.9183V40.1263ZM14.9559 40.8459H15.8966V41.2222H14.4621V39.4067H15.9013V39.8206H14.9606L14.9559 40.8459Z" fill="#62411E"/>
<path d="M17.7215 41.2599C17.5809 41.2679 17.4399 41.2552 17.3029 41.2223C17.1787 41.203 17.0619 41.1511 16.9643 41.0718L17.1336 40.7097C17.2305 40.7572 17.3312 40.7966 17.4346 40.8272C17.5314 40.8698 17.6348 40.8953 17.7403 40.9025C17.8054 40.9083 17.8707 40.8953 17.9285 40.8649C17.957 40.8609 17.9834 40.8477 18.0037 40.8272C18.0413 40.7896 18.0413 40.7896 18.0413 40.752C18.0413 40.7144 18.0037 40.672 17.9661 40.6344C17.9285 40.5968 17.8908 40.5968 17.8156 40.5968C17.7403 40.5968 17.7027 40.5592 17.6274 40.5215C17.5522 40.4839 17.4722 40.4839 17.397 40.4839C17.3217 40.4839 17.2841 40.4086 17.2089 40.371C17.1415 40.3416 17.0878 40.2879 17.0584 40.2205C17.0207 40.1829 17.0207 40.1076 17.0207 39.9901C17.011 39.8841 17.0376 39.778 17.096 39.6891C17.1672 39.6058 17.2576 39.5413 17.3594 39.5009C17.5012 39.4168 17.6651 39.3774 17.8297 39.3881C17.9458 39.3951 18.0601 39.4205 18.1683 39.4633C18.281 39.4596 18.3907 39.5001 18.474 39.5762L18.3235 39.9524C18.2447 39.8935 18.1527 39.8547 18.0554 39.8396C17.9844 39.8086 17.9069 39.7957 17.8297 39.8019C17.7645 39.7921 17.6979 39.8054 17.6416 39.8396C17.6039 39.8396 17.5616 39.8396 17.5616 39.8772C17.5616 39.9148 17.524 39.9148 17.524 39.9524C17.524 39.9901 17.5616 40.0277 17.6039 40.07C17.6463 40.1123 17.6792 40.1076 17.7168 40.1076C17.7544 40.1076 17.8673 40.1453 17.9426 40.1829C18.0198 40.1767 18.0973 40.1896 18.1683 40.2205C18.2401 40.2437 18.3059 40.2822 18.3612 40.3334C18.3988 40.371 18.474 40.4086 18.5117 40.4839C18.5493 40.5592 18.5493 40.5968 18.5493 40.7097C18.5478 40.804 18.5219 40.8964 18.474 40.9777C18.4149 41.083 18.3197 41.1632 18.2059 41.2035C18.0602 41.2749 17.8964 41.3011 17.7356 41.2787L17.7215 41.2599Z" fill="#62411E"/>
<path d="M20.1484 39.4067H19.6545V41.2269H20.1484V39.4067Z" fill="#62411E"/>
<path d="M21.6205 40.8835L21.738 40.5026H22.6458L22.7586 40.8835H21.6205ZM21.1501 41.2222L21.945 39.4067H22.4953L23.2901 41.2222H22.7775L22.1331 39.6701H22.3589L21.7192 41.2222H21.1501Z" fill="#62411E"/>
</svg>
