<svg xmlns="http://www.w3.org/2000/svg" viewBox="0 0 628.59 208.06"><defs><style>.cls-1{fill:#fff;fill-rule:evenodd;}</style></defs><g id="Layer_2" data-name="Layer 2"><g id="Layer_1-2" data-name="Layer 1"><polygon class="cls-1" points="95.53 16.11 102.6 33.84 120.33 40.91 102.6 47.98 95.53 65.72 88.46 47.98 70.73 40.91 88.46 33.84 95.53 16.11"/><polygon class="cls-1" points="78.93 174.82 83.66 186.7 95.55 191.44 83.66 196.18 78.93 208.06 74.19 196.18 62.3 191.44 74.19 186.7 78.93 174.82"/><polygon class="cls-1" points="603.66 63.82 610.77 81.64 628.59 88.75 610.77 95.86 603.66 113.69 596.55 95.86 578.73 88.75 596.55 81.64 603.66 63.82"/><polygon class="cls-1" points="572.89 0 577.62 11.88 589.51 16.62 577.62 21.36 572.89 33.24 568.15 21.36 556.26 16.62 568.15 11.88 572.89 0"/><polygon class="cls-1" points="16.62 79.46 21.36 91.34 33.24 96.08 21.36 100.82 16.62 112.7 11.88 100.82 0 96.08 11.88 91.34 16.62 79.46"/></g></g></svg>