<svg xmlns="http://www.w3.org/2000/svg" viewBox="0 0 360.5 92.2"><defs><style>.cls-1{fill:#e85e04;}</style></defs><g id="Layer_2" data-name="Layer 2"><g id="Layer_1-2" data-name="Layer 1"><path class="cls-1" d="M11.82,92.2C5,90.84-26,82.07,60.84,76.46S314.59,79.39,316.23,80s-4.17,1.94-10.8,1.75-109.78-5-181.27-3.11S10.8,85.8,21.35,88.9,11.82,92.2,11.82,92.2Z"/><path class="cls-1" d="M48.05,13.19a91.88,91.88,0,0,0-12.4,8.55A144.19,144.19,0,0,0,24.41,32q-5.31,5.4-9.93,11.09T6,54.16a10.21,10.21,0,0,0-1.2,2.12,14.85,14.85,0,0,1-1,2c-.31.57-.68.75-1.12.54a3.32,3.32,0,0,1-1.27-1.27,10.16,10.16,0,0,1-1-2.27A8.1,8.1,0,0,1,0,52.77,100,100,0,0,1,1.35,39.72q1-6,2.58-11.55T7.39,17.08C8.68,13.41,10,9.5,11.32,5.34c.26-.82.64-1.31,1.16-1.46A2.3,2.3,0,0,1,14.13,4,6.46,6.46,0,0,1,15.94,5.3a10.83,10.83,0,0,1,1.62,2,9.27,9.27,0,0,1,1,2.16,3.78,3.78,0,0,1,.19,1.85,42.47,42.47,0,0,1-2.08,6.08l-3,7.12Q12,28.52,10.09,34t-4,13.29Q10,42.84,14.79,37.14T25.22,25.82A124.27,124.27,0,0,1,37.43,15.2,64,64,0,0,1,51.44,7a2.09,2.09,0,0,1,2.16.12,12,12,0,0,1,1.85,1.5,3,3,0,0,1,1.11,2.58,7,7,0,0,1-.65,2.58A101.26,101.26,0,0,0,50,25.21q-2.75,6.15-4.93,12.63T41.28,50.7q-1.62,6.39-2.47,12c-.1.82-.18,1.55-.23,2.19s-.08,1.45-.08,2.43c0,.67-.23,1-.69,1a1.22,1.22,0,0,1-.92-.58,5,5,0,0,1-.77-1.34,23.76,23.76,0,0,1-1.43-7.82,54.28,54.28,0,0,1,.54-9.05,74.06,74.06,0,0,1,2-9.63q1.4-4.92,3.12-9.7t3.74-9.12C45.46,18.19,46.77,15.55,48.05,13.19Z"/><path class="cls-1" d="M47.44,51.85a20.78,20.78,0,0,1,.61-6.08A22.25,22.25,0,0,1,50.36,40a13.84,13.84,0,0,1,3.89-4.35,9.57,9.57,0,0,1,5.51-1.77,4.15,4.15,0,0,1,2.5,1.62,3.59,3.59,0,0,1,.5,3,11.75,11.75,0,0,1-.88,2.89,8.87,8.87,0,0,1-2,2.5q-.69.61-1.92,1.62c-.83.67-1.62,1.36-2.39,2.08a17.41,17.41,0,0,0-2,2.19,3.39,3.39,0,0,0-.85,1.89c-.15,1.34,0,2.19.62,2.58a3.29,3.29,0,0,0,2.19.46,8.54,8.54,0,0,0,2.73-.73c.93-.41,1.67-.77,2.24-1.08.66-.46,1.41-1,2.23-1.73s1.64-1.43,2.46-2.2l2.39-2.23c.77-.72,1.41-1.31,1.93-1.77s.78-.8,1.11-1.16a5.3,5.3,0,0,1,1.2-.92,2.27,2.27,0,0,1,1-.08c.23.06.19.44-.12,1.16a13.49,13.49,0,0,1-1.5,2.46c-.59.77-1.22,1.54-1.88,2.31q-1.4,1.55-3,3.24A33.45,33.45,0,0,1,63,55.05a23.11,23.11,0,0,1-3.62,2.46,11.87,11.87,0,0,1-3.89,1.35,8.5,8.5,0,0,1-5.81-1.46C48.19,56.27,47.44,54.42,47.44,51.85ZM59.76,37.37a8.69,8.69,0,0,0-3.28,2A7.48,7.48,0,0,0,54.75,43a30.51,30.51,0,0,0,3-2.5A7.34,7.34,0,0,0,59.76,37.37Z"/><path class="cls-1" d="M105.35,43.57a8.94,8.94,0,0,1-3.09.16,11.52,11.52,0,0,1-3-.81,9.75,9.75,0,0,1-2.62-1.62q-.69,2.23-1.58,4.85a38.51,38.51,0,0,1-2,4.93,19.63,19.63,0,0,1-2.69,4.08,7.15,7.15,0,0,1-3.54,2.31,1.71,1.71,0,0,1-1.16.08A5,5,0,0,1,84.21,57a8.22,8.22,0,0,1-1.35-1,6.15,6.15,0,0,1-1-1.08,4.64,4.64,0,0,1-.81-2,13.5,13.5,0,0,1-.19-2.31A17.24,17.24,0,0,1,81,48.35a15.06,15.06,0,0,0,.15-2c-.3.47-.79,1.3-1.46,2.51s-1.4,2.43-2.19,3.69a28.15,28.15,0,0,1-2.43,3.31c-.82,1-1.49,1.4-2,1.35a5.09,5.09,0,0,1-2.35-.88,4.27,4.27,0,0,1-1.5-1.81A8.22,8.22,0,0,1,69,50.93a42.24,42.24,0,0,1,.81-5.16c.38-1.8.78-3.49,1.19-5.09s.72-2.77.92-3.54c0-.46.27-.66.81-.61a4,4,0,0,1,1.73.65A4.9,4.9,0,0,1,76,38.8a3.21,3.21,0,0,1,.43,2.35c-.26,1.23-.5,2.36-.73,3.38s-.49,2-.77,3-.6,1.94-.93,3-.71,2.16-1.12,3.39c.16.31.57,0,1.24-.88a39.41,39.41,0,0,0,2.15-3.31q1.16-2,2.24-4c.71-1.38,1.25-2.38,1.61-3a2.8,2.8,0,0,0,.62-1.46,4.26,4.26,0,0,1,.46-1.54A1.18,1.18,0,0,1,82.4,39a3.36,3.36,0,0,1,1.38.5,6.06,6.06,0,0,1,1.2.93,3.84,3.84,0,0,1,.57.65,4.7,4.7,0,0,1,.24,2.66q-.24,1.73-.54,3.69c-.21,1.31-.38,2.6-.5,3.85a5,5,0,0,0,.42,3,1.3,1.3,0,0,0,.62.19c.25,0,.51-.17.77-.58a37.64,37.64,0,0,0,2.11-4.62q1.13-2.85,2-6t1.54-6.08a25.23,25.23,0,0,0,.62-5A1.13,1.13,0,0,1,93.6,31a2.09,2.09,0,0,1,1.58.19,5.42,5.42,0,0,1,1.58,1.27,3,3,0,0,1,.73,2,6.21,6.21,0,0,0,1,3.69,7.07,7.07,0,0,0,2.66,2.28,10.19,10.19,0,0,0,3.5,1,12.48,12.48,0,0,0,3.58-.12c.31,0,.49,0,.54,0s0,.19,0,.35a2.66,2.66,0,0,1-.5.61A8.57,8.57,0,0,1,105.35,43.57Z"/><path class="cls-1" d="M121.75,26.36a16.3,16.3,0,0,1,1.92-7.62,20.83,20.83,0,0,1,4.89-6,30.83,30.83,0,0,1,6.93-4.39,49.63,49.63,0,0,1,8-2.93,65,65,0,0,1,8.24-1.65,57.3,57.3,0,0,1,7.47-.54,53.28,53.28,0,0,1,7.39.54A46.31,46.31,0,0,1,174,5.45a31.29,31.29,0,0,1,6.58,2.93,17,17,0,0,1,5,4.39,13.76,13.76,0,0,1,2.5,6,17.44,17.44,0,0,1-.73,7.81,19.71,19.71,0,0,1-4.47,7.55A33.55,33.55,0,0,1,175.58,40a46.26,46.26,0,0,1-8.9,4.12,45.25,45.25,0,0,1-9.24,2.16,33.44,33.44,0,0,1-8.36,0,13.13,13.13,0,0,1-6.16-2.19q-.91,2-1.92,4.08t-2,4.51q-1,2.41-1.93,5.27c-.64,1.9-1.25,4-1.81,6.32-.1.3-.21.62-.31,1a2.78,2.78,0,0,1-.38.81.6.6,0,0,1-.54.27c-.21,0-.41-.27-.62-.73a12.1,12.1,0,0,1-1.23-5.16,34.32,34.32,0,0,1,.35-6.63,45.12,45.12,0,0,1,1.5-6.77,36,36,0,0,1,2.23-5.78,3.77,3.77,0,0,0,.46-.92.74.74,0,0,0-.3-.85,12,12,0,0,1-5.4-.77,14.63,14.63,0,0,1-4.54-2.85,15.35,15.35,0,0,1-3.27-4.35A13.91,13.91,0,0,1,121.75,26.36Zm52.82,4.24a24.46,24.46,0,0,0,5.78-6.74,9.56,9.56,0,0,0,1.27-5.66,7.62,7.62,0,0,0-2.35-4.51,16.39,16.39,0,0,0-5-3.27,26.85,26.85,0,0,0-6.7-1.89,39.25,39.25,0,0,0-7.5-.42,56.1,56.1,0,0,0-9.82,1.35,42.78,42.78,0,0,0-9.09,3.08,25,25,0,0,0-7,4.85,12.5,12.5,0,0,0-3.58,6.66,10.15,10.15,0,0,0,1,6.55,14.54,14.54,0,0,0,6.2,5.85c1.28-3,2.34-5.35,3.16-7.12l1.92-4.16c.47-1,.81-1.73,1-2.2s.45-.87.66-1.23a1.68,1.68,0,0,1,2-.69A5.26,5.26,0,0,1,149,22.4a7.12,7.12,0,0,1,1.73,2.54,3.52,3.52,0,0,1,0,2.88c-.56,1.24-1.1,2.35-1.62,3.35s-1,2-1.46,2.93-1,1.93-1.46,2.93-1,2.11-1.62,3.35a55.61,55.61,0,0,0,7.12-.7,64.85,64.85,0,0,0,8.21-1.81,52.19,52.19,0,0,0,8-3A29.22,29.22,0,0,0,174.57,30.6Z"/><path class="cls-1" d="M206.07,36.6a17.22,17.22,0,0,0-5.39,3.89A47.31,47.31,0,0,0,196,46.23c-1.46,2.1-2.89,4.29-4.27,6.54s-2.78,4.37-4.16,6.32a1.24,1.24,0,0,1-1.47.38,1.62,1.62,0,0,1-1.07-1.19,3,3,0,0,1,.15-1.89c.36-1.23.71-2.61,1-4.15s.65-3.16,1-4.86.63-3.38,1-5.08.68-3.31,1-4.85a1.49,1.49,0,0,1,.73-1,2.78,2.78,0,0,1,1.27-.39,2.28,2.28,0,0,1,1.23.27,1.42,1.42,0,0,1,.69.93,8.81,8.81,0,0,1-.19,3.69c-.33,1.44-.71,2.85-1.12,4.24q1.4-1.69,3-4A37.71,37.71,0,0,1,198.48,37a20.44,20.44,0,0,1,4.16-3.24,7.6,7.6,0,0,1,4.58-1,4,4,0,0,1,2,1.27,6.38,6.38,0,0,1,1.12,2,7.84,7.84,0,0,1,.42,2.19,6,6,0,0,1-.19,1.85c-.36.72-.79,1.5-1.27,2.35A12.86,12.86,0,0,0,208.11,45a7,7,0,0,0-.35,2.58A3.25,3.25,0,0,0,209,49.85c.3.41.28.72-.08.92a3.23,3.23,0,0,1-1.46.35,6.44,6.44,0,0,1-1.85-.19,2.42,2.42,0,0,1-1.31-.7,7.92,7.92,0,0,1-1.5-3.42,9.44,9.44,0,0,1,.11-3.51,15.07,15.07,0,0,1,1.23-3.46A26.37,26.37,0,0,1,206.07,36.6Z"/><path class="cls-1" d="M230.71,43.53a7.72,7.72,0,0,0,2-.46c.72-.25,1.39-.46,2-.61s1.47-.45,2.27-.74a17.58,17.58,0,0,1,2.27-.65c.51,0,.72.14.62.42a3,3,0,0,1-.74,1,10.51,10.51,0,0,1-1.31,1.12c-.48.36-.86.62-1.11.77a21.2,21.2,0,0,1-3.66,1.31A16.1,16.1,0,0,0,229.63,47q-.69,1.23-1.92,3.27a38.47,38.47,0,0,1-2.74,4,21.75,21.75,0,0,1-3.15,3.31,5.11,5.11,0,0,1-3.2,1.39,5.66,5.66,0,0,1-3.69-1.24,4.6,4.6,0,0,1-1.74-2.38,13,13,0,0,1-.69-3.51,19.65,19.65,0,0,1,.11-3.69,25.46,25.46,0,0,1,.54-3,1.77,1.77,0,0,1,.23-.73,1,1,0,0,1,.31-.27L214,44a.84.84,0,0,0,.35-.31l.46-1.77a6.07,6.07,0,0,1,.69-1.7A18.71,18.71,0,0,1,218.89,36a8,8,0,0,1,4.74-2.27,6.25,6.25,0,0,1,3.12.15,5.41,5.41,0,0,1,2.5,1.77,6,6,0,0,1,1.31,2.2,9.85,9.85,0,0,1,.46,2.31,9,9,0,0,1-.08,2C230.84,42.76,230.76,43.23,230.71,43.53ZM219.47,56.16a3.66,3.66,0,0,0,1.73-1.11,17.89,17.89,0,0,0,1.85-2.2,20.06,20.06,0,0,0,1.54-2.5,12.39,12.39,0,0,0,.89-2.12c-1,.1-2.14.16-3.32.16a17.31,17.31,0,0,1-3.31-.31,7.56,7.56,0,0,0-.31,1.81,17.8,17.8,0,0,0,0,2.31,16.13,16.13,0,0,0,.31,2.27A5.36,5.36,0,0,0,219.47,56.16Zm6.85-11.86a.45.45,0,0,0,.31-.15.43.43,0,0,0,.15-.31,7.72,7.72,0,0,0,.58-3.23,4,4,0,0,0-1.11-2.85,2,2,0,0,0-1.39-.69,2.92,2.92,0,0,0-1.62.3,8.42,8.42,0,0,0-2.46,2.16c-.62.82-1.21,1.67-1.77,2.54a.76.76,0,0,0,.15.54,1.82,1.82,0,0,1,.69,1.54c0,.26.3.41.89.46a16,16,0,0,0,2,0,18.85,18.85,0,0,0,2.16-.19A12.59,12.59,0,0,1,226.32,44.3Z"/><path class="cls-1" d="M253.12,37.37a.32.32,0,0,1,.08-.23s0-.07.07-.07c1.6-3.39,3.17-6.67,4.74-9.82s3.16-6.2,4.78-9.13,3.31-5.75,5.08-8.47,3.66-5.36,5.66-7.93c1.13-1.28,2-1.85,2.73-1.7A2.24,2.24,0,0,1,277.8,1.6a10.56,10.56,0,0,1,.58,3.2,18.3,18.3,0,0,1-.08,3,65.24,65.24,0,0,1-3.12,9.55c-1.31,3.19-2.78,6.35-4.42,9.51s-3.42,6.3-5.32,9.44-3.82,6.26-5.77,9.39a3.47,3.47,0,0,0-.58,1,9.27,9.27,0,0,0-.35,1.12c-.1.46-.22,1.12-.34,2a22.47,22.47,0,0,0-.24,2.66,11.33,11.33,0,0,0,.2,2.54,1.91,1.91,0,0,0,.84,1.46,3.49,3.49,0,0,0,2.7-.19,18.73,18.73,0,0,0,3.77-2,44.49,44.49,0,0,0,4.05-3,39.39,39.39,0,0,0,3.5-3.23c.1-.1.26-.09.46,0a1.37,1.37,0,0,1,.5.58,1.67,1.67,0,0,1,.16.88,1.43,1.43,0,0,1-.58,1Q272,52,269.41,54.35A57,57,0,0,1,264,58.7a25.41,25.41,0,0,1-5.51,3,5.46,5.46,0,0,1-4.62,0,5.14,5.14,0,0,1-2.5-3,14.43,14.43,0,0,1-.81-4.47,32.87,32.87,0,0,1,.19-4.77c.18-1.57.35-2.81.5-3.74a1.59,1.59,0,0,0-.27.43,2.42,2.42,0,0,1-.27.5c-.72.82-1.54,1.81-2.46,3a25.57,25.57,0,0,1-3,3.2,12.66,12.66,0,0,1-3.51,2.23,5,5,0,0,1-3.77.08,7.72,7.72,0,0,1-1.89-1.5,3.36,3.36,0,0,1-.81-2.35,16.24,16.24,0,0,1,1.12-5.78,17.87,17.87,0,0,1,3-5.19A14.6,14.6,0,0,1,244,36.8a10.33,10.33,0,0,1,5.62-1.12,15,15,0,0,1,1.73.42,3.18,3.18,0,0,1,1.5,1ZM241,49l.15.23c1.75-1.38,3.51-2.76,5.28-4.12s3.61-2.7,5.51-4a4.7,4.7,0,0,0-3.51-.19,10.23,10.23,0,0,0-3.54,1.92,13,13,0,0,0-2.77,3.08A5.91,5.91,0,0,0,241,49Zm34.58-38.43A136.78,136.78,0,0,0,267,25.9a146.59,146.59,0,0,0-6.62,16.25q1.77-3.24,4.2-7.39t4.73-8.51q2.31-4.35,4.08-8.48A30,30,0,0,0,275.61,10.57Z"/><path class="cls-1" d="M306.41,43.61h.08v.62a15.62,15.62,0,0,1-2.39,5,24.87,24.87,0,0,0-1.5,2.2A22.87,22.87,0,0,1,301,53.7q-1.62,1.77-3,3.12a15.74,15.74,0,0,1-3.43,2.42,13.55,13.55,0,0,1-2,.81,7.57,7.57,0,0,1-2.23.35,5.78,5.78,0,0,1-2.12-.39,3.68,3.68,0,0,1-1.7-1.38A6.22,6.22,0,0,1,285.12,55a10.44,10.44,0,0,1,.73-4.35l-.46.46-.7.69-.73.74a2.47,2.47,0,0,1-.5.42,19.61,19.61,0,0,1-2.31,2,16.11,16.11,0,0,1-2.39,1.46,5.53,5.53,0,0,1-1.73.54,2.23,2.23,0,0,1-1.35-.27,4.31,4.31,0,0,1-1.19-1c-.39-.46-.81-1-1.27-1.61a11.49,11.49,0,0,1-1.5-2.74,5.17,5.17,0,0,1-.2-2.88,10.65,10.65,0,0,0,.27-1.08,4.37,4.37,0,0,1,.35-1c.31-.88.68-1.88,1.12-3s.88-2.26,1.35-3.39.91-2.19,1.34-3.19.81-1.81,1.12-2.43q.54-1.38,1.62-1.38a2.78,2.78,0,0,1,2,.84A5.43,5.43,0,0,1,282,36a3.29,3.29,0,0,1-.23,2.69c-.26.62-.65,1.49-1.16,2.62L279,44.8c-.54,1.21-1,2.35-1.42,3.43a10.6,10.6,0,0,0-.69,2.39c0,1.13.21,1.72.65,1.77a2.68,2.68,0,0,0,1.77-.85A18.34,18.34,0,0,0,281.81,49c.89-1.1,1.81-2.27,2.73-3.5s1.78-2.43,2.58-3.58,1.47-2.09,2-2.81c.72-1.29,1.32-2.43,1.81-3.43a11.24,11.24,0,0,1,2.19-3,2.47,2.47,0,0,1,1.85.11,5.68,5.68,0,0,1,1.93,1.27A4.91,4.91,0,0,1,298.13,36a1.93,1.93,0,0,1-.19,1.81c-.93,1.18-1.76,2.18-2.5,3a14.58,14.58,0,0,0-2.12,3.16q-.54,1.23-1.23,2.73c-.47,1-.89,2-1.27,3.08a25.41,25.41,0,0,0-.93,3.08,7.6,7.6,0,0,0-.19,2.66c0,.87.43,1.23,1.31,1.08a9.84,9.84,0,0,0,4.08-2,41.72,41.72,0,0,0,4.39-3.77q2.16-2.12,4-4.16C304.72,45.29,305.69,44.28,306.41,43.61Z"/><path class="cls-1" d="M326.2,43.46c.56-.26.91-.25,1,0a1.16,1.16,0,0,1-.12,1,7.27,7.27,0,0,1-1.15,1.7,14.3,14.3,0,0,1-1.54,1.46c-1.18,1.08-2.17,2-3,2.66s-1.46,1.24-2,1.65-1,.75-1.35,1l-1,.69c-1.18.72-2.35,1.41-3.5,2.08a15.74,15.74,0,0,1-3.27,1.46,8.22,8.22,0,0,1-4.66,0,5.55,5.55,0,0,1-3.43-2.73A9.79,9.79,0,0,1,301.17,49a17.22,17.22,0,0,1,1.58-6,15.6,15.6,0,0,1,3.58-4.93,7.88,7.88,0,0,1,4.93-2.19,2.24,2.24,0,0,1,1.73.5,2.82,2.82,0,0,1,1.12,1.5,3.15,3.15,0,0,1,.08,1.54c-.11.57-.25,1.2-.43,1.89s-.37,1.45-.57,2.27-.39,1.67-.54,2.54c-.11.31-.25.48-.43.5s-.34-.09-.5-.34a6.75,6.75,0,0,1-1-2.51c-.13-.79-.27-1.55-.42-2.27-.31,0-.71.3-1.19.89a12.78,12.78,0,0,0-1.43,2.19,15.91,15.91,0,0,0-1.15,2.81,9.16,9.16,0,0,0-.47,2.66,4.53,4.53,0,0,0,.47,2.31,1.79,1.79,0,0,0,1.15.92,3.49,3.49,0,0,0,1.62-.07,9.32,9.32,0,0,0,1.85-.7q4.08-1.92,7.85-4.12A58.37,58.37,0,0,0,326.2,43.46Z"/><path class="cls-1" d="M327.35,64.56a1.27,1.27,0,0,0,1.89.92,10.87,10.87,0,0,0,3.31-2.31,45.69,45.69,0,0,0,4-4.31c1.38-1.7,2.71-3.36,4-5s2.35-3.13,3.28-4.46,1.54-2.21,1.85-2.62a7.54,7.54,0,0,1,.88-1.16,11.64,11.64,0,0,1,1.27-1.15c.21-.16.45-.32.73-.5a1.12,1.12,0,0,1,.73-.23c.21,0,.3.19.27.5a5,5,0,0,1-.57,1.54c-.31.61-.8,1.55-1.47,2.81S346,51.25,345,52.81s-2.05,3.19-3.24,4.85a41.52,41.52,0,0,1-3.81,4.66,35.06,35.06,0,0,1-4.15,3.78,10.87,10.87,0,0,1-4.28,2.08,17.8,17.8,0,0,1-3.54.5,3.81,3.81,0,0,1-2.85-1.2,5,5,0,0,1-1.31-3.31,21.77,21.77,0,0,1,.19-4.58,39.09,39.09,0,0,1,1-4.7c.42-1.51.75-2.68,1-3.5q1.23-4,2.35-7.89c.74-2.6,1.47-5.2,2.19-7.82.77-2.31,1.48-4.69,2.12-7.12s1.29-4.64,2-6.59c-1,0-2.08-.09-3.16-.11l-3.23-.08c-1.08,0-2.14-.09-3.2-.19a17.68,17.68,0,0,1-3-.54,3.35,3.35,0,0,1-1.81-1,2,2,0,0,1-.54-1.39,1.54,1.54,0,0,1,.77-1.19,3.69,3.69,0,0,1,2.12-.5c.56,0,1.49.05,2.77.15s2.63.18,4,.23,2.72.07,3.93,0a8.07,8.07,0,0,0,2.35-.27c.15-.05.23-.13.23-.23.31-.92.64-1.9,1-2.93s.72-2,1.08-3,.7-1.9,1-2.77.63-1.62.88-2.24a1.09,1.09,0,0,1,1.28-.57,5.76,5.76,0,0,1,2,.65A7,7,0,0,1,343,7.38a2,2,0,0,1,.69,1.5,13.23,13.23,0,0,1-1.08,3.93,27.52,27.52,0,0,0-1.46,4.39l8.35-.12c2.34,0,4.61,0,6.82,0,.72,0,1.44,0,2.16,0a8.41,8.41,0,0,1,1.65.19c.39.11.48.25.27.43a6.92,6.92,0,0,1-2,.73,73.76,73.76,0,0,1-9.4,2.35c-3,.54-6,.94-8.93,1.19-.26.05-.37.11-.35.16s0,.2-.19.46a.21.21,0,0,1-.07.15.21.21,0,0,0-.08.16q-1.23,3.39-2.7,7.62c-1,2.82-1.95,5.72-2.92,8.7S331.85,45.13,331,48s-1.61,5.48-2.23,7.82-1.07,4.28-1.35,5.85S327.1,64.2,327.35,64.56Z"/></g></g></svg>