<svg xmlns="http://www.w3.org/2000/svg" viewBox="0 0 375.88 80.85"><defs><style>.cls-1{fill:#e85e04;}</style></defs><g id="Layer_2" data-name="Layer 2"><g id="Layer_1-2" data-name="Layer 1"><path class="cls-1" d="M0,21.56a12.22,12.22,0,0,1,1.78-6.29,17.77,17.77,0,0,1,4.51-4.92A28.74,28.74,0,0,1,12.7,6.74a48.26,48.26,0,0,1,7.44-2.42A64.74,64.74,0,0,1,27.75,3a58.64,58.64,0,0,1,6.9-.45A54.5,54.5,0,0,1,41.49,3a46.38,46.38,0,0,1,6.83,1.36A30,30,0,0,1,54.4,6.74,15.11,15.11,0,0,1,59,10.35a10.8,10.8,0,0,1,2.32,5,12.91,12.91,0,0,1-.68,6.45A15.75,15.75,0,0,1,56.5,28a30.78,30.78,0,0,1-6.76,4.86,45.46,45.46,0,0,1-8.22,3.39A44.54,44.54,0,0,1,33,38a35,35,0,0,1-7.72,0,13.26,13.26,0,0,1-5.7-1.82c-.56,1.11-1.16,2.23-1.77,3.37S16.56,42,16,43.31s-1.19,2.77-1.79,4.34S13,51,12.52,52.86c-.1.25-.19.51-.28.79a2.21,2.21,0,0,1-.36.67.57.57,0,0,1-.5.22c-.19,0-.37-.22-.57-.6a9.24,9.24,0,0,1-1.14-4.25A25.14,25.14,0,0,1,10,44.22a34.46,34.46,0,0,1,1.38-5.58,28.43,28.43,0,0,1,2.06-4.76,3,3,0,0,0,.44-.77c.09-.25,0-.48-.29-.7a12.13,12.13,0,0,1-5-.63,13.51,13.51,0,0,1-4.2-2.35,12.54,12.54,0,0,1-3-3.59A10.62,10.62,0,0,1,0,21.56Zm48.82,3.49a21,21,0,0,0,5.33-5.55,7.21,7.21,0,0,0,1.18-4.67,6.16,6.16,0,0,0-2.18-3.72,15.75,15.75,0,0,0-4.58-2.7,27.21,27.21,0,0,0-6.19-1.55,40.33,40.33,0,0,0-7-.35,59.43,59.43,0,0,0-9.06,1.11A43.3,43.3,0,0,0,18,10.16a23.32,23.32,0,0,0-6.48,4,10,10,0,0,0-3.31,5.49,7.56,7.56,0,0,0,1,5.4,12.8,12.8,0,0,0,5.73,4.82c1.18-2.45,2.16-4.4,2.92-5.87s1.35-2.6,1.77-3.43.75-1.43,1-1.8.41-.73.6-1a1.66,1.66,0,0,1,1.81-.57,5,5,0,0,1,2.21,1.11,5.79,5.79,0,0,1,1.61,2.09,2.63,2.63,0,0,1,0,2.38q-.78,1.53-1.5,2.76c-.48.83-.92,1.63-1.35,2.42s-.88,1.59-1.36,2.41-1,1.75-1.49,2.76a58.6,58.6,0,0,0,6.58-.57,68.64,68.64,0,0,0,7.59-1.49,54,54,0,0,0,7.4-2.48A27.2,27.2,0,0,0,48.82,25.05Z"/><path class="cls-1" d="M77.92,30a16.1,16.1,0,0,0-5,3.21,42.68,42.68,0,0,0-4.3,4.73c-1.35,1.74-2.66,3.54-3.95,5.39s-2.56,3.6-3.83,5.21a1.25,1.25,0,0,1-1.36.32,1.45,1.45,0,0,1-1-1,2.26,2.26,0,0,1,.15-1.56c.33-1,.65-2.16,1-3.43s.6-2.6.89-4,.57-2.79.89-4.19.62-2.73,1-4a1.24,1.24,0,0,1,.67-.79,2.76,2.76,0,0,1,1.17-.32,2.22,2.22,0,0,1,1.14.22,1.25,1.25,0,0,1,.65.76,6.55,6.55,0,0,1-.19,3c-.3,1.19-.65,2.35-1,3.5.85-.94,1.78-2,2.8-3.28a32.5,32.5,0,0,1,3.35-3.49,18.24,18.24,0,0,1,3.84-2.66A7.63,7.63,0,0,1,79,26.83a3.74,3.74,0,0,1,1.81,1.05,5.18,5.18,0,0,1,1,1.65,5.46,5.46,0,0,1,.39,1.81A4.14,4.14,0,0,1,82,32.86c-.32.59-.71,1.24-1.17,1.94a10.82,10.82,0,0,0-1.07,2.12,5,5,0,0,0-.31,2.13,2.54,2.54,0,0,0,1.14,1.87c.28.34.26.59-.08.77a3.39,3.39,0,0,1-1.34.28,6.65,6.65,0,0,1-1.72-.16,2.32,2.32,0,0,1-1.21-.57,6.2,6.2,0,0,1-1.39-2.82A7.06,7.06,0,0,1,75,35.53a11.39,11.39,0,0,1,1.14-2.86A21.37,21.37,0,0,1,77.92,30Z"/><path class="cls-1" d="M83.83,42.57a15.44,15.44,0,0,1,.56-5,17.14,17.14,0,0,1,2.14-4.79,11.74,11.74,0,0,1,3.6-3.59,9.59,9.59,0,0,1,5.09-1.46,3.83,3.83,0,0,1,2.3,1.33A2.68,2.68,0,0,1,98,31.53a9.2,9.2,0,0,1-.82,2.38A7.59,7.59,0,0,1,95.36,36c-.44.34-1,.78-1.78,1.33S92.09,38.43,91.37,39a14.48,14.48,0,0,0-1.85,1.81,2.64,2.64,0,0,0-.78,1.56c-.14,1.09,0,1.8.56,2.12a3.39,3.39,0,0,0,2,.38,8.47,8.47,0,0,0,2.52-.6c.86-.34,1.54-.64,2.06-.89S97.23,42.54,98,42s1.52-1.18,2.27-1.81l2.21-1.84c.72-.59,1.3-1.08,1.78-1.46s.73-.65,1-1a4.42,4.42,0,0,1,1.1-.77,2.42,2.42,0,0,1,.89-.06c.22,0,.19.36-.11,1a10.11,10.11,0,0,1-1.38,2c-.54.64-1.13,1.28-1.75,1.91-.84.85-1.76,1.74-2.74,2.66a27.57,27.57,0,0,1-3.05,2.58,22.65,22.65,0,0,1-3.35,2,11.76,11.76,0,0,1-3.59,1.11,8.61,8.61,0,0,1-5.38-1.2A5.1,5.1,0,0,1,83.83,42.57ZM95.22,30.64a8.12,8.12,0,0,0-3,1.65,6,6,0,0,0-1.6,3,27.28,27.28,0,0,0,2.81-2.06A6.15,6.15,0,0,0,95.22,30.64Z"/><path class="cls-1" d="M141.05,9.56a9.58,9.58,0,0,1-1.42.44c-.67.18-1.38.32-2.13.45a19.68,19.68,0,0,1-2.21.25,4.82,4.82,0,0,1-1.64-.12c-.38-.13-.51-.37-.39-.7a4.45,4.45,0,0,1,1.45-1.47q2.92-1.77,5.67-3.29a28.31,28.31,0,0,1,5.73-2.42,3.61,3.61,0,0,1,2.41.07,5,5,0,0,1,2,1.36,6.42,6.42,0,0,1,1.25,2.16,4.57,4.57,0,0,1,.2,2.38.8.8,0,0,1-.24.41,1.72,1.72,0,0,0-.32.41q-2.28,3.57-4.92,7.81c-1.75,2.84-3.47,5.79-5.19,8.86s-3.33,6.17-4.87,9.3a80.91,80.91,0,0,0-3.88,9.15l-.21,1c2.75-.47,5.74-.95,9-1.46a81.58,81.58,0,0,1,9.72-.95,46.71,46.71,0,0,1,9.39.54,20.5,20.5,0,0,1,8,3,3.12,3.12,0,0,1,.57.54,2.42,2.42,0,0,1,.42.77,1.09,1.09,0,0,1,0,.73c-.07.21-.27.33-.61.38a71.31,71.31,0,0,0-11.49-1.11,103.62,103.62,0,0,0-11.56.44,105.88,105.88,0,0,0-11.35,1.68c-3.73.76-7.29,1.63-10.72,2.61a7.25,7.25,0,0,1-1.46.25,5.63,5.63,0,0,1-1.59-.1,4.45,4.45,0,0,1-1.43-.53,2,2,0,0,1-.86-1,1.94,1.94,0,0,1,.16-1.75A2.49,2.49,0,0,1,120,48.48c1-.34,2.08-.66,3.13-.95s2.06-.57,3.06-.83c.52-.13.81-.4.85-.83a58.37,58.37,0,0,1,3.16-10.79q2.19-5.46,4.77-10.51t5.23-9.36q2.64-4.32,4.7-7.3c-.66.25-1.31.53-1.91.82S141.71,9.3,141.05,9.56Z"/><path class="cls-1" d="M180.82,44.35l-1.43,1a10.64,10.64,0,0,1-1.7.94,9.38,9.38,0,0,1-2,.64,5.78,5.78,0,0,1-2.16,0,4.32,4.32,0,0,1-1.57-.55,8.34,8.34,0,0,1-1.36-1,2.62,2.62,0,0,1-.78-1.65,7,7,0,0,1-.07-1.71,29.9,29.9,0,0,1,1-3.5A30.94,30.94,0,0,1,172.35,35a20.36,20.36,0,0,1,4-5.2,11.2,11.2,0,0,1,5.84-2.92,7,7,0,0,1,2.38-.1,5.52,5.52,0,0,1,2.17.73,4,4,0,0,1,1.42,1.43,2.29,2.29,0,0,1,.21,1.87,8.26,8.26,0,0,1-.31.77,2.26,2.26,0,0,1-.43.63,1,1,0,0,1-.46.29c-.15,0-.29-.1-.43-.35s-.11-.31-.18-.54a3.11,3.11,0,0,0-.32-.7,2.26,2.26,0,0,0-.61-.63,1.7,1.7,0,0,0-1-.29,5,5,0,0,0-3.06,1.49,25.61,25.61,0,0,0-3.27,3.49,33.48,33.48,0,0,0-2.7,4,15.47,15.47,0,0,0-1.43,3c-.28,1.1-.26,1.68.08,1.75s.85-.17,1.56-.7a21.91,21.91,0,0,0,2.42-2.2c.9-.92,1.76-1.84,2.56-2.75s1.5-1.72,2.1-2.42.91-1.07,1-1.11a2.94,2.94,0,0,1,1.86-.57,2.87,2.87,0,0,1,1.59.6,2.75,2.75,0,0,1,.93,1.33,2.07,2.07,0,0,1-.18,1.62c-.33.68-.77,1.49-1.31,2.41a7.84,7.84,0,0,0-1,2.49c-.16,1.09,0,1.82.42,2.15s1.21.32,2.35-.06a9.66,9.66,0,0,0,2.85-1.81c1-.87,2-1.79,2.94-2.77s1.89-1.9,2.75-2.78a18.87,18.87,0,0,1,2.13-2c.14-.12.32-.26.53-.41s.4-.18.54-.1.37.21.39.36a3.48,3.48,0,0,1,0,.47,30.74,30.74,0,0,1-2.19,4,24.47,24.47,0,0,1-2.9,3.65,20.38,20.38,0,0,1-3.55,3,17.9,17.9,0,0,1-4.24,2.06,5.88,5.88,0,0,1-2.55.29,5.19,5.19,0,0,1-2.07-.74,4.53,4.53,0,0,1-1.5-1.45A6.11,6.11,0,0,1,180.82,44.35Z"/><path class="cls-1" d="M229.65,35.78h.06v.51a12.26,12.26,0,0,1-2.21,4.12c-.38.43-.83,1-1.39,1.81a17.19,17.19,0,0,1-1.45,1.88c-1,1-1.94,1.83-2.81,2.57a14.71,14.71,0,0,1-3.17,2,14.23,14.23,0,0,1-1.88.66,7.77,7.77,0,0,1-2.07.29,6,6,0,0,1-1.95-.32,3.27,3.27,0,0,1-1.57-1.14,4.88,4.88,0,0,1-1.25-3,7.91,7.91,0,0,1,.68-3.58l-.43.38-.64.57-.68.6a1.94,1.94,0,0,1-.45.35,17.85,17.85,0,0,1-2.14,1.65,15.35,15.35,0,0,1-2.21,1.21,5.8,5.8,0,0,1-1.6.44,2.29,2.29,0,0,1-1.25-.22,4,4,0,0,1-1.1-.86c-.35-.38-.75-.82-1.17-1.33a9.23,9.23,0,0,1-1.39-2.25,3.84,3.84,0,0,1-.18-2.38c.1-.3.18-.6.25-.89A3.32,3.32,0,0,1,198,38c.28-.72.63-1.54,1-2.47s.82-1.86,1.25-2.8.84-1.81,1.24-2.63.75-1.49,1-2A1.62,1.62,0,0,1,204,27a2.77,2.77,0,0,1,1.82.7,4.41,4.41,0,0,1,1.24,1.84,2.49,2.49,0,0,1-.21,2.23c-.24.5-.6,1.22-1.07,2.16l-1.46,2.88c-.5,1-.94,1.94-1.32,2.83a8,8,0,0,0-.64,2c0,.93.21,1.42.61,1.46a2.63,2.63,0,0,0,1.63-.7,16.41,16.41,0,0,0,2.29-2.13c.82-.91,1.67-1.87,2.52-2.89s1.65-2,2.39-2.95,1.36-1.72,1.88-2.32c.66-1.05,1.22-2,1.67-2.82a9.28,9.28,0,0,1,2-2.45,2.61,2.61,0,0,1,1.7.1,5.2,5.2,0,0,1,1.77,1.05A3.79,3.79,0,0,1,222,29.46a1.48,1.48,0,0,1-.18,1.5c-.85,1-1.62,1.8-2.31,2.47a12.32,12.32,0,0,0-1.95,2.6l-1.14,2.26c-.43.82-.82,1.67-1.18,2.54a20,20,0,0,0-.86,2.54,5.67,5.67,0,0,0-.17,2.19c0,.72.4,1,1.21.89a9.56,9.56,0,0,0,3.77-1.62,36,36,0,0,0,4-3.12c1.34-1.16,2.57-2.3,3.71-3.42S229,36.33,229.65,35.78Z"/><path class="cls-1" d="M227.3,46.19a3.43,3.43,0,0,1-.43.64c-.76.46-1.29.34-1.57-.38a8,8,0,0,1-.21-1,5.65,5.65,0,0,1-.07-1,26,26,0,0,1,0-2.79,17.27,17.27,0,0,1,.86-3.46,31.79,31.79,0,0,1,1.52-3.71c.6-1.23,1.22-2.39,1.86-3.47a20,20,0,0,1,1.8-2.63,1.63,1.63,0,0,1,1.19-.64,2.63,2.63,0,0,1,1.45.32,2.93,2.93,0,0,1,1.13,1.08,2,2,0,0,1,.22,1.59,2.54,2.54,0,0,0-.28.38c-.14.21-.28.44-.43.69s-.29.5-.43.74a2.26,2.26,0,0,1-.28.41,17.29,17.29,0,0,0,1.56-1.15c.52-.42,1.06-.82,1.61-1.2a11.83,11.83,0,0,1,1.66-1,4.18,4.18,0,0,1,1.86-.41,3.82,3.82,0,0,1,2.13.6A5.51,5.51,0,0,1,244,31.37a4.28,4.28,0,0,1,.75,1.84,4.17,4.17,0,0,1-.16,1.87,14.55,14.55,0,0,1-1.77,3.34c-.76,1.07-1.53,2.15-2.31,3.2s-1.51,2.13-2.18,3.21a12.07,12.07,0,0,0-1.42,3.33c-.28.89-.3,1.44,0,1.65a1.06,1.06,0,0,0,1,.13,4.94,4.94,0,0,0,1.31-.64q.69-.44,1-.63a47.27,47.27,0,0,0,5.49-4.48q2.57-2.44,5-4.66a12.82,12.82,0,0,1,2.68-2.07c.36-.1.4.11.14.64a19.73,19.73,0,0,1-1.28,2.12c-.59.89-1.12,1.68-1.6,2.35-.58.85-1.36,1.88-2.35,3.08A36,36,0,0,1,245,49.14,23,23,0,0,1,241.25,52a7,7,0,0,1-3.57,1.17,4.57,4.57,0,0,1-2.13-.47A5.5,5.5,0,0,1,234,51.53a4.64,4.64,0,0,1-1-1.59,5.13,5.13,0,0,1-.33-1.78,14.31,14.31,0,0,1,1.46-6.22,52.17,52.17,0,0,1,3.1-5.59c.52-.89.66-1.5.42-1.84s-.92-.28-2.05.19A6.54,6.54,0,0,0,233,36.76,26.16,26.16,0,0,0,230.75,40c-.69,1.17-1.32,2.32-1.88,3.46A22.71,22.71,0,0,1,227.3,46.19Z"/><path class="cls-1" d="M272.27,35.65c.52-.21.85-.2,1,0a.93.93,0,0,1-.11.85,5.77,5.77,0,0,1-1.08,1.4,13.1,13.1,0,0,1-1.41,1.21c-1.1.88-2,1.62-2.75,2.18s-1.35,1-1.85,1.37-.91.62-1.24.83l-.92.57c-1.1.59-2.17,1.16-3.24,1.71a15.53,15.53,0,0,1-3,1.21,8.51,8.51,0,0,1-4.31,0,5.09,5.09,0,0,1-3.16-2.25,7.37,7.37,0,0,1-1-4.54,13.33,13.33,0,0,1,4.77-9,7.74,7.74,0,0,1,4.56-1.81,2.24,2.24,0,0,1,1.6.41,2.34,2.34,0,0,1,1,1.24,2.25,2.25,0,0,1,.07,1.27c-.09.47-.23,1-.39,1.56s-.35,1.2-.53,1.87-.36,1.37-.5,2.09q-.15.39-.39.42a.51.51,0,0,1-.47-.29,5.14,5.14,0,0,1-1-2.06c-.12-.66-.25-1.28-.39-1.87-.28,0-.65.24-1.11.73a11.17,11.17,0,0,0-1.31,1.81,12.81,12.81,0,0,0-1.07,2.31,7,7,0,0,0-.42,2.19,3.49,3.49,0,0,0,.42,1.91,1.67,1.67,0,0,0,1.07.76,3.89,3.89,0,0,0,1.5-.06,9.08,9.08,0,0,0,1.71-.58q3.76-1.57,7.26-3.39A56.39,56.39,0,0,0,272.27,35.65Z"/><path class="cls-1" d="M287.28,35.08l-5.22,3.59a28.1,28.1,0,0,0-4.59,4,31.94,31.94,0,0,0-2.24,2.77,15,15,0,0,0-1.67,2.89,1,1,0,0,1-1.35.25,5.83,5.83,0,0,1-2.35-2.92,10.28,10.28,0,0,1-.61-3.78,17.93,17.93,0,0,1,.5-3.93c.31-1.29.63-2.43,1-3.4q1.14-3.67,2.6-7.59c1-2.6,2-5.17,3.13-7.71s2.28-5,3.49-7.37,2.38-4.57,3.52-6.6a17.48,17.48,0,0,1,2-2.79,11.35,11.35,0,0,1,2.2-2A2.6,2.6,0,0,1,289,0a2.73,2.73,0,0,1,1.25.23,2.54,2.54,0,0,1,1,.73,1.88,1.88,0,0,1,.46,1A14.29,14.29,0,0,1,291,8.23a42.71,42.71,0,0,1-2.91,7.14A55.57,55.57,0,0,1,284,22.1a32.08,32.08,0,0,1-4.23,5c-.19.17-.29.3-.29.38-.75,1.78-1.43,3.52-2,5.21s-1.19,3.38-1.85,5.08c-.1.46-.21,1-.33,1.46a6.56,6.56,0,0,0-.17,1.52A14,14,0,0,1,277,38.89c1.48-1.27,3-2.47,4.63-3.62a31.51,31.51,0,0,1,5.19-3,13.7,13.7,0,0,1,2.24-.8,4.16,4.16,0,0,1,2.24,0,7.78,7.78,0,0,1,1.85.63c.66.42,1,.87,1,1.33a4.16,4.16,0,0,1-.25,1.59c-.46,1.57-1.07,3.28-1.81,5.14s-1.44,3.63-2.1,5.31l-1.71,4.31a5,5,0,0,0-.56,2.19c.24.42.69.45,1.38.07a15.5,15.5,0,0,0,2.5-1.85c1-.84,2-1.86,3.2-3l3.49-3.59q1.74-1.82,3.38-3.43c1.08-1.08,2-1.93,2.77-2.57a2,2,0,0,1,1.56-.7c.44.09.5.53.22,1.34-.38.59-1,1.44-1.85,2.57s-1.87,2.36-3,3.71-2.41,2.73-3.74,4.13-2.65,2.66-4,3.81a29.45,29.45,0,0,1-3.72,2.82,6.1,6.1,0,0,1-3.07,1.11,6.26,6.26,0,0,1-2.38-.44,5.5,5.5,0,0,1-1.89-1.24,4.93,4.93,0,0,1-1.43-4.16c.06-.34.12-.68.22-1s.22-.79.36-1.3c.52-1.23,1-2.45,1.46-3.68s.93-2.45,1.45-3.68a37.47,37.47,0,0,1,3-5.53v-.12C287.64,35.12,287.52,35.08,287.28,35.08ZM280,24.86a10.18,10.18,0,0,0,1.82-1.9,32.89,32.89,0,0,0,2.41-3.5q1.26-2,2.49-4.35a47.24,47.24,0,0,0,2.14-4.47,26.18,26.18,0,0,0,1.29-3.88,3.59,3.59,0,0,0-.11-2.54c-.53,1-1.25,2.47-2.18,4.35L285,14.51c-1,2.07-1.95,4.07-2.88,6S280.5,23.85,280,24.86Z"/><path class="cls-1" d="M319.6,34.83l.85-.76h.07v.12a3.69,3.69,0,0,1-.28,2.19c-.28.49-.44.76-.44.79-.46.64-1.1,1.46-1.91,2.45s-1.65,2-2.53,3.05-1.72,2-2.52,2.86a20.41,20.41,0,0,1-1.93,1.87,15.43,15.43,0,0,1-1.85,1.65,3.19,3.19,0,0,1-1,.44,8.92,8.92,0,0,1-1.24.29,5.27,5.27,0,0,1-1.25,0,2,2,0,0,1-1-.32,5.74,5.74,0,0,1-1.89-1.68,3.66,3.66,0,0,1-.67-2.13,23.72,23.72,0,0,1,.67-7.14,47.6,47.6,0,0,1,2.11-6.64,9.55,9.55,0,0,1,1-1.84,1.48,1.48,0,0,1,1.5-.31,3.28,3.28,0,0,1,1.52,1,5.11,5.11,0,0,1,1,1.94,3.6,3.6,0,0,1-.11,2.29c-.24.72-.45,1.41-.64,2.06s-.4,1.35-.64,2.07c-.09.33-.24.82-.46,1.45s-.43,1.31-.67,2-.46,1.36-.64,2a8.74,8.74,0,0,0-.36,1.45c-.1.64.1.81.56.51a14.69,14.69,0,0,0,1.93-1.52q2.91-2.67,5.55-5.17C316.15,38.2,317.89,36.52,319.6,34.83Zm-10-7.62c-.33.3-.57.3-.71,0a6.76,6.76,0,0,1-1.21-2.67,4.73,4.73,0,0,1,.29-2.79,2.51,2.51,0,0,1,1.24-1.37A2.44,2.44,0,0,1,311,20a4.29,4.29,0,0,1,.92.42,1.32,1.32,0,0,1,.64.67,3.79,3.79,0,0,1-.54,3.29A13.21,13.21,0,0,1,309.63,27.21Z"/><path class="cls-1" d="M319.32,46.19a3.43,3.43,0,0,1-.43.64c-.75.46-1.29.34-1.57-.38q-.13-.51-.21-1a5.65,5.65,0,0,1-.07-1,26,26,0,0,1,0-2.79,17.27,17.27,0,0,1,.86-3.46,31.79,31.79,0,0,1,1.52-3.71c.6-1.23,1.22-2.39,1.86-3.47a20,20,0,0,1,1.81-2.63,1.59,1.59,0,0,1,1.18-.64,2.63,2.63,0,0,1,1.45.32,3,3,0,0,1,1.14,1.08,2,2,0,0,1,.21,1.59,2.54,2.54,0,0,0-.28.38c-.14.21-.28.44-.43.69s-.28.5-.43.74a2.26,2.26,0,0,1-.28.41,17.29,17.29,0,0,0,1.56-1.15c.52-.42,1.06-.82,1.61-1.2a11.83,11.83,0,0,1,1.66-1,4.21,4.21,0,0,1,1.86-.41,3.82,3.82,0,0,1,2.13.6A5.51,5.51,0,0,1,336,31.37a4.28,4.28,0,0,1,.75,1.84,4.17,4.17,0,0,1-.16,1.87,14.55,14.55,0,0,1-1.77,3.34c-.76,1.07-1.53,2.15-2.31,3.2s-1.51,2.13-2.18,3.21a12.07,12.07,0,0,0-1.42,3.33c-.28.89-.3,1.44,0,1.65a1.06,1.06,0,0,0,1,.13,4.94,4.94,0,0,0,1.31-.64l1-.63a46.34,46.34,0,0,0,5.48-4.48q2.56-2.44,5-4.66a12.82,12.82,0,0,1,2.68-2.07c.36-.1.4.11.14.64a19.73,19.73,0,0,1-1.28,2.12c-.59.89-1.12,1.68-1.6,2.35a38.22,38.22,0,0,1-2.35,3.08,37.16,37.16,0,0,1-3.3,3.49A23.54,23.54,0,0,1,333.27,52a7,7,0,0,1-3.57,1.17,4.57,4.57,0,0,1-2.13-.47A5.5,5.5,0,0,1,326,51.53a4.64,4.64,0,0,1-1-1.59,5.13,5.13,0,0,1-.33-1.78,14.31,14.31,0,0,1,1.46-6.22,52.17,52.17,0,0,1,3.1-5.59c.52-.89.66-1.5.42-1.84s-.92-.28-2.05.19A6.61,6.61,0,0,0,325,36.76,26.16,26.16,0,0,0,322.77,40c-.69,1.17-1.32,2.32-1.88,3.46A22.71,22.71,0,0,1,319.32,46.19Z"/><path class="cls-1" d="M347.27,41.94c.29.25.83.18,1.61-.23a23.91,23.91,0,0,0,2.55-1.55c.94-.63,1.89-1.3,2.89-2a25.12,25.12,0,0,1,2.56-1.62,9.94,9.94,0,0,1,1.39-.63,10.34,10.34,0,0,1,2-.58,6.09,6.09,0,0,1,1.89-.06,1,1,0,0,1,1,.89c.1.76.16,1.52.19,2.29s.07,1.56.17,2.41v.63c.95-.63,1.93-1.23,3-1.81l2.94-1.62c1.1-.54,2.15-1.09,3.18-1.61a19.32,19.32,0,0,1,3.16-1.31l.14.07v.06a.81.81,0,0,0-.17.19,1,1,0,0,1-.18.19c-.86.85-1.69,1.62-2.53,2.32l-2.52,2.13q-1.5,1.34-2.82,2.31c-.88.66-1.84,1.41-2.88,2.26a6.33,6.33,0,0,0-1.6,2,15.25,15.25,0,0,0-.82,2.35c-.95,2.75-1.94,5.69-2.95,8.83A75,75,0,0,1,355.75,67a41.22,41.22,0,0,1-5.16,8.09,21.16,21.16,0,0,1-7.3,5.72,7.75,7.75,0,0,1-2.1,0,4.15,4.15,0,0,1-1.95-.86,5.45,5.45,0,0,1-2-2.73,9.19,9.19,0,0,1-.39-3.33,13.51,13.51,0,0,1,.68-3.46,20.43,20.43,0,0,1,1.21-3,47.23,47.23,0,0,1,4.08-6.83,62.29,62.29,0,0,1,5-6.06,74.55,74.55,0,0,1,5.66-5.43q3-2.56,6.12-5a2.69,2.69,0,0,0,.53-1.11,13.8,13.8,0,0,0,.36-1.66,3.36,3.36,0,0,0,0-1.26c-.09-.32-.33-.31-.71,0-1,.68-2,1.35-3,2a25.9,25.9,0,0,1-3.32,1.78,19.89,19.89,0,0,1-3.48,1.2,10,10,0,0,1-3.56.25,4.93,4.93,0,0,1-2.56-1,4.41,4.41,0,0,1-1.31-1.84,6.52,6.52,0,0,1-.41-2.29,7.89,7.89,0,0,1,.36-2.38,11.05,11.05,0,0,1,2.21-4.19,8,8,0,0,1,4.2-2.54,12.32,12.32,0,0,1,7.83.26q.78.32,1.38.63a1.65,1.65,0,0,1,.83,1c.47.93.09,1.34-1.14,1.21-.52-.09-1.06-.15-1.6-.19s-1.07-.06-1.53-.06a6.72,6.72,0,0,0-3.74,1,8.42,8.42,0,0,0-2.43,2.31,8.07,8.07,0,0,0-1.17,2.67A3.87,3.87,0,0,0,347.27,41.94Zm9.19,8.31c-1.47,1.45-3,2.89-4.45,4.35s-2.89,3-4.2,4.48a45.07,45.07,0,0,0-3.59,4.8,28.08,28.08,0,0,0-2.71,5.29,19.63,19.63,0,0,0-.89,3.53,8.21,8.21,0,0,0,.25,3.46,8.76,8.76,0,0,0,2.85-2.22,32.06,32.06,0,0,0,2.67-3.49c.83-1.28,1.57-2.51,2.24-3.72s1.21-2.19,1.63-3c.34-.6.85-1.53,1.53-2.83s1.38-2.64,2.07-4.06,1.29-2.75,1.81-4A8.43,8.43,0,0,0,356.46,50.25Z"/><path class="cls-1" d="M23.33,77.24c-6.8-1.36-37.78-10.13,49-15.74S326.11,64.43,327.74,65s-4.17,1.94-10.8,1.75-109.78-5.05-181.27-3.11S22.31,70.83,32.87,73.94,23.33,77.24,23.33,77.24Z"/></g></g></svg>