<svg xmlns="http://www.w3.org/2000/svg" viewBox="0 0 271.55 113.7"><defs><style>.cls-1{fill:#e85e04;}</style></defs><g id="Layer_2" data-name="Layer 2"><g id="Layer_1-2" data-name="Layer 1"><path class="cls-1" d="M0,30.46a19.7,19.7,0,0,1,2.84-10,28.61,28.61,0,0,1,7.23-7.87A46.27,46.27,0,0,1,20.31,6.75,80.14,80.14,0,0,1,32.2,2.89,104.68,104.68,0,0,1,44.38.71a95.76,95.76,0,0,1,11-.71A88.83,88.83,0,0,1,66.34.71,74.19,74.19,0,0,1,77.27,2.89,49.59,49.59,0,0,1,87,6.75a24.3,24.3,0,0,1,7.34,5.79A17,17,0,0,1,98,20.46,20.52,20.52,0,0,1,97,30.76a25.45,25.45,0,0,1-6.6,10,49,49,0,0,1-10.81,7.77A71.67,71.67,0,0,1,66.4,53.91a73.59,73.59,0,0,1-13.66,2.84,56,56,0,0,1-12.34,0,21,21,0,0,1-9.11-2.89q-1.37,2.64-2.84,5.38c-1,1.83-1.95,3.81-2.9,5.94s-1.9,4.45-2.85,7S20.86,77.46,20,80.51c-.15.4-.31.82-.46,1.27A3.32,3.32,0,0,1,19,82.84a.88.88,0,0,1-.79.36c-.31,0-.61-.36-.91-1a14.49,14.49,0,0,1-1.82-6.8A39.76,39.76,0,0,1,16,66.7a54.48,54.48,0,0,1,2.22-8.93,44.66,44.66,0,0,1,3.3-7.62,4.81,4.81,0,0,0,.68-1.22c.15-.4,0-.77-.46-1.11a19.55,19.55,0,0,1-8-1,21.94,21.94,0,0,1-6.71-3.75,20.48,20.48,0,0,1-4.84-5.74A17.09,17.09,0,0,1,0,30.46ZM78.06,36q6.15-4.77,8.54-8.88t1.88-7.46A9.76,9.76,0,0,0,85,13.76a24.83,24.83,0,0,0-7.33-4.32A43.39,43.39,0,0,0,67.76,7,64.21,64.21,0,0,0,56.67,6.4,93.73,93.73,0,0,0,42.16,8.17a69.29,69.29,0,0,0-13.43,4.06,37.3,37.3,0,0,0-10.35,6.4,15.93,15.93,0,0,0-5.29,8.78A12.07,12.07,0,0,0,14.62,36q2.45,4.37,9.16,7.72,2.85-5.9,4.67-9.4l2.84-5.48c.69-1.32,1.2-2.28,1.54-2.89s.66-1.15,1-1.62a2.67,2.67,0,0,1,2.9-.92,8.16,8.16,0,0,1,3.53,1.78,9.4,9.4,0,0,1,2.56,3.35,4.26,4.26,0,0,1,0,3.81q-1.26,2.43-2.39,4.41t-2.16,3.86q-1,1.88-2.17,3.86c-.76,1.32-1.55,2.79-2.39,4.41A93.35,93.35,0,0,0,44.21,48a106.68,106.68,0,0,0,12.12-2.39,83,83,0,0,0,11.83-4A43.05,43.05,0,0,0,78.06,36Z"/><path class="cls-1" d="M124.6,44a25.44,25.44,0,0,0-8,5.13,64.38,64.38,0,0,0-6.89,7.56q-3.24,4.16-6.31,8.63T97.29,73.6a2,2,0,0,1-2.16.51,2.29,2.29,0,0,1-1.59-1.57,3.59,3.59,0,0,1,.23-2.49q.8-2.43,1.53-5.48t1.42-6.4c.46-2.23.93-4.47,1.43-6.7s1-4.36,1.53-6.39a2,2,0,0,1,1.08-1.27,4.29,4.29,0,0,1,1.88-.51,3.6,3.6,0,0,1,1.82.35,2,2,0,0,1,1,1.22,10.59,10.59,0,0,1-.29,4.88q-.74,2.84-1.65,5.58,2.06-2.23,4.5-5.23a48.59,48.59,0,0,1,5.35-5.58,29.61,29.61,0,0,1,6.14-4.27,12.28,12.28,0,0,1,6.77-1.37,6.08,6.08,0,0,1,2.9,1.68,8.27,8.27,0,0,1,1.65,2.64,9,9,0,0,1,.63,2.89,6.73,6.73,0,0,1-.29,2.44c-.53.95-1.15,2-1.87,3.09a17.2,17.2,0,0,0-1.71,3.4,8.2,8.2,0,0,0-.51,3.41,4.12,4.12,0,0,0,1.82,3c.45.54.41.95-.12,1.22a5.34,5.34,0,0,1-2.16.46,11,11,0,0,1-2.73-.26,3.74,3.74,0,0,1-1.93-.91,9.79,9.79,0,0,1-2.22-4.52,11.11,11.11,0,0,1,.17-4.62,17.88,17.88,0,0,1,1.82-4.57A32.53,32.53,0,0,1,124.6,44Z"/><path class="cls-1" d="M161,53.1a13.12,13.12,0,0,0,3-.61c1.06-.34,2.05-.61,3-.82,1.06-.27,2.18-.59,3.35-1a29.71,29.71,0,0,1,3.36-.86c.76,0,1.06.18.91.56a4,4,0,0,1-1.08,1.32,17.54,17.54,0,0,1-1.94,1.47c-.72.47-1.27.81-1.64,1a34.89,34.89,0,0,1-5.41,1.73,24.92,24.92,0,0,0-5.06,1.72q-1,1.64-2.85,4.32a53,53,0,0,1-4,5.23,30.52,30.52,0,0,1-4.66,4.36,8,8,0,0,1-4.73,1.83,9.18,9.18,0,0,1-5.46-1.62,6.2,6.2,0,0,1-2.56-3.15,15,15,0,0,1-1-4.62,22.54,22.54,0,0,1,.17-4.87,27.18,27.18,0,0,1,.79-3.91,2,2,0,0,1,.35-1,1.53,1.53,0,0,1,.45-.35l.51-.21a1.06,1.06,0,0,0,.51-.4c.23-.75.46-1.52.69-2.34a7.66,7.66,0,0,1,1-2.23,25.26,25.26,0,0,1,5-5.63,12.4,12.4,0,0,1,7-3,10.54,10.54,0,0,1,4.61.2,8.11,8.11,0,0,1,3.7,2.34,7.61,7.61,0,0,1,1.93,2.89,11.37,11.37,0,0,1,.68,3,10.23,10.23,0,0,1-.11,2.69C161.21,52.08,161.09,52.69,161,53.1ZM144.41,69.75A5.66,5.66,0,0,0,147,68.27a25.87,25.87,0,0,0,5-6.19,14.29,14.29,0,0,0,1.31-2.79c-1.52.13-3.15.2-4.89.2a28,28,0,0,1-4.9-.4,8.91,8.91,0,0,0-.45,2.38,19.4,19.4,0,0,0,0,3,18.7,18.7,0,0,0,.45,3A6.51,6.51,0,0,0,144.41,69.75Zm10.12-15.64a.74.74,0,0,0,.46-.2.58.58,0,0,0,.23-.41,9.34,9.34,0,0,0,.85-4.26,5,5,0,0,0-1.65-3.76,3.14,3.14,0,0,0-2-.91A4.9,4.9,0,0,0,150,45a12.18,12.18,0,0,0-3.64,2.85c-.91,1.08-1.78,2.2-2.62,3.35a.93.93,0,0,0,.23.71,2.25,2.25,0,0,1,1,2c0,.34.44.54,1.31.61a28.05,28.05,0,0,0,3,0c1.1,0,2.16-.12,3.19-.26A20.44,20.44,0,0,1,154.53,54.11Z"/><path class="cls-1" d="M189.47,51.37q-4.78,4.77-8.94,9.64t-8.13,9.75a2.21,2.21,0,0,1-1.6.61,2.11,2.11,0,0,1-1.19-.61,3.49,3.49,0,0,1-.8-1.27,7.66,7.66,0,0,1-.39-1.37,16.78,16.78,0,0,1,0-4,14.92,14.92,0,0,1,.45-2.79q.45-1.73,1.2-4t1.53-4.52c.53-1.52,1-3,1.54-4.46s1-2.76,1.42-3.91A2.14,2.14,0,0,1,176.15,43a3.26,3.26,0,0,1,2.22.31,3.91,3.91,0,0,1,1.71,1.88,5.14,5.14,0,0,1,.17,3.35c-.3,1.35-.65,2.7-1,4.06s-.73,2.67-1,4q3.3-3.25,6.55-6.75t6.31-7a3.54,3.54,0,0,1,3.07-.4,3.91,3.91,0,0,1,2.39,2.23,7.37,7.37,0,0,1,.8,3.76,19.2,19.2,0,0,1-.57,3.65,61.33,61.33,0,0,1,7.74-6,41.31,41.31,0,0,1,8.65-4.47,6,6,0,0,1,3.75-.2,6.45,6.45,0,0,1,3,1.88,8.91,8.91,0,0,1,1.88,3.35,11.56,11.56,0,0,1,.51,4.11c-.91,1.69-1.78,3.34-2.62,4.92s-1.59,3.17-2.27,4.73a31.75,31.75,0,0,0-1.65,4.67,15.26,15.26,0,0,0-.51,4.77c.52.34,1.42.13,2.67-.61a47.55,47.55,0,0,0,4.27-2.95c1.59-1.21,3.24-2.5,5-3.85s3.2-2.51,4.49-3.46c3.72-2.64,5.77-3.75,6.15-3.35s-.69,1.93-3.19,4.57-5,5.11-7.68,7.62a51.82,51.82,0,0,1-8.59,6.49,6.8,6.8,0,0,1-3.42,1,10.64,10.64,0,0,1-3.81-.61,8.53,8.53,0,0,1-3.24-2,5.56,5.56,0,0,1-1.59-3.4,15,15,0,0,1,.39-5.59,39.34,39.34,0,0,1,2-5.83,55.17,55.17,0,0,1,2.85-5.64q1.59-2.74,3-5.07c-.23-.54-1.08-.36-2.56.55s-3.28,2.19-5.41,3.81-4.36,3.45-6.71,5.48l-6.49,5.59a8.93,8.93,0,0,1-1.88,1.27,2.87,2.87,0,0,1-1.08.25c-.76,0-1.25-.56-1.47-1.67a17,17,0,0,1-.29-3.86,31.36,31.36,0,0,1,.4-4.27A29.43,29.43,0,0,1,189.47,51.37Z"/><path class="cls-1" d="M258,53.1a13,13,0,0,0,3-.61c1.06-.34,2.05-.61,3-.82q1.59-.41,3.36-1a29,29,0,0,1,3.35-.86c.76,0,1.06.18.91.56a4,4,0,0,1-1.08,1.32,18.37,18.37,0,0,1-1.93,1.47c-.72.47-1.27.81-1.65,1a34.55,34.55,0,0,1-5.41,1.73,24.92,24.92,0,0,0-5.06,1.72q-1,1.64-2.85,4.32a53,53,0,0,1-4,5.23,30.52,30.52,0,0,1-4.66,4.36,8,8,0,0,1-4.72,1.83,9.19,9.19,0,0,1-5.47-1.62,6.2,6.2,0,0,1-2.56-3.15,15,15,0,0,1-1-4.62,23.19,23.19,0,0,1,.17-4.87,27,27,0,0,1,.8-3.91,2,2,0,0,1,.34-1,1.53,1.53,0,0,1,.45-.35l.51-.21a1.08,1.08,0,0,0,.52-.4c.22-.75.45-1.52.68-2.34a7.93,7.93,0,0,1,1-2.23,25.26,25.26,0,0,1,4.95-5.63,12.43,12.43,0,0,1,7-3,10.53,10.53,0,0,1,4.61.2,8.06,8.06,0,0,1,3.7,2.34,7.61,7.61,0,0,1,1.93,2.89,11.8,11.8,0,0,1,.69,3,10.65,10.65,0,0,1-.12,2.69C258.16,52.08,258.05,52.69,258,53.1ZM241.36,69.75a5.66,5.66,0,0,0,2.56-1.48,23.66,23.66,0,0,0,2.73-2.89,25.24,25.24,0,0,0,2.27-3.3,13.72,13.72,0,0,0,1.31-2.79c-1.52.13-3.15.2-4.89.2a27.82,27.82,0,0,1-4.89-.4,8.87,8.87,0,0,0-.46,2.38,22.17,22.17,0,0,0,0,3,18.69,18.69,0,0,0,.46,3A6.52,6.52,0,0,0,241.36,69.75Zm10.13-15.64a.7.7,0,0,0,.45-.2.58.58,0,0,0,.23-.41,9.34,9.34,0,0,0,.85-4.26,5,5,0,0,0-1.65-3.76,3.12,3.12,0,0,0-2.05-.91,4.9,4.9,0,0,0-2.39.4,12.31,12.31,0,0,0-3.64,2.85c-.91,1.08-1.78,2.2-2.62,3.35a.93.93,0,0,0,.23.71,2.29,2.29,0,0,1,1,2c0,.34.43.54,1.3.61a28.1,28.1,0,0,0,3,0c1.1,0,2.17-.12,3.19-.26A20.32,20.32,0,0,1,251.49,54.11Z"/><path class="cls-1" d="M238.79,113.7c4.68-1.81,26.13-13.83-32-24.73S35.66,85.66,34.52,86.47s2.68,3,7.16,2.91S116,85.22,164,90.24s75.89,14,68.58,18.3S238.79,113.7,238.79,113.7Z"/></g></g></svg>