<svg xmlns="http://www.w3.org/2000/svg" viewBox="0 0 381.45 47.98"><defs><style>.cls-1{fill:#f16522;fill-rule:evenodd;}.cls-2{font-size:26.83px;font-family:Montserrat-SemiBold, Montserrat;font-weight:600;letter-spacing:0.05em;}.cls-2,.cls-8{fill:#fff;}.cls-3{letter-spacing:0.04em;}.cls-4{letter-spacing:0.06em;}.cls-5{letter-spacing:0.05em;}.cls-6{letter-spacing:0.05em;}.cls-7{letter-spacing:0.06em;}</style></defs><g id="Layer_2" data-name="Layer 2"><g id="Layer_1-2" data-name="Layer 1"><path class="cls-1" d="M24,0H357.47a24.06,24.06,0,0,1,24,24h0a24.06,24.06,0,0,1-24,24H24A24.07,24.07,0,0,1,0,24H0A24.07,24.07,0,0,1,24,0Z"/><text class="cls-2" transform="translate(67.15 33.33)">L<tspan class="cls-3" x="17.33" y="0">OW</tspan><tspan class="cls-4" x="72.66" y="0">ONGAN KE</tspan><tspan class="cls-5" x="237.35" y="0">R</tspan><tspan class="cls-6" x="258.3" y="0">J</tspan><tspan class="cls-7" x="273.65" y="0">A</tspan></text><path class="cls-8" d="M40.34,30l-1.1-.58L36.52,28l-1.73-.9c-.69-.37-1.39-.71-2.07-1.1A3.55,3.55,0,0,1,31,23.84a4.18,4.18,0,0,1-.15-1.36,3.79,3.79,0,0,1,.31-1.2c.64-1.62,1.28-3.23,1.93-4.85l.44-1.1.06-.16H30c0,.06-.05.13-.08.19-.24.52-.48,1-.71,1.55s-.61,1.34-.91,2l-.6,1.32a1.63,1.63,0,0,1-1.28,1,1.57,1.57,0,0,1-1.27-.32,1.68,1.68,0,0,1-.67-1.42,1.56,1.56,0,0,1,.15-.6l.63-1.4c.4-.86.79-1.72,1.18-2.59.18-.39.36-.79.55-1.19a3.32,3.32,0,0,1,2.15-1.79,2.72,2.72,0,0,1,.75-.11h6.4a2,2,0,0,1,.65.12l1.8.58c-.28,1,1.47,2,1.94.68a2.78,2.78,0,0,1,1.05.8,1.61,1.61,0,0,1,.32.84,2.54,2.54,0,0,1-.22,1.27c-.27.62-.51,1.26-.77,1.89L40,20.64l-1.22,3-.31.75.14.09,2.31,1.2c.51.27,1,.53,1.54.81a3.58,3.58,0,0,1,1.76,2.26,3.53,3.53,0,0,1,.12,1c0,1.89,0,3.77,0,5.65a2,2,0,0,1-.54,1.4,1.91,1.91,0,0,1-1,.58,2,2,0,0,1-1.91-.56,1.84,1.84,0,0,1-.55-1.37V30.21C40.35,30.13,40.34,30.05,40.34,30Z"/><path class="cls-8" d="M45.74,38.61V36a1.38,1.38,0,0,1,1-1.36,1.58,1.58,0,0,1,.38,0h5.32v-.24c0-.81,0-1.63,0-2.45a1.33,1.33,0,0,1,.63-1.15,1.36,1.36,0,0,1,.75-.2h4a1.36,1.36,0,0,1,1.34,1.32v.1c0,3.09,0,6.17,0,9.26a1.45,1.45,0,0,1-.29.9,1.37,1.37,0,0,1-1,.53H40.47a1.45,1.45,0,0,1-.86-.23,1.24,1.24,0,0,1-.6-1c0-.49,0-1,0-1.48a1.32,1.32,0,0,1,1.25-1.26h5.48Z"/><path class="cls-8" d="M28,25.55a1.52,1.52,0,0,1-.2.81c-.43.81-.84,1.61-1.26,2.42-.17.31-.33.63-.51.94a1.57,1.57,0,0,1-1.07.75,1.71,1.71,0,0,1-1.19-.19l-1.64-.86L19.4,28l-1-.54a1.54,1.54,0,0,1-.79-1.13,1.59,1.59,0,0,1,.16-1.07c.43-.83.86-1.66,1.3-2.48.15-.3.3-.6.47-.9a1.62,1.62,0,0,1,1.72-.77,1.93,1.93,0,0,1,.58.22l1.47.76L26,23.5l1.09.58a1.61,1.61,0,0,1,.85,1.07A2.71,2.71,0,0,1,28,25.55Z"/><path class="cls-8" d="M24.78,24.3a.75.75,0,0,1-.38-.1l-.18-.09L24,24l-.34-.18-.41-.21-.05,0-.24-.12a.72.72,0,0,1-.37-.52.78.78,0,0,1,.07-.5l.24-.45.12-.23,0-.08a1.62,1.62,0,0,1,.1-.18.73.73,0,0,1,.8-.36.59.59,0,0,1,.24.09l.24.12.17.09.74.39.13.06.17.1a.72.72,0,0,1,.39.49.74.74,0,0,1,0,.12v.05a.67.67,0,0,1-.09.38l-.21.4c0,.09-.09.18-.14.27l0,0-.12.23a.76.76,0,0,1-.5.35Zm-1-2.61a.14.14,0,0,0-.12.07l-.09.16,0,.08-.12.23-.24.45a.18.18,0,0,0,0,.1.13.13,0,0,0,.07.11l.22.11.05,0,.41.22.34.17.28.15.17.09a.26.26,0,0,0,.13,0c.06,0,.08,0,.09-.07a1.28,1.28,0,0,0,.11-.2l0,0c0-.09.09-.18.14-.27s.13-.27.2-.4l0-.07v-.06a.12.12,0,0,0-.08-.09l-.18-.1L25,22.33l-.74-.39-.17-.09-.24-.12-.08,0Z"/><path class="cls-8" d="M32.25,27.26l4,2.1v4.15a3.86,3.86,0,0,1-.8,2.36L33.84,38c-.56.75-1.13,1.49-1.7,2.23l-.36.47a1.87,1.87,0,0,1-1.18.71,1.94,1.94,0,0,1-1.9-.63,2.05,2.05,0,0,1-.33-2.18,5.84,5.84,0,0,1,.33-.53l1.74-2.28,1.5-2c.07-.09.14-.19.22-.28a.36.36,0,0,0,.09-.26v-6Z"/><path class="cls-8" d="M43.31,16.13l3,4.45a1.76,1.76,0,0,0,.23,0l.36,0H50.7a1.61,1.61,0,0,1,1.41.76,1.7,1.7,0,0,1-.06,1.93,1.61,1.61,0,0,1-1.32.66c-1.52,0-3,0-4.55,0a3.17,3.17,0,0,1-2.64-1.4c-.36-.51-.69-1-1-1.54-.23-.35-.46-.7-.71-1.06.24-.63.5-1.25.75-1.88S43.05,16.78,43.31,16.13Z"/><path class="cls-8" d="M41.17,12.45a3.36,3.36,0,1,1,3.36-3.34A3.35,3.35,0,0,1,41.17,12.45Z"/></g></g></svg>