<svg xmlns="http://www.w3.org/2000/svg" viewBox="0 0 379.62 47.98"><defs><style>.cls-1{fill:#f16522;fill-rule:evenodd;}.cls-2{font-size:26.83px;font-family:Montserrat-SemiBold, Montserrat;font-weight:600;letter-spacing:0.06em;}.cls-2,.cls-6{fill:#fff;}.cls-3{letter-spacing:0.05em;}.cls-4{letter-spacing:0.03em;}.cls-5{letter-spacing:0.03em;}</style></defs><g id="Layer_2" data-name="Layer 2"><g id="Layer_1-2" data-name="Layer 1"><path class="cls-1" d="M24,0H355.63a24.07,24.07,0,0,1,24,24h0a24.07,24.07,0,0,1-24,24H24A24.07,24.07,0,0,1,0,24H0A24.07,24.07,0,0,1,24,0Z"/><text class="cls-2" transform="translate(64.94 33.14)">O<tspan class="cls-3" x="24.2" y="0">U</tspan><tspan x="46.63" y="0">TLET TERDE</tspan><tspan class="cls-4" x="230.37" y="0">K</tspan><tspan class="cls-5" x="250.73" y="0">A</tspan><tspan x="271.5" y="0">T</tspan></text><path class="cls-6" d="M42.77,23a10.39,10.39,0,1,0-17.63,0h0L34,36.19,42.78,23ZM34,23.13a5.67,5.67,0,1,1,5.67-5.67A5.67,5.67,0,0,1,34,23.13Z"/><ellipse class="cls-6" cx="33.96" cy="39.52" rx="6.46" ry="1.39"/></g></g></svg>